<?xml version="1.0" encoding="utf-8"?>
<!-- Generator: Adobe Illustrator 19.0.0, SVG Export Plug-In . SVG Version: 6.00 Build 0)  -->
<svg version="1.1" id="Layer_1" xmlns="http://www.w3.org/2000/svg" xmlns:xlink="http://www.w3.org/1999/xlink" x="0px" y="0px"
	 viewBox="0 0 26 24" style="enable-background:new 0 0 26 24;" xml:space="preserve">
<style type="text/css">
	.st0{clip-path:url(#XMLID_12_);}
	.st1{clip-path:url(#XMLID_13_);fill:#010101;}
	.st2{clip-path:url(#XMLID_14_);}
	.st3{clip-path:url(#XMLID_15_);fill:#5EC2A8;}
</style>
<g id="XMLID_7_">
	<defs>
		<path id="XMLID_8_" d="M23.9,19.2l-4.2-2.1c-0.5-0.3-0.9-0.8-0.9-1.4V14c0.1-0.1,0.3-0.3,0.4-0.5c0.6-0.8,1-1.7,1.3-2.7
			c0.5-0.2,0.9-0.7,0.9-1.3V7.8c0-0.4-0.2-0.7-0.4-1V4.2c0,0,0.5-4-4.9-4c-5.4,0-4.9,4-4.9,4v2.6c-0.3,0.2-0.4,0.6-0.4,1v1.8
			c0,0.5,0.2,0.9,0.6,1.1C11.8,12.6,13,14,13,14v1.6c0,0.6-0.3,1.1-0.8,1.4l-4,2.2C7,19.8,6.3,21,6.3,22.3v1.4h19.6v-1.4
			C25.9,21.1,25.1,19.8,23.9,19.2z"/>
	</defs>
	<clipPath id="XMLID_12_">
		<use xlink:href="#XMLID_8_"  style="overflow:visible;"/>
	</clipPath>
	<g id="XMLID_9_" class="st0">
		<defs>
			<rect id="XMLID_10_" x="-1162.9" y="-69" width="1440" height="5096"/>
		</defs>
		<clipPath id="XMLID_13_">
			<use xlink:href="#XMLID_10_"  style="overflow:visible;"/>
		</clipPath>
		<rect id="XMLID_11_" x="1.3" y="-4.8" class="st1" width="29.6" height="33.6"/>
	</g>
</g>
<g id="XMLID_2_">
	<defs>
		<path id="XMLID_3_" d="M8.2,19.2l2.6-1.4c0,0,0,0,0,0l1.3-0.7c0.5-0.3,0.8-0.8,0.8-1.4V14c0,0-0.5-0.6-0.9-1.5c0,0,0,0,0,0
			c-0.1-0.1-0.1-0.2-0.2-0.4c0,0,0,0,0-0.1c-0.1-0.1-0.1-0.3-0.2-0.4c0,0,0,0,0,0c0-0.1-0.1-0.3-0.1-0.4c0,0,0-0.1,0-0.1
			c0-0.2-0.1-0.3-0.1-0.5c-0.4-0.2-0.6-0.6-0.6-1.1V7.8c0-0.4,0.2-0.7,0.4-1V4.3c-0.6-0.5-1.6-0.9-3.1-0.9c-4.3,0-4.4,3.6-4.4,3.6
			v2.2C3.4,9.3,3.2,9.6,3.2,10v1.5c0,0.4,0.2,0.8,0.5,1c0.4,1.7,1.7,2.9,1.7,2.9v1.4c0,0.5-0.3,1-0.7,1.2l-3,1.9
			c-1,0.5-1.6,1.6-1.6,2.7v1.2h6.2v-1.4C6.3,21,7,19.8,8.2,19.2z"/>
	</defs>
	<clipPath id="XMLID_14_">
		<use xlink:href="#XMLID_3_"  style="overflow:visible;"/>
	</clipPath>
	<g id="XMLID_4_" class="st2">
		<defs>
			<rect id="XMLID_5_" x="-1162.9" y="-69" width="1440" height="5096"/>
		</defs>
		<clipPath id="XMLID_15_">
			<use xlink:href="#XMLID_5_"  style="overflow:visible;"/>
		</clipPath>
		<rect id="XMLID_6_" x="-4.9" y="-1.7" class="st3" width="22.9" height="30.4"/>
	</g>
</g>
</svg>
