<?xml version="1.0" encoding="utf-8"?>
<!-- Generator: Adobe Illustrator 19.0.0, SVG Export Plug-In . SVG Version: 6.00 Build 0)  -->
<svg version="1.1" id="Capa_1" xmlns="http://www.w3.org/2000/svg" xmlns:xlink="http://www.w3.org/1999/xlink" x="0px" y="0px"
	 viewBox="271 -271.7 572.7 572.7" style="enable-background:new 271 -271.7 572.7 572.7;" xml:space="preserve">
<style type="text/css">
	.st0{fill:#52BA9E;}
</style>
<g>
	<g>
		<path class="st0" d="M804.7-224.5H404.3c-21.5,0-39,17.5-39,39c0,21.5,17.5,39,39,39h400.4c21.5,0,39-17.5,39-39
			C843.7-207,826.2-224.5,804.7-224.5z"/>
		<path class="st0" d="M804.7-88H404.3c-21.5,0-39,17.5-39,39c0,21.5,17.5,39,39,39h400.4c21.5,0,39-17.5,39-39
			C843.7-70.5,826.2-88,804.7-88z"/>
		<path class="st0" d="M804.7,42.5H404.3c-21.5,0-39,17.5-39,39c0,21.5,17.5,39,39,39h400.4c21.5,0,39-17.5,39-39
			C843.7,60,826.2,42.5,804.7,42.5z"/>
		<path class="st0" d="M804.7,175.8H404.3c-21.5,0-39,17.5-39,39c0,21.5,17.5,39,39,39h400.4c21.5,0,39-17.5,39-39
			C843.7,193.3,826.2,175.8,804.7,175.8z"/>
		<path d="M310-146.5c21.5,0,39-17.5,39-39s-17.5-39-39-39c-21.5,0-39,17.5-39,39S288.5-146.5,310-146.5z"/>
		<path d="M310-10c21.5,0,39-17.5,39-39s-17.5-39-39-39c-21.5,0-39,17.5-39,39S288.5-10,310-10z"/>
		<path d="M310,120.6c21.5,0,39-17.5,39-39c0-21.5-17.5-39-39-39c-21.5,0-39,17.5-39,39C271,103.1,288.5,120.6,310,120.6z"/>
		<path d="M310,253.9c21.5,0,39-17.5,39-39c0-21.5-17.5-39-39-39c-21.5,0-39,17.5-39,39C271,236.4,288.5,253.9,310,253.9z"/>
	</g>
</g>
</svg>
