<?xml version="1.0" encoding="utf-8"?>
<!-- Generator: Adobe Illustrator 19.0.0, SVG Export Plug-In . SVG Version: 6.00 Build 0)  -->
<svg version="1.1" id="Layer_1" xmlns="http://www.w3.org/2000/svg" xmlns:xlink="http://www.w3.org/1999/xlink" x="0px" y="0px"
	 viewBox="18 -8 64 64" style="enable-background:new 18 -8 64 64;" xml:space="preserve">
<style type="text/css">
	.st0{clip-path:url(#SVGID_2_);}
	.st1{clip-path:url(#SVGID_4_);fill:#FFFFFF;}
	.st2{clip-path:url(#SVGID_6_);}
	.st3{clip-path:url(#SVGID_8_);fill:#FFFFFF;}
	.st4{clip-path:url(#SVGID_10_);}
	.st5{clip-path:url(#SVGID_12_);fill:#FFFFFF;}
	.st6{clip-path:url(#SVGID_14_);}
	.st7{clip-path:url(#SVGID_16_);fill:#FFFFFF;}
	.st8{clip-path:url(#SVGID_18_);}
	.st9{clip-path:url(#SVGID_20_);fill:#010101;}
	.st10{clip-path:url(#SVGID_22_);}
	.st11{clip-path:url(#SVGID_24_);fill:#010101;}
	.st12{clip-path:url(#SVGID_26_);}
	.st13{clip-path:url(#SVGID_28_);fill:#FFFFFF;}
	.st14{clip-path:url(#SVGID_30_);}
	.st15{clip-path:url(#SVGID_32_);fill:#010101;}
	.st16{clip-path:url(#SVGID_34_);}
	.st17{clip-path:url(#SVGID_36_);fill:#FFFFFF;}
</style>
<g>
	<defs>
		<path id="SVGID_1_" d="M72.4,28.3c-0.6,0-1.1,0.5-1.1,1.1v8.5c0,1.8-1.4,3.2-3.2,3.2H31.9c-1.8,0-3.2-1.4-3.2-3.2v-8.5
			c0-0.6-0.5-1.1-1.1-1.1c-0.6,0-1.1,0.5-1.1,1.1v8.5c0,2.9,2.4,5.3,5.3,5.3h36.2c2.9,0,5.3-2.4,5.3-5.3v-8.5
			C73.4,28.7,72.9,28.3,72.4,28.3z"/>
	</defs>
	<clipPath id="SVGID_2_">
		<use xlink:href="#SVGID_1_"  style="overflow:visible;"/>
	</clipPath>
	<g class="st0">
		<defs>
			<rect id="SVGID_3_" x="-101.9" y="-160.9" width="1440" height="3117"/>
		</defs>
		<clipPath id="SVGID_4_">
			<use xlink:href="#SVGID_3_"  style="overflow:visible;"/>
		</clipPath>
		<rect x="21.6" y="23.3" class="st1" width="56.8" height="24.9"/>
	</g>
</g>
<g>
	<defs>
		<path id="SVGID_5_" d="M21.3,26.1c-0.6,0-1.1-0.5-1.1-1.1s0.5-1.1,1.1-1.1s1.1,0.5,1.1,1.1S21.8,26.1,21.3,26.1z M50-5.8
			c0.6,0,1.1,0.5,1.1,1.1S50.6-3.7,50-3.7c-0.6,0-1.1-0.5-1.1-1.1C48.9-5.3,49.4-5.8,50-5.8z M28.7,25.1V14.4c0-1.8,1.4-3.2,3.2-3.2
			h8.5c0.6,0,1.1-0.5,1.1-1.1c0-4.2,4.6-7.5,8.5-7.5c2.8,0,5.7,1.5,7.3,3.8c0.3,0.5,1,0.6,1.5,0.3c0.5-0.3,0.6-1,0.3-1.5
			c-1.8-2.6-4.9-4.3-8-4.6v-2.4c1.2-0.4,2.1-1.6,2.1-3c0-1.8-1.4-3.2-3.2-3.2c-1.8,0-3.2,1.4-3.2,3.2c0,1.4,0.9,2.6,2.1,3v2.4
			c-4.4,0.5-8.9,3.9-9.5,8.5h-7.5c-2.9,0-5.3,2.4-5.3,5.3l0,9.6h-2.3c-0.4-1.2-1.6-2.1-3-2.1c-1.8,0-3.2,1.4-3.2,3.2
			c0,1.8,1.4,3.2,3.2,3.2c1.4,0,2.6-0.9,3-2.1h3.4C28.2,26.1,28.7,25.7,28.7,25.1z"/>
	</defs>
	<clipPath id="SVGID_6_">
		<use xlink:href="#SVGID_5_"  style="overflow:visible;"/>
	</clipPath>
	<g class="st2">
		<defs>
			<rect id="SVGID_7_" x="-101.9" y="-160.9" width="1440" height="3117"/>
		</defs>
		<clipPath id="SVGID_8_">
			<use xlink:href="#SVGID_7_"  style="overflow:visible;"/>
		</clipPath>
		<rect x="13.1" y="-12.9" class="st3" width="51.2" height="46.2"/>
	</g>
</g>
<g>
	<defs>
		<path id="SVGID_9_" d="M78.7,26.1c-0.6,0-1.1-0.5-1.1-1.1s0.5-1.1,1.1-1.1c0.6,0,1.1,0.5,1.1,1.1S79.3,26.1,78.7,26.1z M78.7,21.9
			c-1.4,0-2.6,0.9-3,2.1h-2.3v-9.6c0-2.9-2.4-5.3-5.3-5.3H44.7c-0.6,0-1.1,0.5-1.1,1.1c0,0.6,0.5,1.1,1.1,1.1h23.4
			c1.8,0,3.2,1.4,3.2,3.2v10.6c0,0.6,0.5,1.1,1.1,1.1h3.4c0.4,1.2,1.6,2.1,3,2.1c1.8,0,3.2-1.4,3.2-3.2
			C81.9,23.3,80.5,21.9,78.7,21.9z"/>
	</defs>
	<clipPath id="SVGID_10_">
		<use xlink:href="#SVGID_9_"  style="overflow:visible;"/>
	</clipPath>
	<g class="st4">
		<defs>
			<rect id="SVGID_11_" x="-101.9" y="-160.9" width="1440" height="3117"/>
		</defs>
		<clipPath id="SVGID_12_">
			<use xlink:href="#SVGID_11_"  style="overflow:visible;"/>
		</clipPath>
		<rect x="38.6" y="4.1" class="st5" width="48.3" height="29.2"/>
	</g>
</g>
<g>
	<defs>
		<path id="SVGID_13_" d="M59.6,45.3H40.4c-0.6,0-1.1,0.5-1.1,1.1c0,0.6,0.5,1.1,1.1,1.1h19.2c0.6,0,1.1-0.5,1.1-1.1
			C60.6,45.8,60.2,45.3,59.6,45.3z"/>
	</defs>
	<clipPath id="SVGID_14_">
		<use xlink:href="#SVGID_13_"  style="overflow:visible;"/>
	</clipPath>
	<g class="st6">
		<defs>
			<rect id="SVGID_15_" x="-101.9" y="-160.9" width="1440" height="3117"/>
		</defs>
		<clipPath id="SVGID_16_">
			<use xlink:href="#SVGID_15_"  style="overflow:visible;"/>
		</clipPath>
		<rect x="34.4" y="40.3" class="st7" width="31.3" height="12.1"/>
	</g>
</g>
<g>
	<defs>
		<path id="SVGID_17_" d="M60.6,20.8c0-0.6,0.5-1.1,1.1-1.1s1.1,0.5,1.1,1.1c0,0.6-0.5,1.1-1.1,1.1S60.6,21.4,60.6,20.8z M64.9,20.8
			c0-1.8-1.4-3.2-3.2-3.2c-1.8,0-3.2,1.4-3.2,3.2S60,24,61.7,24C63.5,24,64.9,22.6,64.9,20.8z"/>
	</defs>
	<clipPath id="SVGID_18_">
		<use xlink:href="#SVGID_17_"  style="overflow:visible;"/>
	</clipPath>
	<g class="st8">
		<defs>
			<rect id="SVGID_19_" x="-101.9" y="-160.9" width="1440" height="3117"/>
		</defs>
		<clipPath id="SVGID_20_">
			<use xlink:href="#SVGID_19_"  style="overflow:visible;"/>
		</clipPath>
		<rect x="53.5" y="12.6" class="st9" width="16.4" height="16.4"/>
	</g>
</g>
<g>
	<defs>
		<path id="SVGID_21_" d="M38.3,21.9c-0.6,0-1.1-0.5-1.1-1.1c0-0.6,0.5-1.1,1.1-1.1s1.1,0.5,1.1,1.1C39.4,21.4,38.9,21.9,38.3,21.9z
			 M41.5,20.8c0-1.8-1.4-3.2-3.2-3.2s-3.2,1.4-3.2,3.2s1.4,3.2,3.2,3.2S41.5,22.6,41.5,20.8z"/>
	</defs>
	<clipPath id="SVGID_22_">
		<use xlink:href="#SVGID_21_"  style="overflow:visible;"/>
	</clipPath>
	<g class="st10">
		<defs>
			<rect id="SVGID_23_" x="-101.9" y="-160.9" width="1440" height="3117"/>
		</defs>
		<clipPath id="SVGID_24_">
			<use xlink:href="#SVGID_23_"  style="overflow:visible;"/>
		</clipPath>
		<rect x="30.1" y="12.6" class="st11" width="16.4" height="16.4"/>
	</g>
</g>
<g>
	<defs>
		<path id="SVGID_25_" d="M57.5,53.8H42.5c-0.6,0-1.1,0.5-1.1,1.1c0,0.6,0.5,1.1,1.1,1.1h14.9c0.6,0,1.1-0.5,1.1-1.1
			C58.5,54.3,58,53.8,57.5,53.8z"/>
	</defs>
	<clipPath id="SVGID_26_">
		<use xlink:href="#SVGID_25_"  style="overflow:visible;"/>
	</clipPath>
	<g class="st12">
		<defs>
			<rect id="SVGID_27_" x="-101.9" y="-160.9" width="1440" height="3117"/>
		</defs>
		<clipPath id="SVGID_28_">
			<use xlink:href="#SVGID_27_"  style="overflow:visible;"/>
		</clipPath>
		<rect x="36.5" y="48.8" class="st13" width="27" height="12.1"/>
	</g>
</g>
<g>
	<defs>
		<path id="SVGID_29_" d="M41.5,32.5h4.3v2.1h-4.3V32.5z M47.9,32.5h4.3v2.1h-4.3V32.5z M54.3,32.5h4.3v2.1h-4.3V32.5z M39.4,31.5
			v4.3c0,0.6,0.5,1.1,1.1,1.1h19.2c0.6,0,1.1-0.5,1.1-1.1v-4.3c0-0.6-0.5-1.1-1.1-1.1H40.4C39.8,30.4,39.4,30.9,39.4,31.5z"/>
	</defs>
	<clipPath id="SVGID_30_">
		<use xlink:href="#SVGID_29_"  style="overflow:visible;"/>
	</clipPath>
	<g class="st14">
		<defs>
			<rect id="SVGID_31_" x="-101.9" y="-160.9" width="1440" height="3117"/>
		</defs>
		<clipPath id="SVGID_32_">
			<use xlink:href="#SVGID_31_"  style="overflow:visible;"/>
		</clipPath>
		<rect x="34.4" y="25.4" class="st15" width="31.3" height="16.4"/>
	</g>
</g>
<g>
	<defs>
		<path id="SVGID_33_" d="M57.5,49.6H42.5c-0.6,0-1.1,0.5-1.1,1.1c0,0.6,0.5,1.1,1.1,1.1h14.9c0.6,0,1.1-0.5,1.1-1.1
			C58.5,50,58,49.6,57.5,49.6z"/>
	</defs>
	<clipPath id="SVGID_34_">
		<use xlink:href="#SVGID_33_"  style="overflow:visible;"/>
	</clipPath>
	<g class="st16">
		<defs>
			<rect id="SVGID_35_" x="-101.9" y="-160.9" width="1440" height="3117"/>
		</defs>
		<clipPath id="SVGID_36_">
			<use xlink:href="#SVGID_35_"  style="overflow:visible;"/>
		</clipPath>
		<rect x="36.5" y="44.6" class="st17" width="27" height="12.1"/>
	</g>
</g>
</svg>
