<?xml version="1.0" encoding="utf-8"?>
<!-- Generator: Adobe Illustrator 19.0.0, SVG Export Plug-In . SVG Version: 6.00 Build 0)  -->
<svg version="1.1" id="Layer_1" xmlns="http://www.w3.org/2000/svg" xmlns:xlink="http://www.w3.org/1999/xlink" x="0px" y="0px"
	 viewBox="0 0 48 48" style="enable-background:new 0 0 48 48;" xml:space="preserve">
<style type="text/css">
	.st0{clip-path:url(#XMLID_26_);}
	.st1{clip-path:url(#XMLID_27_);fill:#010101;}
	.st2{clip-path:url(#XMLID_28_);}
	.st3{clip-path:url(#XMLID_29_);fill:#5EC2A8;}
	.st4{clip-path:url(#XMLID_30_);}
	.st5{clip-path:url(#XMLID_31_);fill:#5EC2A8;}
	.st6{clip-path:url(#XMLID_32_);}
	.st7{clip-path:url(#XMLID_33_);fill:#5EC2A8;}
</style>
<g id="XMLID_19_">
	<defs>
		<path id="XMLID_20_" d="M46.5,16v21.4l-12.8-7.5V38H1.5V15.5h32.2v8.1L46.5,16z M35.2,14h-4.9l-6-6H4.5v1.5h19.2l4.5,4.5H0v25.5
			h35.2v-6.9L48,40V13.4l-12.8,7.5V14z"/>
	</defs>
	<clipPath id="XMLID_26_">
		<use xlink:href="#XMLID_20_"  style="overflow:visible;"/>
	</clipPath>
	<g id="XMLID_23_" class="st0">
		<defs>
			<rect id="XMLID_24_" x="-697" y="-1599.5" width="1440" height="2454"/>
		</defs>
		<clipPath id="XMLID_27_">
			<use xlink:href="#XMLID_24_"  style="overflow:visible;"/>
		</clipPath>
		<rect id="XMLID_25_" x="-5" y="3" class="st1" width="58" height="42.1"/>
	</g>
</g>
<g id="XMLID_14_">
	<defs>
		<rect id="XMLID_15_" x="4.5" y="20" width="3" height="1.5"/>
	</defs>
	<clipPath id="XMLID_28_">
		<use xlink:href="#XMLID_15_"  style="overflow:visible;"/>
	</clipPath>
	<g id="XMLID_16_" class="st2">
		<defs>
			<rect id="XMLID_17_" x="-697" y="-1599.5" width="1440" height="2454"/>
		</defs>
		<clipPath id="XMLID_29_">
			<use xlink:href="#XMLID_17_"  style="overflow:visible;"/>
		</clipPath>
		<rect id="XMLID_18_" x="-0.5" y="15" class="st3" width="13" height="11.5"/>
	</g>
</g>
<g id="XMLID_9_">
	<defs>
		<rect id="XMLID_10_" x="10.5" y="20" width="3" height="1.5"/>
	</defs>
	<clipPath id="XMLID_30_">
		<use xlink:href="#XMLID_10_"  style="overflow:visible;"/>
	</clipPath>
	<g id="XMLID_11_" class="st4">
		<defs>
			<rect id="XMLID_12_" x="-697" y="-1599.5" width="1440" height="2454"/>
		</defs>
		<clipPath id="XMLID_31_">
			<use xlink:href="#XMLID_12_"  style="overflow:visible;"/>
		</clipPath>
		<rect id="XMLID_13_" x="5.5" y="15" class="st5" width="13" height="11.5"/>
	</g>
</g>
<g id="XMLID_2_">
	<defs>
		<path id="XMLID_3_" d="M6,27.5h12v6H6V27.5z M4.5,35h15v-9h-15V35z"/>
	</defs>
	<clipPath id="XMLID_32_">
		<use xlink:href="#XMLID_3_"  style="overflow:visible;"/>
	</clipPath>
	<g id="XMLID_6_" class="st6">
		<defs>
			<rect id="XMLID_7_" x="-697" y="-1599.5" width="1440" height="2454"/>
		</defs>
		<clipPath id="XMLID_33_">
			<use xlink:href="#XMLID_7_"  style="overflow:visible;"/>
		</clipPath>
		<rect id="XMLID_8_" x="-0.5" y="21" class="st7" width="25" height="19"/>
	</g>
</g>
</svg>
