<?xml version="1.0" encoding="utf-8"?>
<!-- Generator: Adobe Illustrator 19.0.0, SVG Export Plug-In . SVG Version: 6.00 Build 0)  -->
<svg version="1.1" id="Layer_1" xmlns="http://www.w3.org/2000/svg" xmlns:xlink="http://www.w3.org/1999/xlink" x="0px" y="0px"
	 viewBox="0 0 48 48" style="enable-background:new 0 0 48 48;" xml:space="preserve">
<style type="text/css">
	.st0{clip-path:url(#XMLID_42_);}
	.st1{clip-path:url(#XMLID_43_);fill:#5EC2A8;}
	.st2{clip-path:url(#XMLID_44_);}
	.st3{clip-path:url(#XMLID_45_);fill:#010101;}
	.st4{clip-path:url(#XMLID_46_);}
	.st5{clip-path:url(#XMLID_47_);fill:#5EC2A8;}
	.st6{clip-path:url(#XMLID_48_);}
	.st7{clip-path:url(#XMLID_49_);fill:#5EC2A8;}
	.st8{clip-path:url(#XMLID_50_);}
	.st9{clip-path:url(#XMLID_51_);fill:#5EC2A8;}
	.st10{clip-path:url(#XMLID_52_);}
	.st11{clip-path:url(#XMLID_53_);fill:#5EC2A8;}
</style>
<g id="XMLID_35_">
	<defs>
		<path id="XMLID_36_" d="M7.2,30.4c-0.4,0-0.8-0.4-0.8-0.8c0-0.4,0.4-0.8,0.8-0.8h3.2c0.4,0,0.8-0.4,0.8-0.8v-3.2
			c0-0.4,0.4-0.8,0.8-0.8c0.4,0,0.8,0.4,0.8,0.8V28c0,0.4,0.4,0.8,0.8,0.8h3.2c0.4,0,0.8,0.4,0.8,0.8s-0.4,0.8-0.8,0.8h-3.2
			c-0.4,0-0.8,0.4-0.8,0.8v3.2c0,0.4-0.4,0.8-0.8,0.8c-0.4,0-0.8-0.4-0.8-0.8v-3.2c0-0.4-0.4-0.8-0.8-0.8H7.2z M12,36.8
			c1.3,0,2.4-1.1,2.4-2.4V32h2.4c1.3,0,2.4-1.1,2.4-2.4s-1.1-2.4-2.4-2.4h-2.4v-2.4c0-1.3-1.1-2.4-2.4-2.4s-2.4,1.1-2.4,2.4v2.4H7.2
			c-1.3,0-2.4,1.1-2.4,2.4S5.9,32,7.2,32h2.4v2.4C9.6,35.7,10.7,36.8,12,36.8z"/>
	</defs>
	<clipPath id="XMLID_42_">
		<use xlink:href="#XMLID_36_"  style="overflow:visible;"/>
	</clipPath>
	<g id="XMLID_39_" class="st0">
		<defs>
			<rect id="XMLID_40_" x="-696" y="-1454" width="1440" height="2454"/>
		</defs>
		<clipPath id="XMLID_43_">
			<use xlink:href="#XMLID_40_"  style="overflow:visible;"/>
		</clipPath>
		<rect id="XMLID_41_" x="-0.2" y="17.4" class="st1" width="24.4" height="24.4"/>
	</g>
</g>
<g id="XMLID_30_">
	<defs>
		<path id="XMLID_31_" d="M36,17.6h-5.6v-7.2c0-2.2-1.8-4-4-4c-2.2,0-4,1.8-4,4c0,1.3-1.1,2.4-2.4,2.4c-1.3,0-2.4-1.1-2.4-2.4V0.8
			c0-0.4-0.4-0.8-0.8-0.8C16.4,0,16,0.4,16,0.8v9.6c0,2.2,1.8,4,4,4c2.2,0,4-1.8,4-4C24,9.1,25.1,8,26.4,8c1.3,0,2.4,1.1,2.4,2.4v8
			c0,0.4,0.4,0.8,0.8,0.8H36c5.6,0,10.4,4.8,10.4,10.4v12.8c0,2.5-2.4,4-4,4c-2.3,0-3.7-1.5-5.4-3.4c-2.5-2.8-5.7-6.2-13-6.2
			c-7.3,0-10.4,3.4-12.9,6.2c-1.7,1.9-3.1,3.4-5.5,3.4c-1.7,0-4-1.5-4-4V29.6C1.6,24,6.4,19.2,12,19.2h14.4c0.4,0,0.8-0.4,0.8-0.8
			s-0.4-0.8-0.8-0.8H12c-6.5,0-12,5.5-12,12v12.8C0,45.7,3,48,5.6,48c3.1,0,4.8-1.9,6.7-3.9c2.4-2.6,5.2-5.7,11.7-5.7
			c6.6,0,9.3,3,11.8,5.7c1.8,2,3.6,3.9,6.6,3.9c2.6,0,5.6-2.3,5.6-5.6V29.6C48,23.1,42.5,17.6,36,17.6z"/>
	</defs>
	<clipPath id="XMLID_44_">
		<use xlink:href="#XMLID_31_"  style="overflow:visible;"/>
	</clipPath>
	<g id="XMLID_32_" class="st2">
		<defs>
			<rect id="XMLID_33_" x="-696" y="-1454" width="1440" height="2454"/>
		</defs>
		<clipPath id="XMLID_45_">
			<use xlink:href="#XMLID_33_"  style="overflow:visible;"/>
		</clipPath>
		<rect id="XMLID_34_" x="-5" y="-5" class="st3" width="58" height="58"/>
	</g>
</g>
<g id="XMLID_23_">
	<defs>
		<path id="XMLID_24_" d="M40.8,28.8c0.4,0,0.8,0.4,0.8,0.8s-0.4,0.8-0.8,0.8c-0.4,0-0.8-0.4-0.8-0.8S40.4,28.8,40.8,28.8z M40.8,32
			c1.3,0,2.4-1.1,2.4-2.4s-1.1-2.4-2.4-2.4c-1.3,0-2.4,1.1-2.4,2.4S39.5,32,40.8,32z"/>
	</defs>
	<clipPath id="XMLID_46_">
		<use xlink:href="#XMLID_24_"  style="overflow:visible;"/>
	</clipPath>
	<g id="XMLID_27_" class="st4">
		<defs>
			<rect id="XMLID_28_" x="-696" y="-1454" width="1440" height="2454"/>
		</defs>
		<clipPath id="XMLID_47_">
			<use xlink:href="#XMLID_28_"  style="overflow:visible;"/>
		</clipPath>
		<rect id="XMLID_29_" x="33.4" y="22.2" class="st5" width="14.8" height="14.8"/>
	</g>
</g>
<g id="XMLID_16_">
	<defs>
		<path id="XMLID_17_" d="M36,25.6c-0.4,0-0.8-0.4-0.8-0.8c0-0.4,0.4-0.8,0.8-0.8s0.8,0.4,0.8,0.8C36.8,25.2,36.4,25.6,36,25.6z
			 M36,22.4c-1.3,0-2.4,1.1-2.4,2.4c0,1.3,1.1,2.4,2.4,2.4s2.4-1.1,2.4-2.4C38.4,23.5,37.3,22.4,36,22.4z"/>
	</defs>
	<clipPath id="XMLID_48_">
		<use xlink:href="#XMLID_17_"  style="overflow:visible;"/>
	</clipPath>
	<g id="XMLID_20_" class="st6">
		<defs>
			<rect id="XMLID_21_" x="-696" y="-1454" width="1440" height="2454"/>
		</defs>
		<clipPath id="XMLID_49_">
			<use xlink:href="#XMLID_21_"  style="overflow:visible;"/>
		</clipPath>
		<rect id="XMLID_22_" x="28.6" y="17.4" class="st7" width="14.8" height="14.8"/>
	</g>
</g>
<g id="XMLID_9_">
	<defs>
		<path id="XMLID_10_" d="M31.2,30.4c-0.4,0-0.8-0.4-0.8-0.8c0-0.4,0.4-0.8,0.8-0.8c0.4,0,0.8,0.4,0.8,0.8
			C32,30,31.6,30.4,31.2,30.4z M31.2,27.2c-1.3,0-2.4,1.1-2.4,2.4s1.1,2.4,2.4,2.4c1.3,0,2.4-1.1,2.4-2.4S32.5,27.2,31.2,27.2z"/>
	</defs>
	<clipPath id="XMLID_50_">
		<use xlink:href="#XMLID_10_"  style="overflow:visible;"/>
	</clipPath>
	<g id="XMLID_13_" class="st8">
		<defs>
			<rect id="XMLID_14_" x="-696" y="-1454" width="1440" height="2454"/>
		</defs>
		<clipPath id="XMLID_51_">
			<use xlink:href="#XMLID_14_"  style="overflow:visible;"/>
		</clipPath>
		<rect id="XMLID_15_" x="23.8" y="22.2" class="st9" width="14.8" height="14.8"/>
	</g>
</g>
<g id="XMLID_2_">
	<defs>
		<path id="XMLID_3_" d="M36,33.6c0.4,0,0.8,0.4,0.8,0.8s-0.4,0.8-0.8,0.8s-0.8-0.4-0.8-0.8S35.6,33.6,36,33.6z M36,36.8
			c1.3,0,2.4-1.1,2.4-2.4S37.3,32,36,32s-2.4,1.1-2.4,2.4S34.7,36.8,36,36.8z"/>
	</defs>
	<clipPath id="XMLID_52_">
		<use xlink:href="#XMLID_3_"  style="overflow:visible;"/>
	</clipPath>
	<g id="XMLID_6_" class="st10">
		<defs>
			<rect id="XMLID_7_" x="-696" y="-1454" width="1440" height="2454"/>
		</defs>
		<clipPath id="XMLID_53_">
			<use xlink:href="#XMLID_7_"  style="overflow:visible;"/>
		</clipPath>
		<rect id="XMLID_8_" x="28.6" y="27" class="st11" width="14.8" height="14.8"/>
	</g>
</g>
</svg>
