<?xml version="1.0" encoding="utf-8"?>
<!-- Generator: Adobe Illustrator 19.0.0, SVG Export Plug-In . SVG Version: 6.00 Build 0)  -->
<svg version="1.1" id="Layer_1" xmlns="http://www.w3.org/2000/svg" xmlns:xlink="http://www.w3.org/1999/xlink" x="0px" y="0px"
	 viewBox="0 0 48 48" style="enable-background:new 0 0 48 48;" xml:space="preserve">
<style type="text/css">
	.st0{clip-path:url(#XMLID_60_);}
	.st1{clip-path:url(#XMLID_61_);fill:#010101;}
	.st2{clip-path:url(#XMLID_62_);}
	.st3{clip-path:url(#XMLID_63_);fill:#010101;}
	.st4{clip-path:url(#XMLID_64_);}
	.st5{clip-path:url(#XMLID_65_);fill:#010101;}
	.st6{clip-path:url(#XMLID_66_);}
	.st7{clip-path:url(#XMLID_67_);fill:#010101;}
	.st8{clip-path:url(#XMLID_68_);}
	.st9{clip-path:url(#XMLID_69_);fill:#5EC2A8;}
	.st10{clip-path:url(#XMLID_70_);}
	.st11{clip-path:url(#XMLID_71_);fill:#5EC2A8;}
	.st12{clip-path:url(#XMLID_72_);}
	.st13{clip-path:url(#XMLID_73_);fill:#010101;}
	.st14{clip-path:url(#XMLID_74_);}
	.st15{clip-path:url(#XMLID_75_);fill:#5EC2A8;}
	.st16{clip-path:url(#XMLID_76_);}
	.st17{clip-path:url(#XMLID_77_);fill:#010101;}
</style>
<g id="XMLID_55_">
	<defs>
		<path id="XMLID_56_" d="M40.8,27.2c-0.4,0-0.8,0.4-0.8,0.8v6.4c0,1.3-1.1,2.4-2.4,2.4H10.4c-1.3,0-2.4-1.1-2.4-2.4V28
			c0-0.4-0.4-0.8-0.8-0.8c-0.4,0-0.8,0.4-0.8,0.8v6.4c0,2.2,1.8,4,4,4h27.1c2.2,0,4-1.8,4-4V28C41.6,27.6,41.2,27.2,40.8,27.2z"/>
	</defs>
	<clipPath id="XMLID_60_">
		<use xlink:href="#XMLID_56_"  style="overflow:visible;"/>
	</clipPath>
	<g id="XMLID_57_" class="st0">
		<defs>
			<rect id="XMLID_58_" x="-1096" y="-1454" width="1440" height="2454"/>
		</defs>
		<clipPath id="XMLID_61_">
			<use xlink:href="#XMLID_58_"  style="overflow:visible;"/>
		</clipPath>
		<rect id="XMLID_59_" x="1.4" y="22.2" class="st1" width="45.1" height="21.2"/>
	</g>
</g>
<g id="XMLID_47_">
	<defs>
		<path id="XMLID_48_" d="M2.4,25.6c-0.4,0-0.8-0.4-0.8-0.8C1.6,24.4,2,24,2.4,24c0.4,0,0.8,0.4,0.8,0.8C3.2,25.2,2.9,25.6,2.4,25.6
			z M24,1.6c0.4,0,0.8,0.4,0.8,0.8c0,0.4-0.4,0.8-0.8,0.8c-0.4,0-0.8-0.4-0.8-0.8C23.2,2,23.6,1.6,24,1.6z M8,24.8v-8
			c0-1.3,1.1-2.4,2.4-2.4h6.4c0.4,0,0.8-0.4,0.8-0.8C17.6,10.5,21,8,24,8c2.1,0,4.3,1.1,5.5,2.9c0.3,0.4,0.8,0.4,1.1,0.2
			c0.4-0.3,0.4-0.8,0.2-1.1c-1.4-1.9-3.6-3.2-6-3.5V4.7c0.9-0.3,1.6-1.2,1.6-2.2C26.4,1.1,25.3,0,24,0s-2.4,1.1-2.4,2.4
			c0,1,0.7,1.9,1.6,2.2v1.8c-3.3,0.4-6.7,2.9-7.1,6.3h-5.6c-2.2,0-4,1.8-4,4l0,7.2H4.7c-0.3-0.9-1.2-1.6-2.2-1.6
			c-1.3,0-2.4,1.1-2.4,2.4c0,1.3,1.1,2.4,2.4,2.4c1,0,1.9-0.7,2.2-1.6h2.5C7.7,25.6,8,25.2,8,24.8z"/>
	</defs>
	<clipPath id="XMLID_62_">
		<use xlink:href="#XMLID_48_"  style="overflow:visible;"/>
	</clipPath>
	<g id="XMLID_52_" class="st2">
		<defs>
			<rect id="XMLID_53_" x="-1096" y="-1454" width="1440" height="2454"/>
		</defs>
		<clipPath id="XMLID_63_">
			<use xlink:href="#XMLID_53_"  style="overflow:visible;"/>
		</clipPath>
		<rect id="XMLID_54_" x="-5" y="-5" class="st3" width="40.9" height="37.1"/>
	</g>
</g>
<g id="XMLID_40_">
	<defs>
		<path id="XMLID_41_" d="M45.6,25.6c-0.4,0-0.8-0.4-0.8-0.8c0-0.4,0.4-0.8,0.8-0.8s0.8,0.4,0.8,0.8C46.4,25.2,46,25.6,45.6,25.6z
			 M45.6,22.4c-1,0-1.9,0.7-2.2,1.6h-1.7v-7.2c0-2.2-1.8-4-4-4H20c-0.4,0-0.8,0.4-0.8,0.8c0,0.4,0.4,0.8,0.8,0.8h17.6
			c1.3,0,2.4,1.1,2.4,2.4v8c0,0.4,0.4,0.8,0.8,0.8h2.5c0.3,0.9,1.2,1.6,2.2,1.6c1.3,0,2.4-1.1,2.4-2.4C48,23.5,46.9,22.4,45.6,22.4z
			"/>
	</defs>
	<clipPath id="XMLID_64_">
		<use xlink:href="#XMLID_41_"  style="overflow:visible;"/>
	</clipPath>
	<g id="XMLID_44_" class="st4">
		<defs>
			<rect id="XMLID_45_" x="-1096" y="-1454" width="1440" height="2454"/>
		</defs>
		<clipPath id="XMLID_65_">
			<use xlink:href="#XMLID_45_"  style="overflow:visible;"/>
		</clipPath>
		<rect id="XMLID_46_" x="14.2" y="7.8" class="st5" width="38.7" height="24.4"/>
	</g>
</g>
<g id="XMLID_35_">
	<defs>
		<path id="XMLID_36_" d="M31.2,40H16.8c-0.4,0-0.8,0.4-0.8,0.8c0,0.4,0.4,0.8,0.8,0.8h14.4c0.4,0,0.8-0.4,0.8-0.8
			C32,40.3,31.6,40,31.2,40z"/>
	</defs>
	<clipPath id="XMLID_66_">
		<use xlink:href="#XMLID_36_"  style="overflow:visible;"/>
	</clipPath>
	<g id="XMLID_37_" class="st6">
		<defs>
			<rect id="XMLID_38_" x="-1096" y="-1454" width="1440" height="2454"/>
		</defs>
		<clipPath id="XMLID_67_">
			<use xlink:href="#XMLID_38_"  style="overflow:visible;"/>
		</clipPath>
		<rect id="XMLID_39_" x="11" y="35" class="st7" width="26" height="11.6"/>
	</g>
</g>
<g id="XMLID_28_">
	<defs>
		<path id="XMLID_29_" d="M32,21.6c0-0.4,0.4-0.8,0.8-0.8s0.8,0.4,0.8,0.8c0,0.4-0.4,0.8-0.8,0.8S32,22,32,21.6z M35.2,21.6
			c0-1.3-1.1-2.4-2.4-2.4c-1.3,0-2.4,1.1-2.4,2.4s1.1,2.4,2.4,2.4C34.1,24,35.2,22.9,35.2,21.6z"/>
	</defs>
	<clipPath id="XMLID_68_">
		<use xlink:href="#XMLID_29_"  style="overflow:visible;"/>
	</clipPath>
	<g id="XMLID_32_" class="st8">
		<defs>
			<rect id="XMLID_33_" x="-1096" y="-1454" width="1440" height="2454"/>
		</defs>
		<clipPath id="XMLID_69_">
			<use xlink:href="#XMLID_33_"  style="overflow:visible;"/>
		</clipPath>
		<rect id="XMLID_34_" x="25.4" y="14.2" class="st9" width="14.8" height="14.8"/>
	</g>
</g>
<g id="XMLID_21_">
	<defs>
		<path id="XMLID_22_" d="M15.2,22.4c-0.4,0-0.8-0.4-0.8-0.8c0-0.4,0.4-0.8,0.8-0.8c0.4,0,0.8,0.4,0.8,0.8
			C16,22,15.7,22.4,15.2,22.4z M17.6,21.6c0-1.3-1.1-2.4-2.4-2.4s-2.4,1.1-2.4,2.4s1.1,2.4,2.4,2.4S17.6,22.9,17.6,21.6z"/>
	</defs>
	<clipPath id="XMLID_70_">
		<use xlink:href="#XMLID_22_"  style="overflow:visible;"/>
	</clipPath>
	<g id="XMLID_25_" class="st10">
		<defs>
			<rect id="XMLID_26_" x="-1096" y="-1454" width="1440" height="2454"/>
		</defs>
		<clipPath id="XMLID_71_">
			<use xlink:href="#XMLID_26_"  style="overflow:visible;"/>
		</clipPath>
		<rect id="XMLID_27_" x="7.8" y="14.2" class="st11" width="14.8" height="14.8"/>
	</g>
</g>
<g id="XMLID_16_">
	<defs>
		<path id="XMLID_17_" d="M29.6,46.4H18.4c-0.4,0-0.8,0.4-0.8,0.8S18,48,18.4,48h11.2c0.4,0,0.8-0.4,0.8-0.8S30,46.4,29.6,46.4z"/>
	</defs>
	<clipPath id="XMLID_72_">
		<use xlink:href="#XMLID_17_"  style="overflow:visible;"/>
	</clipPath>
	<g id="XMLID_18_" class="st12">
		<defs>
			<rect id="XMLID_19_" x="-1096" y="-1454" width="1440" height="2454"/>
		</defs>
		<clipPath id="XMLID_73_">
			<use xlink:href="#XMLID_19_"  style="overflow:visible;"/>
		</clipPath>
		<rect id="XMLID_20_" x="12.6" y="41.4" class="st13" width="22.8" height="11.6"/>
	</g>
</g>
<g id="XMLID_7_">
	<defs>
		<path id="XMLID_8_" d="M17.6,30.4h3.2V32h-3.2V30.4z M22.4,30.4h3.2V32h-3.2V30.4z M27.2,30.4h3.2V32h-3.2V30.4z M16,29.6v3.2
			c0,0.4,0.4,0.8,0.8,0.8h14.4c0.4,0,0.8-0.4,0.8-0.8v-3.2c0-0.4-0.4-0.8-0.8-0.8H16.8C16.4,28.8,16,29.1,16,29.6z"/>
	</defs>
	<clipPath id="XMLID_74_">
		<use xlink:href="#XMLID_8_"  style="overflow:visible;"/>
	</clipPath>
	<g id="XMLID_13_" class="st14">
		<defs>
			<rect id="XMLID_14_" x="-1096" y="-1454" width="1440" height="2454"/>
		</defs>
		<clipPath id="XMLID_75_">
			<use xlink:href="#XMLID_14_"  style="overflow:visible;"/>
		</clipPath>
		<rect id="XMLID_15_" x="11" y="23.8" class="st15" width="26" height="14.8"/>
	</g>
</g>
<g id="XMLID_2_">
	<defs>
		<path id="XMLID_3_" d="M29.6,43.2H18.4c-0.4,0-0.8,0.4-0.8,0.8c0,0.4,0.4,0.8,0.8,0.8h11.2c0.4,0,0.8-0.4,0.8-0.8
			C30.4,43.5,30,43.2,29.6,43.2z"/>
	</defs>
	<clipPath id="XMLID_76_">
		<use xlink:href="#XMLID_3_"  style="overflow:visible;"/>
	</clipPath>
	<g id="XMLID_4_" class="st16">
		<defs>
			<rect id="XMLID_5_" x="-1096" y="-1454" width="1440" height="2454"/>
		</defs>
		<clipPath id="XMLID_77_">
			<use xlink:href="#XMLID_5_"  style="overflow:visible;"/>
		</clipPath>
		<rect id="XMLID_6_" x="12.6" y="38.2" class="st17" width="22.8" height="11.6"/>
	</g>
</g>
</svg>
