<?xml version="1.0" encoding="utf-8"?>
<!-- Generator: Adobe Illustrator 19.0.0, SVG Export Plug-In . SVG Version: 6.00 Build 0)  -->
<svg version="1.1" id="Layer_1" xmlns="http://www.w3.org/2000/svg" xmlns:xlink="http://www.w3.org/1999/xlink" x="0px" y="0px"
	 viewBox="0 0 48 48" style="enable-background:new 0 0 48 48;" xml:space="preserve">
<style type="text/css">
	.st0{clip-path:url(#XMLID_40_);}
	.st1{clip-path:url(#XMLID_41_);fill:#010101;}
	.st2{clip-path:url(#XMLID_42_);}
	.st3{clip-path:url(#XMLID_43_);fill:#5EC2A8;}
	.st4{clip-path:url(#XMLID_44_);}
	.st5{clip-path:url(#XMLID_45_);fill:#5EC2A8;}
	.st6{clip-path:url(#XMLID_46_);}
	.st7{clip-path:url(#XMLID_47_);fill:#5EC2A8;}
	.st8{clip-path:url(#XMLID_48_);}
	.st9{clip-path:url(#XMLID_49_);fill:#5EC2A8;}
	.st10{clip-path:url(#XMLID_50_);}
	.st11{clip-path:url(#XMLID_51_);fill:#5EC2A8;}
	.st12{clip-path:url(#XMLID_52_);}
	.st13{clip-path:url(#XMLID_53_);fill:#5EC2A8;}
</style>
<g id="XMLID_32_">
	<defs>
		<path id="XMLID_33_" d="M2,9.3V2H46v7.2H2z M46,46H2V11.3H46L46,46L46,46z M0,0v48h48V0H0z"/>
	</defs>
	<clipPath id="XMLID_40_">
		<use xlink:href="#XMLID_33_"  style="overflow:visible;"/>
	</clipPath>
	<g id="XMLID_37_" class="st0">
		<defs>
			<rect id="XMLID_38_" x="-297" y="-1454" width="1440" height="2454"/>
		</defs>
		<clipPath id="XMLID_41_">
			<use xlink:href="#XMLID_38_"  style="overflow:visible;"/>
		</clipPath>
		<rect id="XMLID_39_" x="-5" y="-5" class="st1" width="58" height="58"/>
	</g>
</g>
<g id="XMLID_27_">
	<defs>
		<rect id="XMLID_28_" x="39.1" y="4.6" width="2.2" height="2"/>
	</defs>
	<clipPath id="XMLID_42_">
		<use xlink:href="#XMLID_28_"  style="overflow:visible;"/>
	</clipPath>
	<g id="XMLID_29_" class="st2">
		<defs>
			<rect id="XMLID_30_" x="-297" y="-1454" width="1440" height="2454"/>
		</defs>
		<clipPath id="XMLID_43_">
			<use xlink:href="#XMLID_30_"  style="overflow:visible;"/>
		</clipPath>
		<rect id="XMLID_31_" x="34.1" y="-0.4" class="st3" width="12.2" height="12"/>
	</g>
</g>
<g id="XMLID_22_">
	<defs>
		<rect id="XMLID_23_" x="33.5" y="4.6" width="2.2" height="2"/>
	</defs>
	<clipPath id="XMLID_44_">
		<use xlink:href="#XMLID_23_"  style="overflow:visible;"/>
	</clipPath>
	<g id="XMLID_24_" class="st4">
		<defs>
			<rect id="XMLID_25_" x="-297" y="-1454" width="1440" height="2454"/>
		</defs>
		<clipPath id="XMLID_45_">
			<use xlink:href="#XMLID_25_"  style="overflow:visible;"/>
		</clipPath>
		<rect id="XMLID_26_" x="28.5" y="-0.4" class="st5" width="12.2" height="12"/>
	</g>
</g>
<g id="XMLID_17_">
	<defs>
		<rect id="XMLID_18_" x="27.9" y="4.6" width="2.2" height="2"/>
	</defs>
	<clipPath id="XMLID_46_">
		<use xlink:href="#XMLID_18_"  style="overflow:visible;"/>
	</clipPath>
	<g id="XMLID_19_" class="st6">
		<defs>
			<rect id="XMLID_20_" x="-297" y="-1454" width="1440" height="2454"/>
		</defs>
		<clipPath id="XMLID_47_">
			<use xlink:href="#XMLID_20_"  style="overflow:visible;"/>
		</clipPath>
		<rect id="XMLID_21_" x="22.9" y="-0.4" class="st7" width="12.2" height="12"/>
	</g>
</g>
<g id="XMLID_12_">
	<defs>
		<polygon id="XMLID_13_" points="20.8,31.4 14.7,28.8 20.8,26.2 20.8,24.8 13.1,28.1 13.1,29.4 20.8,32.8 		"/>
	</defs>
	<clipPath id="XMLID_48_">
		<use xlink:href="#XMLID_13_"  style="overflow:visible;"/>
	</clipPath>
	<g id="XMLID_14_" class="st8">
		<defs>
			<rect id="XMLID_15_" x="-297" y="-1454" width="1440" height="2454"/>
		</defs>
		<clipPath id="XMLID_49_">
			<use xlink:href="#XMLID_15_"  style="overflow:visible;"/>
		</clipPath>
		<rect id="XMLID_16_" x="8.1" y="19.8" class="st9" width="17.8" height="18"/>
	</g>
</g>
<g id="XMLID_7_">
	<defs>
		<polygon id="XMLID_8_" points="26.2,22.6 25.1,22.6 21.8,34.7 22.9,34.7 		"/>
	</defs>
	<clipPath id="XMLID_50_">
		<use xlink:href="#XMLID_8_"  style="overflow:visible;"/>
	</clipPath>
	<g id="XMLID_9_" class="st10">
		<defs>
			<rect id="XMLID_10_" x="-297" y="-1454" width="1440" height="2454"/>
		</defs>
		<clipPath id="XMLID_51_">
			<use xlink:href="#XMLID_10_"  style="overflow:visible;"/>
		</clipPath>
		<rect id="XMLID_11_" x="16.8" y="17.6" class="st11" width="14.5" height="22.2"/>
	</g>
</g>
<g id="XMLID_2_">
	<defs>
		<polygon id="XMLID_3_" points="34.9,28 27.2,24.7 27.2,26.1 33.3,28.7 27.2,31.2 27.2,32.7 34.9,29.4 		"/>
	</defs>
	<clipPath id="XMLID_52_">
		<use xlink:href="#XMLID_3_"  style="overflow:visible;"/>
	</clipPath>
	<g id="XMLID_4_" class="st12">
		<defs>
			<rect id="XMLID_5_" x="-297" y="-1454" width="1440" height="2454"/>
		</defs>
		<clipPath id="XMLID_53_">
			<use xlink:href="#XMLID_5_"  style="overflow:visible;"/>
		</clipPath>
		<rect id="XMLID_6_" x="22.2" y="19.7" class="st13" width="17.8" height="18"/>
	</g>
</g>
</svg>
