<?xml version="1.0" encoding="utf-8"?>
<!-- Generator: Adobe Illustrator 19.0.0, SVG Export Plug-In . SVG Version: 6.00 Build 0)  -->
<svg version="1.1" id="Layer_1" xmlns="http://www.w3.org/2000/svg" xmlns:xlink="http://www.w3.org/1999/xlink" x="0px" y="0px"
	 viewBox="0 0 48 48" style="enable-background:new 0 0 48 48;" xml:space="preserve">
<style type="text/css">
	.st0{clip-path:url(#XMLID_61_);}
	.st1{clip-path:url(#XMLID_62_);fill:#010101;}
	.st2{clip-path:url(#XMLID_63_);}
	.st3{clip-path:url(#XMLID_64_);fill:#5EC2A8;}
	.st4{clip-path:url(#XMLID_65_);}
	.st5{clip-path:url(#XMLID_66_);fill:#5EC2A8;}
	.st6{clip-path:url(#XMLID_67_);}
	.st7{clip-path:url(#XMLID_68_);fill:#5EC2A8;}
	.st8{clip-path:url(#XMLID_69_);}
	.st9{clip-path:url(#XMLID_70_);fill:#5EC2A8;}
	.st10{clip-path:url(#XMLID_71_);}
	.st11{clip-path:url(#XMLID_72_);fill:#5EC2A8;}
	.st12{clip-path:url(#XMLID_73_);}
	.st13{clip-path:url(#XMLID_74_);fill:#5EC2A8;}
	.st14{clip-path:url(#XMLID_75_);}
	.st15{clip-path:url(#XMLID_76_);fill:#5EC2A8;}
	.st16{clip-path:url(#XMLID_77_);}
	.st17{clip-path:url(#XMLID_78_);fill:#5EC2A8;}
	.st18{clip-path:url(#XMLID_79_);}
	.st19{clip-path:url(#XMLID_80_);fill:#5EC2A8;}
	.st20{clip-path:url(#XMLID_81_);}
	.st21{clip-path:url(#XMLID_82_);fill:#5EC2A8;}
</style>
<g id="XMLID_52_">
	<defs>
		<path id="XMLID_53_" d="M24.8,28.4l1.3,0.6c0.1,0,0.2,0.1,0.3,0.1c0.3,0,0.6-0.2,0.7-0.5c0.2-0.4,0-0.9-0.4-1l-1.4-0.7
			c-0.2-0.1-0.4-0.1-0.5,0v-5.5l19-8.8v22.8l-1.2-0.6c-0.4-0.2-0.9,0-1,0.4c-0.2,0.4,0,0.9,0.4,1l0.9,0.4l-17.9,9V28.4z M24,2.7
			c0.3,0,0.5-0.2,0.7-0.4l18.1,9l-17.9,8.3v-0.3c0-0.4-0.4-0.8-0.8-0.8c-0.4,0-0.8,0.4-0.8,0.8v0.3L5.3,11.3l18.1-9
			C23.5,2.5,23.7,2.7,24,2.7z M5.6,35.6c-0.2-0.4-0.7-0.6-1-0.4l-0.3,0.1V12.6l19,8.8v24.3l-17.9-9C5.6,36.5,5.8,36,5.6,35.6z
			 M45.3,11.2C45.3,11.1,45.3,11.1,45.3,11.2c0-0.1-0.1-0.1-0.1-0.2c0,0,0,0,0-0.1c0,0-0.1-0.1-0.1-0.1c0,0,0,0-0.1-0.1
			c0,0,0,0-0.1-0.1c0,0,0,0,0,0c0,0,0,0,0,0L24.4,0.4c0,0,0,0,0,0c-0.1,0-0.2-0.1-0.3-0.1s-0.2,0-0.3,0.1c0,0,0,0,0,0L3.1,10.7
			c0,0,0,0,0,0c0,0,0,0,0,0c0,0,0,0-0.1,0.1c0,0,0,0-0.1,0.1c0,0-0.1,0.1-0.1,0.1c0,0,0,0,0,0.1c0,0,0,0.1-0.1,0.1c0,0,0,0,0,0.1
			c0,0.1,0,0.1,0,0.2v25.3c0,0,0,0,0,0c0,0,0,0,0,0c0,0.1,0,0.2,0.1,0.2c0,0,0,0,0,0c0,0,0,0,0,0c0,0,0,0.1,0.1,0.1
			c0,0,0,0.1,0.1,0.1c0,0,0.1,0.1,0.1,0.1c0,0,0.1,0,0.1,0.1c0,0,0,0,0,0l20.5,10.3c0,0,0,0,0,0c0.1,0,0.2,0.1,0.3,0.1
			c0.1,0,0.2,0,0.3-0.1c0,0,0,0,0,0l20.5-10.3c0.3-0.1,0.4-0.4,0.4-0.7V11.4C45.3,11.3,45.3,11.2,45.3,11.2z"/>
	</defs>
	<clipPath id="XMLID_61_">
		<use xlink:href="#XMLID_53_"  style="overflow:visible;"/>
	</clipPath>
	<g id="XMLID_58_" class="st0">
		<defs>
			<rect id="XMLID_59_" x="-1094.3" y="-1602.7" width="1440" height="2454"/>
		</defs>
		<clipPath id="XMLID_62_">
			<use xlink:href="#XMLID_59_"  style="overflow:visible;"/>
		</clipPath>
		<rect id="XMLID_60_" x="-2.3" y="-4.7" class="st1" width="52.7" height="57.4"/>
	</g>
</g>
<g id="XMLID_47_">
	<defs>
		<path id="XMLID_48_" d="M16.4,31.5c0.1,0,0.2,0,0.3-0.1l1.4-0.7c0.4-0.2,0.6-0.7,0.4-1c-0.2-0.4-0.7-0.6-1-0.4L16,30
			c-0.4,0.2-0.6,0.7-0.4,1C15.8,31.3,16.1,31.5,16.4,31.5z"/>
	</defs>
	<clipPath id="XMLID_63_">
		<use xlink:href="#XMLID_48_"  style="overflow:visible;"/>
	</clipPath>
	<g id="XMLID_49_" class="st2">
		<defs>
			<rect id="XMLID_50_" x="-1094.3" y="-1602.7" width="1440" height="2454"/>
		</defs>
		<clipPath id="XMLID_64_">
			<use xlink:href="#XMLID_50_"  style="overflow:visible;"/>
		</clipPath>
		<rect id="XMLID_51_" x="10.6" y="24.2" class="st3" width="13" height="12.2"/>
	</g>
</g>
<g id="XMLID_42_">
	<defs>
		<path id="XMLID_43_" d="M12.1,33.5c0.1,0,0.2,0,0.3-0.1l1.4-0.7c0.4-0.2,0.6-0.7,0.4-1c-0.2-0.4-0.7-0.6-1-0.4L11.7,32
			c-0.4,0.2-0.6,0.7-0.4,1C11.5,33.3,11.8,33.5,12.1,33.5z"/>
	</defs>
	<clipPath id="XMLID_65_">
		<use xlink:href="#XMLID_43_"  style="overflow:visible;"/>
	</clipPath>
	<g id="XMLID_44_" class="st4">
		<defs>
			<rect id="XMLID_45_" x="-1094.3" y="-1602.7" width="1440" height="2454"/>
		</defs>
		<clipPath id="XMLID_66_">
			<use xlink:href="#XMLID_45_"  style="overflow:visible;"/>
		</clipPath>
		<rect id="XMLID_46_" x="6.3" y="26.2" class="st5" width="13" height="12.2"/>
	</g>
</g>
<g id="XMLID_37_">
	<defs>
		<path id="XMLID_38_" d="M7.8,35.4c0.1,0,0.2,0,0.3-0.1l1.4-0.7c0.4-0.2,0.6-0.7,0.4-1c-0.2-0.4-0.7-0.6-1-0.4l-1.4,0.7
			C7,34.1,6.9,34.6,7,35C7.2,35.3,7.5,35.4,7.8,35.4z"/>
	</defs>
	<clipPath id="XMLID_67_">
		<use xlink:href="#XMLID_38_"  style="overflow:visible;"/>
	</clipPath>
	<g id="XMLID_39_" class="st6">
		<defs>
			<rect id="XMLID_40_" x="-1094.3" y="-1602.7" width="1440" height="2454"/>
		</defs>
		<clipPath id="XMLID_68_">
			<use xlink:href="#XMLID_40_"  style="overflow:visible;"/>
		</clipPath>
		<rect id="XMLID_41_" x="2" y="28.2" class="st7" width="13" height="12.2"/>
	</g>
</g>
<g id="XMLID_32_">
	<defs>
		<path id="XMLID_33_" d="M35.4,31.5l-1.4-0.7c-0.4-0.2-0.9,0-1,0.4c-0.2,0.4,0,0.9,0.4,1l1.4,0.7c0.1,0,0.2,0.1,0.3,0.1
			c0.3,0,0.6-0.2,0.7-0.5C35.9,32.2,35.7,31.7,35.4,31.5z"/>
	</defs>
	<clipPath id="XMLID_69_">
		<use xlink:href="#XMLID_33_"  style="overflow:visible;"/>
	</clipPath>
	<g id="XMLID_34_" class="st8">
		<defs>
			<rect id="XMLID_35_" x="-1094.3" y="-1602.7" width="1440" height="2454"/>
		</defs>
		<clipPath id="XMLID_70_">
			<use xlink:href="#XMLID_35_"  style="overflow:visible;"/>
		</clipPath>
		<rect id="XMLID_36_" x="27.8" y="25.8" class="st9" width="13" height="12.2"/>
	</g>
</g>
<g id="XMLID_27_">
	<defs>
		<path id="XMLID_28_" d="M39.7,33.5l-1.4-0.7c-0.4-0.2-0.9,0-1,0.4c-0.2,0.4,0,0.9,0.4,1L39,35c0.1,0,0.2,0.1,0.3,0.1
			c0.3,0,0.6-0.2,0.7-0.5C40.2,34.2,40.1,33.7,39.7,33.5z"/>
	</defs>
	<clipPath id="XMLID_71_">
		<use xlink:href="#XMLID_28_"  style="overflow:visible;"/>
	</clipPath>
	<g id="XMLID_29_" class="st10">
		<defs>
			<rect id="XMLID_30_" x="-1094.3" y="-1602.7" width="1440" height="2454"/>
		</defs>
		<clipPath id="XMLID_72_">
			<use xlink:href="#XMLID_30_"  style="overflow:visible;"/>
		</clipPath>
		<rect id="XMLID_31_" x="32.1" y="27.8" class="st11" width="13" height="12.2"/>
	</g>
</g>
<g id="XMLID_22_">
	<defs>
		<path id="XMLID_23_" d="M31,29.5l-1.4-0.7c-0.4-0.2-0.9,0-1,0.4c-0.2,0.4,0,0.9,0.4,1l1.4,0.7c0.1,0,0.2,0.1,0.3,0.1
			c0.3,0,0.6-0.2,0.7-0.5C31.6,30.2,31.4,29.7,31,29.5z"/>
	</defs>
	<clipPath id="XMLID_73_">
		<use xlink:href="#XMLID_23_"  style="overflow:visible;"/>
	</clipPath>
	<g id="XMLID_24_" class="st12">
		<defs>
			<rect id="XMLID_25_" x="-1094.3" y="-1602.7" width="1440" height="2454"/>
		</defs>
		<clipPath id="XMLID_74_">
			<use xlink:href="#XMLID_25_"  style="overflow:visible;"/>
		</clipPath>
		<rect id="XMLID_26_" x="23.5" y="23.8" class="st13" width="13" height="12.2"/>
	</g>
</g>
<g id="XMLID_17_">
	<defs>
		<path id="XMLID_18_" d="M20.7,29.5c0.1,0,0.2,0,0.3-0.1l1.4-0.7c0.4-0.2,0.6-0.7,0.4-1c-0.2-0.4-0.7-0.6-1-0.4L20.3,28
			c-0.4,0.2-0.6,0.7-0.4,1C20.1,29.3,20.4,29.5,20.7,29.5z"/>
	</defs>
	<clipPath id="XMLID_75_">
		<use xlink:href="#XMLID_18_"  style="overflow:visible;"/>
	</clipPath>
	<g id="XMLID_19_" class="st14">
		<defs>
			<rect id="XMLID_20_" x="-1094.3" y="-1602.7" width="1440" height="2454"/>
		</defs>
		<clipPath id="XMLID_76_">
			<use xlink:href="#XMLID_20_"  style="overflow:visible;"/>
		</clipPath>
		<rect id="XMLID_21_" x="14.9" y="22.2" class="st15" width="13" height="12.2"/>
	</g>
</g>
<g id="XMLID_12_">
	<defs>
		<path id="XMLID_13_" d="M24,7.4c0.4,0,0.8-0.4,0.8-0.8V5c0-0.4-0.4-0.8-0.8-0.8c-0.4,0-0.8,0.4-0.8,0.8v1.6
			C23.2,7.1,23.6,7.4,24,7.4z"/>
	</defs>
	<clipPath id="XMLID_77_">
		<use xlink:href="#XMLID_13_"  style="overflow:visible;"/>
	</clipPath>
	<g id="XMLID_14_" class="st16">
		<defs>
			<rect id="XMLID_15_" x="-1094.3" y="-1602.7" width="1440" height="2454"/>
		</defs>
		<clipPath id="XMLID_78_">
			<use xlink:href="#XMLID_15_"  style="overflow:visible;"/>
		</clipPath>
		<rect id="XMLID_16_" x="18.2" y="-0.8" class="st17" width="11.6" height="13.2"/>
	</g>
</g>
<g id="XMLID_7_">
	<defs>
		<path id="XMLID_8_" d="M24,12.1c0.4,0,0.8-0.4,0.8-0.8V9.8C24.8,9.3,24.4,9,24,9c-0.4,0-0.8,0.4-0.8,0.8v1.6
			C23.2,11.8,23.6,12.1,24,12.1z"/>
	</defs>
	<clipPath id="XMLID_79_">
		<use xlink:href="#XMLID_8_"  style="overflow:visible;"/>
	</clipPath>
	<g id="XMLID_9_" class="st18">
		<defs>
			<rect id="XMLID_10_" x="-1094.3" y="-1602.7" width="1440" height="2454"/>
		</defs>
		<clipPath id="XMLID_80_">
			<use xlink:href="#XMLID_10_"  style="overflow:visible;"/>
		</clipPath>
		<rect id="XMLID_11_" x="18.2" y="4" class="st19" width="11.6" height="13.2"/>
	</g>
</g>
<g id="XMLID_2_">
	<defs>
		<path id="XMLID_3_" d="M24,16.9c0.4,0,0.8-0.4,0.8-0.8v-1.6c0-0.4-0.4-0.8-0.8-0.8c-0.4,0-0.8,0.4-0.8,0.8v1.6
			C23.2,16.5,23.6,16.9,24,16.9z"/>
	</defs>
	<clipPath id="XMLID_81_">
		<use xlink:href="#XMLID_3_"  style="overflow:visible;"/>
	</clipPath>
	<g id="XMLID_4_" class="st20">
		<defs>
			<rect id="XMLID_5_" x="-1094.3" y="-1602.7" width="1440" height="2454"/>
		</defs>
		<clipPath id="XMLID_82_">
			<use xlink:href="#XMLID_5_"  style="overflow:visible;"/>
		</clipPath>
		<rect id="XMLID_6_" x="18.2" y="8.7" class="st21" width="11.6" height="13.2"/>
	</g>
</g>
</svg>
