<?xml version="1.0" encoding="utf-8"?>
<!-- Generator: Adobe Illustrator 19.0.0, SVG Export Plug-In . SVG Version: 6.00 Build 0)  -->
<svg version="1.1" id="Layer_1" xmlns="http://www.w3.org/2000/svg" xmlns:xlink="http://www.w3.org/1999/xlink" x="0px" y="0px"
	 viewBox="0 0 12 12" style="enable-background:new 0 0 12 12;" xml:space="preserve">
<style type="text/css">
	.st0{clip-path:url(#XMLID_14_);}
	.st1{clip-path:url(#XMLID_15_);fill:#010101;}
	.st2{clip-path:url(#XMLID_16_);}
	.st3{clip-path:url(#XMLID_17_);fill:#010101;}
</style>
<g id="XMLID_7_">
	<defs>
		<path id="XMLID_8_" d="M6,10.7c-2.6,0-4.7-2.1-4.7-4.7S3.4,1.3,6,1.3s4.7,2.1,4.7,4.7S8.6,10.7,6,10.7z M6,0.1
			C2.7,0.1,0.1,2.7,0.1,6s2.7,5.9,5.9,5.9s5.9-2.7,5.9-5.9S9.3,0.1,6,0.1z"/>
	</defs>
	<clipPath id="XMLID_14_">
		<use xlink:href="#XMLID_8_"  style="overflow:visible;"/>
	</clipPath>
	<g id="XMLID_11_" class="st0">
		<defs>
			<rect id="XMLID_12_" x="-902.9" y="-525.9" width="1440" height="3117"/>
		</defs>
		<clipPath id="XMLID_15_">
			<use xlink:href="#XMLID_12_"  style="overflow:visible;"/>
		</clipPath>
		<rect id="XMLID_13_" x="-4.9" y="-4.9" class="st1" width="21.9" height="21.9"/>
	</g>
</g>
<g id="XMLID_2_">
	<defs>
		<path id="XMLID_3_" d="M6.4,5.8V2.6c0-0.3-0.2-0.5-0.5-0.5c-0.3,0-0.5,0.2-0.5,0.5v3.7c0,0.3,0.2,0.5,0.5,0.5h3.2
			c0.3,0,0.5-0.2,0.5-0.5S9.4,5.8,9.1,5.8H6.4z"/>
	</defs>
	<clipPath id="XMLID_16_">
		<use xlink:href="#XMLID_3_"  style="overflow:visible;"/>
	</clipPath>
	<g id="XMLID_4_" class="st2">
		<defs>
			<rect id="XMLID_5_" x="-902.9" y="-525.9" width="1440" height="3117"/>
		</defs>
		<clipPath id="XMLID_17_">
			<use xlink:href="#XMLID_5_"  style="overflow:visible;"/>
		</clipPath>
		<rect id="XMLID_6_" x="0.4" y="-2.9" class="st3" width="14.1" height="14.7"/>
	</g>
</g>
</svg>
