<?xml version="1.0" encoding="utf-8"?>
<!-- Generator: Adobe Illustrator 19.0.0, SVG Export Plug-In . SVG Version: 6.00 Build 0)  -->
<svg version="1.1" id="Layer_1" xmlns="http://www.w3.org/2000/svg" xmlns:xlink="http://www.w3.org/1999/xlink" x="0px" y="0px"
	 viewBox="0 0 22 24" style="enable-background:new 0 0 22 24;" xml:space="preserve">
<style type="text/css">
	.st0{clip-path:url(#XMLID_35_);}
	.st1{clip-path:url(#XMLID_36_);fill:#A8AAAD;}
	.st2{clip-path:url(#XMLID_37_);}
	.st3{clip-path:url(#XMLID_38_);fill:#A8AAAD;}
	.st4{clip-path:url(#XMLID_39_);}
	.st5{clip-path:url(#XMLID_40_);fill:#A8AAAD;}
	.st6{clip-path:url(#XMLID_41_);}
	.st7{clip-path:url(#XMLID_42_);fill:#010101;}
	.st8{clip-path:url(#XMLID_43_);}
	.st9{clip-path:url(#XMLID_44_);fill:#010101;}
</style>
<g id="XMLID_30_">
	<defs>
		<circle id="XMLID_31_" cx="11" cy="2.3" r="1.9"/>
	</defs>
	<clipPath id="XMLID_35_">
		<use xlink:href="#XMLID_31_"  style="overflow:visible;"/>
	</clipPath>
	<g id="XMLID_32_" class="st0">
		<defs>
			<rect id="XMLID_33_" x="-904.8" y="-705" width="1445" height="4148"/>
		</defs>
		<clipPath id="XMLID_36_">
			<use xlink:href="#XMLID_33_"  style="overflow:visible;"/>
		</clipPath>
		<rect id="XMLID_34_" x="4.2" y="-4.5" class="st1" width="13.7" height="13.7"/>
	</g>
</g>
<g id="XMLID_25_">
	<defs>
		<circle id="XMLID_26_" cx="19.5" cy="16.8" r="1.9"/>
	</defs>
	<clipPath id="XMLID_37_">
		<use xlink:href="#XMLID_26_"  style="overflow:visible;"/>
	</clipPath>
	<g id="XMLID_27_" class="st2">
		<defs>
			<rect id="XMLID_28_" x="-904.8" y="-705" width="1445" height="4148"/>
		</defs>
		<clipPath id="XMLID_38_">
			<use xlink:href="#XMLID_28_"  style="overflow:visible;"/>
		</clipPath>
		<rect id="XMLID_29_" x="12.6" y="10" class="st3" width="13.7" height="13.7"/>
	</g>
</g>
<g id="XMLID_20_">
	<defs>
		<circle id="XMLID_21_" cx="2.6" cy="16.8" r="1.9"/>
	</defs>
	<clipPath id="XMLID_39_">
		<use xlink:href="#XMLID_21_"  style="overflow:visible;"/>
	</clipPath>
	<g id="XMLID_22_" class="st4">
		<defs>
			<rect id="XMLID_23_" x="-904.8" y="-705" width="1445" height="4148"/>
		</defs>
		<clipPath id="XMLID_40_">
			<use xlink:href="#XMLID_23_"  style="overflow:visible;"/>
		</clipPath>
		<rect id="XMLID_24_" x="-4.3" y="10" class="st5" width="13.7" height="13.7"/>
	</g>
</g>
<g id="XMLID_7_">
	<defs>
		<path id="XMLID_8_" d="M20.9,16.8c0,0.8-0.6,1.4-1.4,1.4c-0.8,0-1.4-0.6-1.4-1.4s0.6-1.4,1.4-1.4C20.2,15.4,20.9,16,20.9,16.8z
			 M12.8,20.2c-0.4-0.5-1-0.8-1.7-0.8s-1.3,0.3-1.7,0.8l-4.5-2.6c0.1-0.2,0.1-0.5,0.1-0.8c0-1.1-0.8-2.1-1.9-2.3l0-5.1
			C4,9.3,4.9,8.3,4.9,7.2c0-0.3,0-0.5-0.1-0.7l4.5-2.6c0.4,0.5,1,0.8,1.7,0.8s1.3-0.3,1.7-0.8l4.5,2.6c-0.1,0.2-0.1,0.5-0.1,0.7
			c0,1.1,0.8,2,1.9,2.3v5.1c-1.1,0.2-1.9,1.1-1.9,2.3c0,0.3,0,0.5,0.1,0.8L12.8,20.2z M11,23.1c-0.8,0-1.4-0.6-1.4-1.4
			c0-0.8,0.6-1.4,1.4-1.4c0.8,0,1.4,0.6,1.4,1.4C12.4,22.5,11.8,23.1,11,23.1z M2.6,18.2c-0.8,0-1.4-0.6-1.4-1.4s0.6-1.4,1.4-1.4
			C3.4,15.4,4,16,4,16.8C4,17.6,3.3,18.2,2.6,18.2z M1.2,7.2c0-0.8,0.6-1.4,1.4-1.4C3.4,5.8,4,6.4,4,7.2S3.4,8.6,2.6,8.6
			C1.8,8.6,1.2,8,1.2,7.2z M11,0.9c0.8,0,1.4,0.6,1.4,1.4c0,0.2-0.1,0.5-0.2,0.7c0,0,0,0,0,0c0,0,0,0,0,0C12,3.4,11.5,3.7,11,3.7
			c-0.8,0-1.4-0.6-1.4-1.4C9.6,1.5,10.2,0.9,11,0.9z M19.5,5.8c0.8,0,1.4,0.6,1.4,1.4s-0.6,1.4-1.4,1.4C18.7,8.6,18,8,18,7.2
			S18.7,5.8,19.5,5.8z M21.8,7.2c0-1.3-1-2.3-2.3-2.3c-0.7,0-1.3,0.3-1.7,0.8L13.2,3c0.1-0.2,0.1-0.5,0.1-0.7C13.3,1,12.3,0,11,0
			S8.7,1,8.7,2.3c0,0.3,0,0.5,0.1,0.7L4.3,5.7c-0.4-0.5-1-0.8-1.7-0.8c-1.3,0-2.3,1-2.3,2.3c0,1.1,0.8,2,1.8,2.2l0,5.2
			c-1,0.2-1.8,1.1-1.8,2.2c0,1.3,1,2.3,2.3,2.3c0.7,0,1.3-0.3,1.7-0.8L8.8,21c-0.1,0.2-0.1,0.5-0.1,0.7c0,1.3,1,2.3,2.3,2.3
			c1.3,0,2.3-1,2.3-2.3c0-0.2,0-0.5-0.1-0.7l4.6-2.6c0.4,0.5,1,0.8,1.7,0.8c1.3,0,2.3-1,2.3-2.3c0-1.1-0.8-2-1.9-2.3V9.4
			C21,9.2,21.8,8.3,21.8,7.2z"/>
	</defs>
	<clipPath id="XMLID_41_">
		<use xlink:href="#XMLID_8_"  style="overflow:visible;"/>
	</clipPath>
	<g id="XMLID_17_" class="st6">
		<defs>
			<rect id="XMLID_18_" x="-904.8" y="-705" width="1445" height="4148"/>
		</defs>
		<clipPath id="XMLID_42_">
			<use xlink:href="#XMLID_18_"  style="overflow:visible;"/>
		</clipPath>
		<rect id="XMLID_19_" x="-4.7" y="-5" class="st7" width="31.5" height="34"/>
	</g>
</g>
<g id="XMLID_2_">
	<defs>
		<path id="XMLID_3_" d="M13.2,13.8v-1.6c0.3-0.3,0.4-0.6,0.4-1V9.1c0-1.3-1-2.3-2.3-2.3h-0.5c-1.3,0-2.3,1-2.3,2.3v2.1
			c0,0.4,0.2,0.7,0.4,1v1.6C8.4,14,7.1,14.7,6,15.7c-0.2,0.2-0.2,0.4-0.1,0.6c0.2,0.2,0.4,0.2,0.6,0.1c1.3-1,2.6-1.7,2.9-1.9
			c0.2-0.1,0.3-0.3,0.3-0.5v-2c0-0.1-0.1-0.3-0.2-0.4c-0.1-0.1-0.2-0.2-0.2-0.4V9.1c0-0.8,0.7-1.4,1.4-1.4h0.5
			c0.8,0,1.4,0.7,1.4,1.4v2.1c0,0.2-0.1,0.3-0.2,0.4c-0.1,0.1-0.2,0.2-0.2,0.4v2c0,0.2,0.1,0.4,0.3,0.5c0.3,0.1,1.6,0.8,2.9,1.9
			c0.1,0.1,0.2,0.1,0.3,0.1c0.1,0,0.3-0.1,0.3-0.2c0.2-0.2,0.1-0.5-0.1-0.6C14.9,14.7,13.7,14,13.2,13.8z"/>
	</defs>
	<clipPath id="XMLID_43_">
		<use xlink:href="#XMLID_3_"  style="overflow:visible;"/>
	</clipPath>
	<g id="XMLID_4_" class="st8">
		<defs>
			<rect id="XMLID_5_" x="-904.8" y="-705" width="1445" height="4148"/>
		</defs>
		<clipPath id="XMLID_44_">
			<use xlink:href="#XMLID_5_"  style="overflow:visible;"/>
		</clipPath>
		<rect id="XMLID_6_" x="0.8" y="1.7" class="st9" width="20.4" height="19.7"/>
	</g>
</g>
</svg>
