<?xml version="1.0" encoding="utf-8"?>
<!-- Generator: Adobe Illustrator 19.0.0, SVG Export Plug-In . SVG Version: 6.00 Build 0)  -->
<svg version="1.1" id="Layer_1" xmlns="http://www.w3.org/2000/svg" xmlns:xlink="http://www.w3.org/1999/xlink" x="0px" y="0px"
	 viewBox="0 0 27 24" style="enable-background:new 0 0 27 24;" xml:space="preserve">
<style type="text/css">
	.st0{clip-path:url(#XMLID_36_);}
	.st1{clip-path:url(#XMLID_37_);fill:#010101;}
	.st2{clip-path:url(#XMLID_38_);}
	.st3{clip-path:url(#XMLID_39_);fill:#010101;}
	.st4{clip-path:url(#XMLID_40_);}
	.st5{clip-path:url(#XMLID_41_);fill:#010101;}
	.st6{clip-path:url(#XMLID_42_);}
	.st7{clip-path:url(#XMLID_43_);fill:#010101;}
	.st8{clip-path:url(#XMLID_44_);}
	.st9{clip-path:url(#XMLID_45_);fill:#010101;}
	.st10{clip-path:url(#XMLID_46_);}
	.st11{clip-path:url(#XMLID_47_);fill:#010101;}
</style>
<g id="XMLID_29_">
	<defs>
		<path id="XMLID_30_" d="M25.9,23.1H1.1V0.9h15.6v2.5H2.4C2.1,3.4,2,3.6,2,3.8c0,0.2,0.2,0.4,0.4,0.4h22.3c0.2,0,0.4-0.2,0.4-0.4
			c0-0.2-0.2-0.4-0.4-0.4h-7V0.9h8.3V23.1z M26.3,0H0.7C0.4,0,0.3,0.2,0.3,0.5v23.1c0,0.2,0.2,0.4,0.4,0.4h25.6
			c0.2,0,0.4-0.2,0.4-0.4V0.5C26.7,0.2,26.6,0,26.3,0z"/>
	</defs>
	<clipPath id="XMLID_36_">
		<use xlink:href="#XMLID_30_"  style="overflow:visible;"/>
	</clipPath>
	<g id="XMLID_33_" class="st0">
		<defs>
			<rect id="XMLID_34_" x="-1149.7" y="-705" width="1445" height="4148"/>
		</defs>
		<clipPath id="XMLID_37_">
			<use xlink:href="#XMLID_34_"  style="overflow:visible;"/>
		</clipPath>
		<rect id="XMLID_35_" x="-4.7" y="-5" class="st1" width="36.5" height="33.9"/>
	</g>
</g>
<g id="XMLID_24_">
	<defs>
		<circle id="XMLID_25_" cx="21.8" cy="2.1" r="0.4"/>
	</defs>
	<clipPath id="XMLID_38_">
		<use xlink:href="#XMLID_25_"  style="overflow:visible;"/>
	</clipPath>
	<g id="XMLID_26_" class="st2">
		<defs>
			<rect id="XMLID_27_" x="-1149.7" y="-705" width="1445" height="4148"/>
		</defs>
		<clipPath id="XMLID_39_">
			<use xlink:href="#XMLID_27_"  style="overflow:visible;"/>
		</clipPath>
		<rect id="XMLID_28_" x="16.3" y="-3.3" class="st3" width="10.8" height="10.8"/>
	</g>
</g>
<g id="XMLID_19_">
	<defs>
		<circle id="XMLID_20_" cx="19.4" cy="2.1" r="0.4"/>
	</defs>
	<clipPath id="XMLID_40_">
		<use xlink:href="#XMLID_20_"  style="overflow:visible;"/>
	</clipPath>
	<g id="XMLID_21_" class="st4">
		<defs>
			<rect id="XMLID_22_" x="-1149.7" y="-705" width="1445" height="4148"/>
		</defs>
		<clipPath id="XMLID_41_">
			<use xlink:href="#XMLID_22_"  style="overflow:visible;"/>
		</clipPath>
		<rect id="XMLID_23_" x="14" y="-3.3" class="st5" width="10.8" height="10.8"/>
	</g>
</g>
<g id="XMLID_14_">
	<defs>
		<circle id="XMLID_15_" cx="24.1" cy="2.1" r="0.4"/>
	</defs>
	<clipPath id="XMLID_42_">
		<use xlink:href="#XMLID_15_"  style="overflow:visible;"/>
	</clipPath>
	<g id="XMLID_16_" class="st6">
		<defs>
			<rect id="XMLID_17_" x="-1149.7" y="-705" width="1445" height="4148"/>
		</defs>
		<clipPath id="XMLID_43_">
			<use xlink:href="#XMLID_17_"  style="overflow:visible;"/>
		</clipPath>
		<rect id="XMLID_18_" x="18.6" y="-3.3" class="st7" width="10.8" height="10.8"/>
	</g>
</g>
<g id="XMLID_9_">
	<defs>
		<path id="XMLID_10_" d="M13.5,10.4c-1.7,0-3.1,1.4-3.1,3.1c0,1.7,1.4,3.1,3.1,3.1c0.5,0,1-0.1,1.4-0.3c0.2-0.1,0.3-0.4,0.2-0.6
			c-0.1-0.2-0.4-0.3-0.6-0.2c-0.3,0.2-0.7,0.3-1,0.3c-1.3,0-2.3-1-2.3-2.3c0-1.3,1-2.3,2.3-2.3c1.3,0,2.3,1,2.3,2.3
			c0,0.4-0.1,0.7-0.3,1c-0.1,0.2,0,0.5,0.2,0.6c0.2,0.1,0.5,0,0.6-0.2c0.2-0.4,0.3-0.9,0.3-1.4C16.6,11.8,15.2,10.4,13.5,10.4z"/>
	</defs>
	<clipPath id="XMLID_44_">
		<use xlink:href="#XMLID_10_"  style="overflow:visible;"/>
	</clipPath>
	<g id="XMLID_11_" class="st8">
		<defs>
			<rect id="XMLID_12_" x="-1149.7" y="-705" width="1445" height="4148"/>
		</defs>
		<clipPath id="XMLID_45_">
			<use xlink:href="#XMLID_12_"  style="overflow:visible;"/>
		</clipPath>
		<rect id="XMLID_13_" x="5.4" y="5.4" class="st9" width="16.3" height="16.3"/>
	</g>
</g>
<g id="XMLID_2_">
	<defs>
		<path id="XMLID_3_" d="M20,14.2h-1.7c-0.2,0-0.4,0.1-0.4,0.3c-0.1,0.5-0.3,0.9-0.6,1.4c-0.1,0.2-0.1,0.4,0.1,0.5l1.2,1.2l-1,1
			l-1.2-1.2c-0.1-0.1-0.4-0.2-0.5-0.1c-0.4,0.3-0.9,0.5-1.4,0.6c-0.2,0-0.3,0.2-0.3,0.4V20h-1.4v-1.7c0-0.2-0.1-0.4-0.3-0.4
			c-0.5-0.1-0.9-0.3-1.4-0.6c-0.2-0.1-0.4-0.1-0.5,0.1l-1.2,1.2l-1-1l1.2-1.2c0.1-0.1,0.2-0.4,0.1-0.5c-0.3-0.4-0.5-0.9-0.6-1.4
			c0-0.2-0.2-0.3-0.4-0.3H7v-1.4h1.7c0.2,0,0.4-0.1,0.4-0.3c0.1-0.5,0.3-0.9,0.6-1.4c0.1-0.2,0.1-0.4-0.1-0.5L8.4,9.4l1-1l1.2,1.2
			c0.1,0.1,0.4,0.2,0.5,0.1c0.4-0.3,0.9-0.5,1.4-0.6c0.2,0,0.3-0.2,0.3-0.4V7h1.4v1.7c0,0.2,0.1,0.4,0.3,0.4
			c0.5,0.1,0.9,0.3,1.4,0.6c0.2,0.1,0.4,0.1,0.5-0.1l1.2-1.2l1,1l-1.2,1.2c-0.1,0.1-0.2,0.4-0.1,0.5c0.3,0.4,0.5,0.9,0.6,1.4
			c0,0.2,0.2,0.3,0.4,0.3H20V14.2z M20.4,12h-1.8c-0.1-0.3-0.2-0.7-0.4-1l1.3-1.3c0.1-0.1,0.1-0.2,0.1-0.3c0-0.1,0-0.2-0.1-0.3
			l-1.6-1.6c-0.2-0.2-0.4-0.2-0.6,0l-1.3,1.3c-0.3-0.2-0.7-0.3-1-0.4V6.6c0-0.2-0.2-0.4-0.4-0.4h-2.3c-0.2,0-0.4,0.2-0.4,0.4v1.8
			c-0.3,0.1-0.7,0.2-1,0.4L9.7,7.5c-0.2-0.2-0.4-0.2-0.6,0L7.5,9.1C7.4,9.2,7.4,9.3,7.4,9.4c0,0.1,0,0.2,0.1,0.3L8.8,11
			c-0.2,0.3-0.3,0.7-0.4,1H6.6c-0.2,0-0.4,0.2-0.4,0.4v2.3c0,0.2,0.2,0.4,0.4,0.4h1.8c0.1,0.3,0.2,0.7,0.4,1l-1.3,1.3
			c-0.1,0.1-0.1,0.2-0.1,0.3c0,0.1,0,0.2,0.1,0.3l1.6,1.6c0.2,0.2,0.4,0.2,0.6,0l1.3-1.3c0.3,0.2,0.7,0.3,1,0.4v1.8
			c0,0.2,0.2,0.4,0.4,0.4h2.3c0.2,0,0.4-0.2,0.4-0.4v-1.8c0.3-0.1,0.7-0.2,1-0.4l1.3,1.3c0.2,0.2,0.4,0.2,0.6,0l1.6-1.6
			c0.1-0.1,0.1-0.2,0.1-0.3c0-0.1,0-0.2-0.1-0.3l-1.3-1.3c0.2-0.3,0.3-0.7,0.4-1h1.8c0.2,0,0.4-0.2,0.4-0.4v-2.3
			C20.9,12.2,20.7,12,20.4,12z"/>
	</defs>
	<clipPath id="XMLID_46_">
		<use xlink:href="#XMLID_3_"  style="overflow:visible;"/>
	</clipPath>
	<g id="XMLID_6_" class="st10">
		<defs>
			<rect id="XMLID_7_" x="-1149.7" y="-705" width="1445" height="4148"/>
		</defs>
		<clipPath id="XMLID_47_">
			<use xlink:href="#XMLID_7_"  style="overflow:visible;"/>
		</clipPath>
		<rect id="XMLID_8_" x="1.1" y="1.2" class="st11" width="24.7" height="24.7"/>
	</g>
</g>
</svg>
