<?xml version="1.0" encoding="utf-8"?>
<!-- Generator: Adobe Illustrator 19.0.0, SVG Export Plug-In . SVG Version: 6.00 Build 0)  -->
<svg version="1.1" id="Layer_1" xmlns="http://www.w3.org/2000/svg" xmlns:xlink="http://www.w3.org/1999/xlink" x="0px" y="0px"
	 viewBox="0 0 26 24" style="enable-background:new 0 0 26 24;" xml:space="preserve">
<style type="text/css">
	.st0{clip-path:url(#XMLID_24_);}
	.st1{clip-path:url(#XMLID_25_);fill:#010101;}
	.st2{clip-path:url(#XMLID_26_);}
	.st3{clip-path:url(#XMLID_27_);fill:#010101;}
	.st4{clip-path:url(#XMLID_28_);}
	.st5{clip-path:url(#XMLID_29_);fill:#010101;}
	.st6{clip-path:url(#XMLID_30_);}
	.st7{clip-path:url(#XMLID_31_);fill:#010101;}
</style>
<g id="XMLID_19_">
	<defs>
		<path id="XMLID_20_" d="M25.8,15.1l-3.1-6.2l-3.1,6.2h2.1c-1.3,4.1-5.1,7-9.6,7C6.5,22.1,2,17.6,2,12C2,6.4,6.5,1.9,12.1,1.9
			c4.3,0,8,2.7,9.4,6.5l1-2c-2-3.7-5.9-6.2-10.4-6.2C5.5,0.1,0.2,5.5,0.2,12c0,6.5,5.3,11.9,11.9,11.9c5.5,0,10.1-3.7,11.5-8.8
			L25.8,15.1L25.8,15.1z"/>
	</defs>
	<clipPath id="XMLID_24_">
		<use xlink:href="#XMLID_20_"  style="overflow:visible;"/>
	</clipPath>
	<g id="XMLID_21_" class="st0">
		<defs>
			<rect id="XMLID_22_" x="-1024.8" y="-705" width="1445" height="4148"/>
		</defs>
		<clipPath id="XMLID_25_">
			<use xlink:href="#XMLID_22_"  style="overflow:visible;"/>
		</clipPath>
		<rect id="XMLID_23_" x="-4.8" y="-4.9" class="st1" width="35.6" height="33.7"/>
	</g>
</g>
<g id="XMLID_12_">
	<defs>
		<path id="XMLID_13_" d="M7.7,11.3c0.1-0.3,0.1-0.6,0.2-0.9h0c0.1,0.3,0.2,0.6,0.2,0.9l0.3,1h-1L7.7,11.3z M5.8,14.4h1.1l0.3-1.2
			h1.4L9,14.4h1.2L8.6,9.6H7.2L5.8,14.4z"/>
	</defs>
	<clipPath id="XMLID_26_">
		<use xlink:href="#XMLID_13_"  style="overflow:visible;"/>
	</clipPath>
	<g id="XMLID_16_" class="st2">
		<defs>
			<rect id="XMLID_17_" x="-1024.8" y="-705" width="1445" height="4148"/>
		</defs>
		<clipPath id="XMLID_27_">
			<use xlink:href="#XMLID_17_"  style="overflow:visible;"/>
		</clipPath>
		<rect id="XMLID_18_" x="0.8" y="4.6" class="st3" width="14.3" height="14.7"/>
	</g>
</g>
<g id="XMLID_7_">
	<defs>
		<path id="XMLID_8_" d="M13,10.5c0.5,0,0.8,0.1,1.1,0.2l0.2-0.9c-0.2-0.1-0.7-0.2-1.3-0.2c-1.6,0-2.7,0.9-2.7,2.5
			c0,0.7,0.2,1.3,0.7,1.7c0.4,0.4,1.1,0.6,1.9,0.6c0.6,0,1.3-0.2,1.6-0.3v-2.5h-1.8v0.8h0.7v1c-0.1,0-0.3,0.1-0.5,0.1
			c-0.9,0-1.5-0.6-1.5-1.6C11.5,11,12.1,10.5,13,10.5z"/>
	</defs>
	<clipPath id="XMLID_28_">
		<use xlink:href="#XMLID_8_"  style="overflow:visible;"/>
	</clipPath>
	<g id="XMLID_9_" class="st4">
		<defs>
			<rect id="XMLID_10_" x="-1024.8" y="-705" width="1445" height="4148"/>
		</defs>
		<clipPath id="XMLID_29_">
			<use xlink:href="#XMLID_10_"  style="overflow:visible;"/>
		</clipPath>
		<rect id="XMLID_11_" x="5.3" y="4.6" class="st5" width="14.2" height="14.8"/>
	</g>
</g>
<g id="XMLID_2_">
	<defs>
		<polygon id="XMLID_3_" points="18.3,10.5 18.3,9.6 15.4,9.6 15.4,14.4 18.4,14.4 18.4,13.5 16.4,13.5 16.4,12.4 18.2,12.4 
			18.2,11.5 16.4,11.5 16.4,10.5 		"/>
	</defs>
	<clipPath id="XMLID_30_">
		<use xlink:href="#XMLID_3_"  style="overflow:visible;"/>
	</clipPath>
	<g id="XMLID_4_" class="st6">
		<defs>
			<rect id="XMLID_5_" x="-1024.8" y="-705" width="1445" height="4148"/>
		</defs>
		<clipPath id="XMLID_31_">
			<use xlink:href="#XMLID_5_"  style="overflow:visible;"/>
		</clipPath>
		<rect id="XMLID_6_" x="10.4" y="4.6" class="st7" width="13" height="14.7"/>
	</g>
</g>
</svg>
