<?xml version="1.0" encoding="utf-8"?>
<!-- Generator: Adobe Illustrator 19.0.0, SVG Export Plug-In . SVG Version: 6.00 Build 0)  -->
<svg version="1.1" id="Layer_1" xmlns="http://www.w3.org/2000/svg" xmlns:xlink="http://www.w3.org/1999/xlink" x="0px" y="0px"
	 viewBox="0 0 24 24" style="enable-background:new 0 0 24 24;" xml:space="preserve">
<style type="text/css">
	.st0{clip-path:url(#XMLID_67_);}
	.st1{clip-path:url(#XMLID_68_);fill:#010101;}
	.st2{clip-path:url(#XMLID_69_);}
	.st3{clip-path:url(#XMLID_70_);fill:#010101;}
	.st4{clip-path:url(#XMLID_71_);}
	.st5{clip-path:url(#XMLID_72_);fill:#010101;}
	.st6{clip-path:url(#XMLID_73_);}
	.st7{clip-path:url(#XMLID_74_);fill:#010101;}
	.st8{clip-path:url(#XMLID_75_);}
	.st9{clip-path:url(#XMLID_76_);fill:#010101;}
	.st10{clip-path:url(#XMLID_77_);}
	.st11{clip-path:url(#XMLID_78_);fill:#010101;}
	.st12{clip-path:url(#XMLID_79_);}
	.st13{clip-path:url(#XMLID_80_);fill:#010101;}
	.st14{clip-path:url(#XMLID_81_);}
	.st15{clip-path:url(#XMLID_82_);fill:#010101;}
	.st16{clip-path:url(#XMLID_83_);}
	.st17{clip-path:url(#XMLID_84_);fill:#010101;}
	.st18{clip-path:url(#XMLID_85_);}
	.st19{clip-path:url(#XMLID_86_);fill:#010101;}
	.st20{clip-path:url(#XMLID_87_);}
	.st21{clip-path:url(#XMLID_88_);fill:#010101;}
	.st22{clip-path:url(#XMLID_89_);}
	.st23{clip-path:url(#XMLID_90_);fill:#010101;}
	.st24{clip-path:url(#XMLID_91_);}
	.st25{clip-path:url(#XMLID_92_);fill:#010101;}
</style>
<g id="XMLID_62_">
	<defs>
		<path id="XMLID_63_" d="M21.9,0.8H10.4c-0.3,0-0.5,0.2-0.5,0.5v4L10.4,5c0.1-0.1,0.3-0.2,0.5-0.2v-3h10.5v7.5H10.9V8.1l-1,0.6v1.1
			c0,0.3,0.2,0.5,0.5,0.5h11.5c0.3,0,0.5-0.2,0.5-0.5V1.3C22.4,1,22.2,0.8,21.9,0.8z"/>
	</defs>
	<clipPath id="XMLID_67_">
		<use xlink:href="#XMLID_63_"  style="overflow:visible;"/>
	</clipPath>
	<g id="XMLID_64_" class="st0">
		<defs>
			<rect id="XMLID_65_" x="-1277" y="-705" width="1445" height="4148"/>
		</defs>
		<clipPath id="XMLID_68_">
			<use xlink:href="#XMLID_65_"  style="overflow:visible;"/>
		</clipPath>
		<rect id="XMLID_66_" x="4.9" y="-4.2" class="st1" width="22.5" height="19.6"/>
	</g>
</g>
<g id="XMLID_57_">
	<defs>
		<path id="XMLID_58_" d="M14.3,3.7c-0.1-0.2-0.4-0.2-0.6-0.1L12,5c0.2,0.1,0.3,0.3,0.4,0.4c0,0.1,0.1,0.1,0.1,0.2l1.8-1.4
			C14.4,4.1,14.5,3.9,14.3,3.7z"/>
	</defs>
	<clipPath id="XMLID_69_">
		<use xlink:href="#XMLID_58_"  style="overflow:visible;"/>
	</clipPath>
	<g id="XMLID_59_" class="st2">
		<defs>
			<rect id="XMLID_60_" x="-1277" y="-705" width="1445" height="4148"/>
		</defs>
		<clipPath id="XMLID_70_">
			<use xlink:href="#XMLID_60_"  style="overflow:visible;"/>
		</clipPath>
		<rect id="XMLID_61_" x="7" y="-1.5" class="st3" width="12.4" height="12.1"/>
	</g>
</g>
<g id="XMLID_52_">
	<defs>
		<circle id="XMLID_53_" cx="5.7" cy="1.5" r="1.5"/>
	</defs>
	<clipPath id="XMLID_71_">
		<use xlink:href="#XMLID_53_"  style="overflow:visible;"/>
	</clipPath>
	<g id="XMLID_54_" class="st4">
		<defs>
			<rect id="XMLID_55_" x="-1277" y="-705" width="1445" height="4148"/>
		</defs>
		<clipPath id="XMLID_72_">
			<use xlink:href="#XMLID_55_"  style="overflow:visible;"/>
		</clipPath>
		<rect id="XMLID_56_" x="-0.8" y="-5" class="st5" width="13" height="13"/>
	</g>
</g>
<g id="XMLID_47_">
	<defs>
		<path id="XMLID_48_" d="M11.8,5.9c-0.2-0.3-0.7-0.4-1-0.2L9.4,6.5c0-1.2,0-0.6,0-1.3c0-0.9-0.8-1.7-1.7-1.7H6.9
			C6.3,5.1,6.5,4.5,6,5.8l0.2-0.9c0-0.1,0-0.1,0-0.2L5.9,4.1l0.3-0.5c0-0.1,0-0.2-0.1-0.2H5.4c-0.1,0-0.1,0.1-0.1,0.2l0.3,0.5
			L5.2,4.7c0,0.1,0,0.1,0,0.2l0.2,0.9C5.3,5.5,4.6,3.7,4.5,3.5H3.8c-0.9,0-1.7,0.8-1.7,1.7l0,5.3c0,0.4,0.3,0.7,0.7,0.7h0
			c0.4,0,0.7-0.3,0.7-0.7l0-5.3v0C3.5,5.1,3.6,5,3.7,5c0.1,0,0.1,0.1,0.1,0.1l0,7.5c0.7,0,1.3,0.2,1.7,0.6v-2.9h0.4v3.4
			c0.3,0.4,0.4,0.9,0.4,1.4c0,0.5-0.1,0.9-0.3,1.3c0.2,0,0.4,0,0.7,0.1c0.3-0.2,0.6-0.4,1-0.5c0-13.1,0-5,0-10.7
			C7.6,5.1,7.7,5,7.8,5c0.1,0,0.2,0.1,0.2,0.2c0,0.5,0,2.1,0,2.6c0,0.3,0.1,0.5,0.4,0.6c0.2,0.1,0.5,0.1,0.7,0l2.6-1.6
			C11.9,6.6,12,6.2,11.8,5.9z"/>
	</defs>
	<clipPath id="XMLID_73_">
		<use xlink:href="#XMLID_48_"  style="overflow:visible;"/>
	</clipPath>
	<g id="XMLID_49_" class="st6">
		<defs>
			<rect id="XMLID_50_" x="-1277" y="-705" width="1445" height="4148"/>
		</defs>
		<clipPath id="XMLID_74_">
			<use xlink:href="#XMLID_50_"  style="overflow:visible;"/>
		</clipPath>
		<rect id="XMLID_51_" x="-3" y="-1.5" class="st7" width="19.9" height="23"/>
	</g>
</g>
<g id="XMLID_42_">
	<defs>
		<circle id="XMLID_43_" cx="20.1" cy="15.1" r="1.6"/>
	</defs>
	<clipPath id="XMLID_75_">
		<use xlink:href="#XMLID_43_"  style="overflow:visible;"/>
	</clipPath>
	<g id="XMLID_44_" class="st8">
		<defs>
			<rect id="XMLID_45_" x="-1277" y="-705" width="1445" height="4148"/>
		</defs>
		<clipPath id="XMLID_76_">
			<use xlink:href="#XMLID_45_"  style="overflow:visible;"/>
		</clipPath>
		<rect id="XMLID_46_" x="13.5" y="8.5" class="st9" width="13.2" height="13.2"/>
	</g>
</g>
<g id="XMLID_37_">
	<defs>
		<path id="XMLID_38_" d="M24,19c0-1-0.8-1.8-1.8-1.8h-4c0.2,0.3,0.3,0.7,0.3,1.1c0,0.4-0.1,0.9-0.4,1.3c0.9,0,1.7,0.5,2.1,1.2h1.9
			V19c0-0.1,0.1-0.2,0.2-0.2c0.1,0,0.2,0.1,0.2,0.1v0l0,1.8H24L24,19z"/>
	</defs>
	<clipPath id="XMLID_77_">
		<use xlink:href="#XMLID_38_"  style="overflow:visible;"/>
	</clipPath>
	<g id="XMLID_39_" class="st10">
		<defs>
			<rect id="XMLID_40_" x="-1277" y="-705" width="1445" height="4148"/>
		</defs>
		<clipPath id="XMLID_78_">
			<use xlink:href="#XMLID_40_"  style="overflow:visible;"/>
		</clipPath>
		<rect id="XMLID_41_" x="13.1" y="12.2" class="st11" width="15.9" height="13.6"/>
	</g>
</g>
<g id="XMLID_32_">
	<defs>
		<path id="XMLID_33_" d="M13.6,18.3c0-0.4,0.1-0.8,0.3-1.1h-3.5c0.2,0.3,0.3,0.7,0.3,1.1c0,0.5-0.1,0.9-0.3,1.3
			c0.7,0,1.4,0.3,1.9,0.8c0.5-0.5,1.1-0.7,1.8-0.7C13.7,19.2,13.6,18.7,13.6,18.3z"/>
	</defs>
	<clipPath id="XMLID_79_">
		<use xlink:href="#XMLID_33_"  style="overflow:visible;"/>
	</clipPath>
	<g id="XMLID_34_" class="st12">
		<defs>
			<rect id="XMLID_35_" x="-1277" y="-705" width="1445" height="4148"/>
		</defs>
		<clipPath id="XMLID_80_">
			<use xlink:href="#XMLID_35_"  style="overflow:visible;"/>
		</clipPath>
		<rect id="XMLID_36_" x="5.3" y="12.2" class="st13" width="13.7" height="13.1"/>
	</g>
</g>
<g id="XMLID_27_">
	<defs>
		<path id="XMLID_28_" d="M12.4,13.5c-0.9,0-1.6,0.7-1.6,1.6c0,0.9,0.7,1.6,1.6,1.6c0.9,0,1.6-0.7,1.6-1.6
			C14,14.2,13.3,13.5,12.4,13.5z"/>
	</defs>
	<clipPath id="XMLID_81_">
		<use xlink:href="#XMLID_28_"  style="overflow:visible;"/>
	</clipPath>
	<g id="XMLID_29_" class="st14">
		<defs>
			<rect id="XMLID_30_" x="-1277" y="-705" width="1445" height="4148"/>
		</defs>
		<clipPath id="XMLID_82_">
			<use xlink:href="#XMLID_30_"  style="overflow:visible;"/>
		</clipPath>
		<rect id="XMLID_31_" x="5.8" y="8.5" class="st15" width="13.2" height="13.2"/>
	</g>
</g>
<g id="XMLID_22_">
	<defs>
		<path id="XMLID_23_" d="M5.8,18.3c0-0.4,0.1-0.8,0.3-1.1c-0.1,0,0.2,0-4.2,0c-1,0-1.8,0.8-1.8,1.8l0,1.8h1.5l0-1.8
			c0-0.1,0.1-0.2,0.2-0.2c0.1,0,0.2,0.1,0.2,0.2v1.8H4c0.5-0.7,1.3-1.2,2.1-1.2C5.9,19.2,5.8,18.7,5.8,18.3z"/>
	</defs>
	<clipPath id="XMLID_83_">
		<use xlink:href="#XMLID_23_"  style="overflow:visible;"/>
	</clipPath>
	<g id="XMLID_24_" class="st16">
		<defs>
			<rect id="XMLID_25_" x="-1277" y="-705" width="1445" height="4148"/>
		</defs>
		<clipPath id="XMLID_84_">
			<use xlink:href="#XMLID_25_"  style="overflow:visible;"/>
		</clipPath>
		<rect id="XMLID_26_" x="-5" y="12.2" class="st17" width="16.1" height="13.6"/>
	</g>
</g>
<g id="XMLID_17_">
	<defs>
		<path id="XMLID_18_" d="M3.9,13.5c-0.9,0-1.6,0.7-1.6,1.6c0,0.9,0.7,1.6,1.6,1.6c0.9,0,1.6-0.7,1.6-1.6
			C5.5,14.2,4.8,13.5,3.9,13.5z"/>
	</defs>
	<clipPath id="XMLID_85_">
		<use xlink:href="#XMLID_18_"  style="overflow:visible;"/>
	</clipPath>
	<g id="XMLID_19_" class="st18">
		<defs>
			<rect id="XMLID_20_" x="-1277" y="-705" width="1445" height="4148"/>
		</defs>
		<clipPath id="XMLID_86_">
			<use xlink:href="#XMLID_20_"  style="overflow:visible;"/>
		</clipPath>
		<rect id="XMLID_21_" x="-2.7" y="8.5" class="st19" width="13.2" height="13.2"/>
	</g>
</g>
<g id="XMLID_12_">
	<defs>
		<path id="XMLID_13_" d="M19.8,22.2c0-1-0.8-1.8-1.8-1.8h-4c-1,0-1.9,0.8-1.9,1.8l0,0c0-1-0.8-1.8-1.8-1.8h-4c-1,0-1.9,0.8-1.9,1.8
			l0,1.8H6l0-1.8C6,22.1,6,22,6.1,22c0.1,0,0.1,0.1,0.1,0.1V24h4v-1.8c0-0.1,0.1-0.1,0.1-0.1c0.1,0,0.1,0.1,0.1,0.1l0,1.8h3l0-1.8v0
			c0-0.1,0.1-0.1,0.1-0.1c0.1,0,0.1,0.1,0.1,0.1V24h4v-1.8c0-0.1,0.1-0.1,0.1-0.1c0.1,0,0.1,0.1,0.1,0.1l0,1.8h1.5L19.8,22.2z"/>
	</defs>
	<clipPath id="XMLID_87_">
		<use xlink:href="#XMLID_13_"  style="overflow:visible;"/>
	</clipPath>
	<g id="XMLID_14_" class="st20">
		<defs>
			<rect id="XMLID_15_" x="-1277" y="-705" width="1445" height="4148"/>
		</defs>
		<clipPath id="XMLID_88_">
			<use xlink:href="#XMLID_15_"  style="overflow:visible;"/>
		</clipPath>
		<rect id="XMLID_16_" x="-0.6" y="15.4" class="st21" width="25.4" height="13.6"/>
	</g>
</g>
<g id="XMLID_7_">
	<defs>
		<circle id="XMLID_8_" cx="8.3" cy="18.3" r="1.6"/>
	</defs>
	<clipPath id="XMLID_89_">
		<use xlink:href="#XMLID_8_"  style="overflow:visible;"/>
	</clipPath>
	<g id="XMLID_9_" class="st22">
		<defs>
			<rect id="XMLID_10_" x="-1277" y="-705" width="1445" height="4148"/>
		</defs>
		<clipPath id="XMLID_90_">
			<use xlink:href="#XMLID_10_"  style="overflow:visible;"/>
		</clipPath>
		<rect id="XMLID_11_" x="1.7" y="11.7" class="st23" width="13.2" height="13.2"/>
	</g>
</g>
<g id="XMLID_2_">
	<defs>
		<circle id="XMLID_3_" cx="16" cy="18.3" r="1.6"/>
	</defs>
	<clipPath id="XMLID_91_">
		<use xlink:href="#XMLID_3_"  style="overflow:visible;"/>
	</clipPath>
	<g id="XMLID_4_" class="st24">
		<defs>
			<rect id="XMLID_5_" x="-1277" y="-705" width="1445" height="4148"/>
		</defs>
		<clipPath id="XMLID_92_">
			<use xlink:href="#XMLID_5_"  style="overflow:visible;"/>
		</clipPath>
		<rect id="XMLID_6_" x="9.4" y="11.7" class="st25" width="13.2" height="13.2"/>
	</g>
</g>
</svg>
