<?xml version="1.0" encoding="utf-8"?>
<!-- Generator: Adobe Illustrator 19.0.0, SVG Export Plug-In . SVG Version: 6.00 Build 0)  -->
<svg version="1.1" id="Layer_1" xmlns="http://www.w3.org/2000/svg" xmlns:xlink="http://www.w3.org/1999/xlink" x="0px" y="0px"
	 viewBox="0 0 24 24" style="enable-background:new 0 0 24 24;" xml:space="preserve">
<style type="text/css">
	.st0{clip-path:url(#XMLID_16_);}
	.st1{clip-path:url(#XMLID_17_);fill:#D8D9D8;}
</style>
<g id="XMLID_2_">
	<defs>
		<path id="XMLID_3_" d="M17.3,17.2h6.6v6.6h-6.6V17.2z M17.3,8.6h6.6v6.6h-6.6V8.6z M17.3,0.2h6.6v6.6h-6.6V0.2z M8.6,17.2h6.6v6.6
			H8.6V17.2z M0.1,17.2h6.6v6.6H0.1V17.2z M0.1,0.2h6.6v6.6H0.1V0.2z M0.1,8.6h6.6v6.6H0.1V8.6z M8.6,8.6h6.6v6.6H8.6V8.6z M8.6,0.2
			h6.6v6.6H8.6V0.2z"/>
	</defs>
	<clipPath id="XMLID_16_">
		<use xlink:href="#XMLID_3_"  style="overflow:visible;"/>
	</clipPath>
	<g id="XMLID_13_" class="st0">
		<defs>
			<rect id="XMLID_14_" x="-469.9" y="-297.9" width="1440" height="3117"/>
		</defs>
		<clipPath id="XMLID_17_">
			<use xlink:href="#XMLID_14_"  style="overflow:visible;"/>
		</clipPath>
		<rect id="XMLID_15_" x="-4.9" y="-4.8" class="st1" width="33.8" height="33.6"/>
	</g>
</g>
</svg>
