<?xml version="1.0" encoding="utf-8"?>
<!-- Generator: Adobe Illustrator 19.0.0, SVG Export Plug-In . SVG Version: 6.00 Build 0)  -->
<svg version="1.1" id="Layer_1" xmlns="http://www.w3.org/2000/svg" xmlns:xlink="http://www.w3.org/1999/xlink" x="0px" y="0px"
	 viewBox="0 0 37 32" style="enable-background:new 0 0 37 32;" xml:space="preserve">
<style type="text/css">
	.st0{clip-path:url(#SVGID_2_);}
	.st1{clip-path:url(#SVGID_4_);fill:#E2584C;}
	.st2{clip-path:url(#SVGID_6_);}
	.st3{clip-path:url(#SVGID_8_);fill:#CC4E44;}
	.st4{clip-path:url(#XMLID_12_);}
	.st5{clip-path:url(#XMLID_13_);fill:#E2584C;}
	.st6{clip-path:url(#XMLID_14_);}
	.st7{clip-path:url(#XMLID_15_);fill:#CC4E44;}
</style>
<g>
	<defs>
		<path id="SVGID_1_" d="M-546.8,2375.2c-5.4-5.4-10.7-3-15,0.8c-4.3-3.8-9.6-6.2-15-0.8c-4.2,4.2-4.3,11,0,15.3
			c15,13.5,15,13.4,15,13.4s0,0,15.1-13.4C-542.5,2386.3-542.5,2379.5-546.8,2375.2z"/>
	</defs>
	<clipPath id="SVGID_2_">
		<use xlink:href="#SVGID_1_"  style="overflow:visible;"/>
	</clipPath>
	<g class="st0">
		<defs>
			<rect id="SVGID_3_" x="-701" y="-2532" width="1440" height="5096"/>
		</defs>
		<clipPath id="SVGID_4_">
			<use xlink:href="#SVGID_3_"  style="overflow:visible;"/>
		</clipPath>
		<rect x="-585" y="2367.1" class="st1" width="46.4" height="41.9"/>
	</g>
</g>
<g>
	<defs>
		<path id="SVGID_5_" d="M-561.8,2376L-561.8,2376l0,27.9c0.2-0.2,2-1.7,15-13.4c4.3-4.2,4.2-11,0-15.2
			C-552.2,2369.8-557.5,2372.2-561.8,2376z"/>
	</defs>
	<clipPath id="SVGID_6_">
		<use xlink:href="#SVGID_5_"  style="overflow:visible;"/>
	</clipPath>
	<g class="st2">
		<defs>
			<rect id="SVGID_7_" x="-701" y="-2532" width="1440" height="5096"/>
		</defs>
		<clipPath id="SVGID_8_">
			<use xlink:href="#SVGID_7_"  style="overflow:visible;"/>
		</clipPath>
		<rect x="-566.8" y="2367.1" class="st3" width="28.2" height="41.8"/>
	</g>
</g>
<g id="XMLID_7_">
	<defs>
		<path id="XMLID_8_" d="M33.5,3.1c-5.4-5.4-10.7-3-15,0.8c-4.3-3.8-9.6-6.2-15-0.8c-4.2,4.2-4.3,11,0,15.3c15,13.5,15,13.4,15,13.4
			s0,0,15.1-13.4C37.8,14.2,37.8,7.4,33.5,3.1z"/>
	</defs>
	<clipPath id="XMLID_12_">
		<use xlink:href="#XMLID_8_"  style="overflow:visible;"/>
	</clipPath>
	<g id="XMLID_9_" class="st4">
		<defs>
			<rect id="XMLID_10_" x="-120.7" y="-4904.1" width="1440" height="5096"/>
		</defs>
		<clipPath id="XMLID_13_">
			<use xlink:href="#XMLID_10_"  style="overflow:visible;"/>
		</clipPath>
		<rect id="XMLID_11_" x="-4.7" y="-5" class="st5" width="46.4" height="41.9"/>
	</g>
</g>
<g id="XMLID_2_">
	<defs>
		<path id="XMLID_3_" d="M18.5,4L18.5,4l0,27.9c0.2-0.2,2-1.7,15-13.4c4.3-4.2,4.2-11,0-15.3C28.1-2.2,22.8,0.1,18.5,4z"/>
	</defs>
	<clipPath id="XMLID_14_">
		<use xlink:href="#XMLID_3_"  style="overflow:visible;"/>
	</clipPath>
	<g id="XMLID_4_" class="st6">
		<defs>
			<rect id="XMLID_5_" x="-120.7" y="-4904.1" width="1440" height="5096"/>
		</defs>
		<clipPath id="XMLID_15_">
			<use xlink:href="#XMLID_5_"  style="overflow:visible;"/>
		</clipPath>
		<rect id="XMLID_6_" x="13.5" y="-5" class="st7" width="28.2" height="41.8"/>
	</g>
</g>
</svg>
