<?xml version="1.0" encoding="utf-8"?>
<!-- Generator: Adobe Illustrator 19.0.0, SVG Export Plug-In . SVG Version: 6.00 Build 0)  -->
<svg version="1.1" id="Layer_1" xmlns="http://www.w3.org/2000/svg" xmlns:xlink="http://www.w3.org/1999/xlink" x="0px" y="0px"
	 viewBox="0 0 19 19" style="enable-background:new 0 0 19 19;" xml:space="preserve">
<style type="text/css">
	.st0{clip-path:url(#XMLID_9_);}
	.st1{clip-path:url(#XMLID_10_);fill:#ffffff;}
</style>
<g id="XMLID_2_">
	<defs>
		<path id="XMLID_3_" d="M16.4,9.4l-6.9,6.8L2.6,9.4C1.9,8.6,1.5,7.6,1.5,6.5c0-1.1,0.4-2.1,1.2-2.8C3.4,3,4.4,2.6,5.4,2.6
			c1.1,0,2.1,0.4,2.8,1.2l0.9,0.9c0.2,0.2,0.5,0.2,0.7,0l0.9-0.9c0.8-0.8,1.8-1.2,2.8-1.2c1.1,0,2.1,0.4,2.8,1.2
			c0.8,0.8,1.2,1.8,1.2,2.8C17.5,7.6,17.1,8.6,16.4,9.4z M17.1,3c-1-0.9-2.2-1.5-3.6-1.5S11,2.1,10,3L9.5,3.5L9,3
			C8.1,2.1,6.8,1.5,5.4,1.5C4.1,1.5,2.8,2,1.9,3c-0.9,1-1.5,2.2-1.5,3.6c0,1.3,0.5,2.6,1.5,3.5l7.2,7.2c0.1,0.1,0.2,0.2,0.4,0.2
			s0.3-0.1,0.4-0.1l7.2-7.2c1-0.9,1.5-2.2,1.5-3.6C18.6,5.2,18.1,4,17.1,3z"/>
	</defs>
	<clipPath id="XMLID_9_">
		<use xlink:href="#XMLID_3_"  style="overflow:visible;"/>
	</clipPath>
	<g id="XMLID_6_" class="st0">
		<defs>
			<rect id="XMLID_7_" x="-1276.6" y="-436.5" width="1440" height="3117"/>
		</defs>
		<clipPath id="XMLID_10_">
			<use xlink:href="#XMLID_7_"  style="overflow:visible;"/>
		</clipPath>
		<rect id="XMLID_8_" x="-4.6" y="-3.5" class="st1" width="28.1" height="26"/>
	</g>
</g>
</svg>
