<?xml version="1.0" encoding="utf-8"?>
<!-- Generator: Adobe Illustrator 19.0.0, SVG Export Plug-In . SVG Version: 6.00 Build 0)  -->
<svg version="1.1" id="Layer_1" xmlns="http://www.w3.org/2000/svg" xmlns:xlink="http://www.w3.org/1999/xlink" x="0px" y="0px"
	 viewBox="0 0 41 23" style="enable-background:new 0 0 41 23;" xml:space="preserve">
<style type="text/css">
	.st0{clip-path:url(#XMLID_2_);}
	.st1{clip-path:url(#XMLID_3_);fill:#5EC2A8;}
</style>
<g id="XMLID_19_">
	<defs>
		<path id="XMLID_20_" d="M14.6,1.8l-0.7-0.2L13,2.5l1.1,2.9l0.5,0.1l0-1l0.4-0.2l0-0.4l0.4-0.7l-0.3-0.5L14.6,1.8z M26,8l-0.1-0.8
			l-0.3-0.4l0.3-0.1V6.3l-0.8,0.4l0.3,0.7l-0.1,0.5L26,8z M24.6,7.1l-1.3-0.7l-0.4,0.7L23,7.5l0.8-0.1l0.6,0.2L24.6,7.1z M38.9,3.9
			l0,0.7l-0.8,1l0-1.1l1.1-1.3l-0.7,0.1L37.7,4l-1-0.1l-0.8,0.8l0.6,0.4L35.7,7L35.2,7l-0.3,0.5L35,8.2l-0.4,0.2l-0.1-0.6l-0.3-0.5
			l-0.5,0.5L34,8.9l-0.5,1L32.3,10l-0.2,0.4l0.5,0.8L32,11.6L31.4,11l0,0.6l0.5,0.6l0.2,1l0.6,0.2l0.9,0.3l-1.6-0.3l-0.7-0.6
			L30.8,12l0.8,0.4l-0.4-0.7l-0.1-0.9l-0.4,0.1l-0.4-0.9l-1.2,0.9v0.5l-0.4,0.4l-0.6-1.4l-0.6-0.8L26,9.3l-0.4-0.4L25.3,9l0.3,0.8
			l0.5-0.3l0.7,0.5l-1.9,1.2l-1-2l-0.2,0l1,2.4l1-0.5l-0.3,1.1l-1,0.9l0.2,1.4L23.9,15l-1,2l-1,0.2L21,14.9l0.2-1l-0.6-1.8l-1.9,0.1
			l-1.1-1l0.2-1.7l1-1.3l2-0.3L21,8.4L21.8,9l0.3-0.4l1.2,0.3l0.3-0.2l0.1-0.5L23,8l-0.3-0.5l-0.2-0.1l-0.2,0.6l-0.4-0.5l0-0.4
			l-0.5-0.4l-0.3-0.2l0,0.4l0.6,0.4l-0.3,0.4L21,7.2l-0.3-0.4l-0.8,0.4l-0.5,0.8l-0.8-0.1l-0.1-1l1,0.1l-0.3-0.5L19,6l0.8-0.3
			l0.4-0.6l0.4,0l-0.1-0.3l0.2-0.3L20.9,5l1,0l0.3-0.7l0.4,0.1L22.5,4l0.6-0.2l-0.2-0.2l-0.5,0.1l-0.2-0.5l0,0l0,0L22.1,3l0.2-0.2
			l0.2-0.5l-0.2,0l-0.3,0.4l-0.3,0.6L22,3.7l-0.3,0.8l-0.5,0.2l-0.3-0.8l-0.5,0.3l-0.3-0.2l0-0.8l0.5-0.4L21,2l1-0.5l2.4,0.4
			c2.8-0.3,7.9-0.8,7.9-0.8l8.3,1.2l0.3,0.9l-1.1,0.6L38.9,3.9z M24.8,14.6l0,1l0.4,0.2l0.4-1.2l-0.1-0.5L24.8,14.6z M19,3.8v0.9
			l0.6-0.3l0.2-0.3l-0.7-1.3l-0.4,0.3l0,0.4l-0.4,0.5l0,0.5h0.5L19,3.8z M40.1,17.1l0.1,0.9l-1,0.9l0.6,0.1l0.6-0.9l0.4-0.6l-0.3,0
			L40.1,17.1z M36.7,5.6h-0.2l0,1.1L35.8,8l-0.7,0.5l0,0.5l1.3-0.8l0.1-0.8L36.9,7l-0.3-0.3L36.7,6L36.7,5.6z M35.1,12.8l0.8,0.9
			l0.5,0l0.2-0.2l0.7,0.4l-0.3-0.6l-1.3-0.6L35.1,12.8z M32.6,13.1l0.8,0.2l0.4-1.2l-0.2-0.2l-1.1,0.7L32.6,13.1z M36.4,13.9
			l-0.1,0.8l-0.7-0.3l0.1-0.4L35,13.9l-1,0.9l-1,0.4l0.3,1.4l-0.1,0.3l0.4,0.2l1.5-0.4l0.6,0.3l0.3-0.2l0.2,0.6l0.8,0.2l0.6-0.3
			l0.3-1.7l-0.9-0.9L36.4,13.9z M13.7,14.3l1.7,0.8l-1,2l-1,0.1L13.3,18l-2,1.7l-0.9,1.7l0.7,0.7L10,21.8l-0.4-1l1.1-4.5l-0.9-0.8
			l-0.4-1.7L9.9,13l-0.5,0.1l-0.7-0.9L8.1,12l-1.3-0.5L5.7,9.7L5,8.5V6.8L3.9,4.9L2.5,4.1L1.7,4.6L0.1,5.3l1-0.8L0.5,4.4L0.2,3.6
			L0.9,3L0.2,2.9l0.1-0.5h0.5L0.4,1.6l1.3-0.8l2.4,1.3l0.9-0.8l1.9,1.1l3.6-0.4v1.8L9,4.2L8.7,4.9l1.4,1.5l0.3,0l0.2-1.9l0.9,0
			l0.4,1.1l0.5-0.3l1.1,2.4L12,8.3l-1.2,0.6l-0.9,1.2v0.6l-0.3,0l-0.2-0.7l-1.3,0.2l-0.3,0.8l0.3,0.5l0.5-0.4l0.5,0L8.8,12l0.6,0
			l0.2,0.7l0.4,0.1l0.3-0.5l1.9,0.2l1.3,1L13.7,14.3z"/>
	</defs>
	<clipPath id="XMLID_2_">
		<use xlink:href="#XMLID_20_"  style="overflow:visible;"/>
	</clipPath>
	<g id="XMLID_33_" class="st0">
		<defs>
			<rect id="XMLID_34_" x="-119.9" y="-5003.9" width="1440" height="5096"/>
		</defs>
		<clipPath id="XMLID_3_">
			<use xlink:href="#XMLID_34_"  style="overflow:visible;"/>
		</clipPath>
		<rect id="XMLID_35_" x="-4.9" y="-4.1" class="st1" width="50.8" height="31.3"/>
	</g>
</g>
</svg>
