<?xml version="1.0" encoding="utf-8"?>
<!-- Generator: Adobe Illustrator 19.0.0, SVG Export Plug-In . SVG Version: 6.00 Build 0)  -->
<svg version="1.1" id="Layer_1" xmlns="http://www.w3.org/2000/svg" xmlns:xlink="http://www.w3.org/1999/xlink" x="0px" y="0px"
	 viewBox="0 0 12 12" style="enable-background:new 0 0 12 12;" xml:space="preserve">
<style type="text/css">
	.st0{clip-path:url(#XMLID_21_);}
	.st1{clip-path:url(#XMLID_22_);fill:#010101;}
	.st2{clip-path:url(#XMLID_23_);}
	.st3{clip-path:url(#XMLID_24_);fill:#010101;}
	.st4{clip-path:url(#XMLID_25_);}
	.st5{clip-path:url(#XMLID_26_);fill:#010101;}
</style>
<g id="XMLID_14_">
	<defs>
		<path id="XMLID_15_" d="M10.1,11.3h-7c-0.7,0-1.2-0.6-1.2-1.2V3.3c0.3,0.3,0.8,0.5,1.2,0.5h7V11.3z M10.4,3.1H3.1
			c-0.7,0-1.2-0.6-1.2-1.2c0-0.7,0.6-1.2,1.2-1.2h7.3c0.2,0,0.3-0.1,0.3-0.3c0-0.2-0.1-0.3-0.3-0.3H3.1c-1,0-1.9,0.8-1.9,1.9v8.2
			c0,1,0.8,1.9,1.9,1.9h7.3c0.2,0,0.3-0.1,0.3-0.3V3.5C10.8,3.3,10.6,3.1,10.4,3.1z"/>
	</defs>
	<clipPath id="XMLID_21_">
		<use xlink:href="#XMLID_15_"  style="overflow:visible;"/>
	</clipPath>
	<g id="XMLID_18_" class="st0">
		<defs>
			<rect id="XMLID_19_" x="-789.8" y="-525" width="1440" height="3117"/>
		</defs>
		<clipPath id="XMLID_22_">
			<use xlink:href="#XMLID_19_"  style="overflow:visible;"/>
		</clipPath>
		<rect id="XMLID_20_" x="-3.8" y="-5" class="st1" width="19.5" height="22"/>
	</g>
</g>
<g id="XMLID_9_">
	<defs>
		<path id="XMLID_10_" d="M3.2,1.6C3,1.6,2.9,1.7,2.9,1.9c0,0.2,0.1,0.3,0.3,0.3h6.2c0.2,0,0.3-0.1,0.3-0.3c0-0.2-0.1-0.3-0.3-0.3
			H3.2z"/>
	</defs>
	<clipPath id="XMLID_23_">
		<use xlink:href="#XMLID_10_"  style="overflow:visible;"/>
	</clipPath>
	<g id="XMLID_11_" class="st2">
		<defs>
			<rect id="XMLID_12_" x="-789.8" y="-525" width="1440" height="3117"/>
		</defs>
		<clipPath id="XMLID_24_">
			<use xlink:href="#XMLID_12_"  style="overflow:visible;"/>
		</clipPath>
		<rect id="XMLID_13_" x="-2.1" y="-3.4" class="st3" width="16.8" height="10.7"/>
	</g>
</g>
<g id="XMLID_2_">
	<defs>
		<path id="XMLID_3_" d="M6,6.4l0.6,1.6H5.4L6,6.4z M4.4,9.9c0,0,0.1,0,0.1,0c0.1,0,0.3-0.1,0.3-0.2l0.4-1.1h1.5c0,0,0,0,0,0
			l0.4,1.1c0,0.1,0.2,0.2,0.3,0.2c0,0,0.1,0,0.1,0c0.2-0.1,0.3-0.2,0.2-0.4L6.3,5.3c0,0,0,0,0,0c0,0,0,0,0,0c0,0,0,0,0,0
			c0,0,0,0,0,0c0,0,0,0,0,0c0,0,0,0,0,0c0,0,0,0,0,0c0,0,0,0,0,0c0,0,0,0,0,0c0,0,0,0,0,0c0,0,0,0,0,0c0,0,0,0,0,0c0,0,0,0,0,0
			c0,0,0,0,0,0c0,0,0,0,0,0c0,0,0,0,0,0h0c0,0,0,0,0,0c0,0,0,0,0,0c0,0,0,0,0,0c0,0,0,0,0,0c0,0,0,0,0,0h0h0c0,0,0,0,0,0
			c0,0,0,0,0,0c0,0,0,0,0,0c0,0,0,0,0,0c0,0,0,0,0,0h0c0,0,0,0,0,0c0,0,0,0,0,0s0,0,0,0s0,0,0,0c0,0,0,0,0,0c0,0,0,0,0,0
			c0,0,0,0,0,0c0,0,0,0,0,0c0,0,0,0,0,0c0,0,0,0,0,0c0,0,0,0,0,0c0,0,0,0,0,0c0,0,0,0,0,0c0,0,0,0,0,0c0,0,0,0,0,0c0,0,0,0,0,0
			L4.2,9.5C4.1,9.7,4.2,9.8,4.4,9.9z"/>
	</defs>
	<clipPath id="XMLID_25_">
		<use xlink:href="#XMLID_3_"  style="overflow:visible;"/>
	</clipPath>
	<g id="XMLID_6_" class="st4">
		<defs>
			<rect id="XMLID_7_" x="-789.8" y="-525" width="1440" height="3117"/>
		</defs>
		<clipPath id="XMLID_26_">
			<use xlink:href="#XMLID_7_"  style="overflow:visible;"/>
		</clipPath>
		<rect id="XMLID_8_" x="-0.8" y="0.1" class="st5" width="13.7" height="14.9"/>
	</g>
</g>
</svg>
