<?xml version="1.0" encoding="utf-8"?>
<!-- Generator: Adobe Illustrator 19.0.0, SVG Export Plug-In . SVG Version: 6.00 Build 0)  -->
<svg version="1.1" id="Layer_1" xmlns="http://www.w3.org/2000/svg" xmlns:xlink="http://www.w3.org/1999/xlink" x="0px" y="0px"
	 viewBox="0 0 117 50" style="enable-background:new 0 0 117 50;" xml:space="preserve">
<style type="text/css">
	.st0{fill:#6CC0A3;}
	.st1{fill:#B1DED4;}
	.st2{fill:#6AC1B2;}
	.st3{fill:#60C2A8;}
	.st4{fill:#60C2A7;}
	.st5{fill:#151515;}
	.st6{fill:#1B1C1C;}
	.st7{fill:#1F1F1F;}
	.st8{fill:#66C0AC;}
	.st9{fill:#6FBDAA;}
	.st10{fill:#E4F3F1;}
	.st11{fill:#70C09A;}
	.st12{fill:#F3EB5C;}
	.st13{fill:#66C191;}
	.st14{fill:#FAFAF9;}
	.st15{fill:#FDFDFD;}
</style>
<g id="XMLID_1_">
	<path id="XMLID_301_" class="st0" d="M110.6,6c-1.3-1.9-0.9-4.2,1.1-5.3c0.3-0.2,0.5-0.3,0.8-0.3c0,0,0.1,0,0.1,0
		c0,0.1,0,0.2,0.1,0.2c0,0.2,0,0.5,0.2,0.4c0.3-0.2,0.6-0.1,0.9-0.3c-0.1-0.2-0.3-0.1-0.4-0.1c0-0.1,0-0.1,0-0.2c0.3,0,0.6,0,0.8,0
		c1.3,0.2,2.1,1,2.5,2.2c0.1,0.2,0,0.5,0.2,0.6c0,0.5,0,1,0,1.5c-0.4,0-0.2,0.3-0.3,0.4c-0.3,0.4-0.5,0.8-0.8,1.2
		c-0.1,0.1-0.1,0.1-0.2,0.2c-0.1,0-0.3,0.1-0.4,0.3c0,0-0.1,0-0.1,0c0,0-0.1,0-0.1,0.1c0,0,0,0-0.1,0c-0.5-0.3-1.1-0.4-1.7-0.3
		c-0.4,0-0.9,0.1-1.2-0.1c-0.5-0.3-0.5,0-0.5,0.3c-0.1-0.1-0.3-0.1-0.4-0.2c-0.1,0-0.1-0.1-0.2-0.1C111,6.3,110.8,6.2,110.6,6z
		 M113.4,6.4c1.4,0,2.6-1.1,2.6-2.6c0-1.4-1-2.5-2.5-2.6c-1.4,0-2.6,1-2.6,2.6C110.8,5.1,112.1,6.4,113.4,6.4z M110.1,4.3
		c0.1-0.3,0.5-0.1,0.4-0.5c0-0.1-0.1-0.2-0.2-0.2C110,3.8,110.2,4,110.1,4.3z M116.7,4.5c0.1-0.3,0.2-0.5,0-0.9
		C116.5,4,116.5,4.2,116.7,4.5z"/>
	<path id="XMLID_300_" class="st1" d="M0,0.6c0,0,0.1,0,0.1,0c0,1.9,0,3.7,0,5.6c0,0-0.1,0-0.1,0C0,4.4,0,2.5,0,0.6z"/>
	<path id="XMLID_299_" class="st2" d="M116.8,8.5c0.1,0,0.2,0,0.2,0c0,1.2,0,2.4,0,3.5c-0.1,0-0.1,0-0.2,0
		C116.9,10.9,117,9.7,116.8,8.5z"/>
	<path id="XMLID_298_" class="st3" d="M56.5,30.1c0.2,0.4,0.2,0.8,0.2,1.2c0,1.3,0,2.5,0,3.8c0,0.7-0.3,1-0.9,1
		c-5.5,0-10.9,0.1-16.4,0c-3.3-0.1-5.8-1.8-7.7-4.3c-1-1.3-1.7-2.8-2-4.4c-0.5-3.3,0.3-6.3,2.5-8.8c0.3-0.3,0.3-0.5,0-0.8
		c-2.7-3.1-3.3-6.7-2-10.6c1.3-3.7,5-6.7,9-6.9c2.4-0.1,4.8,0,7.1-0.1c3,0,6.1,0,9.1,0c1,0,1.2,0.1,1.2,1.1c0,1.4,0,2.9,0,4.3
		c0,0.8-0.2,1-1,1c-2.6,0-5.2,0-7.8,0c-2.2,0-4.4,0-6.6,0c-2.1,0-3.9,1.4-4.3,3.3c-0.4,1.5,0.2,2.9,1.4,3.9c0.9,0.7,1.9,1.1,3.2,1.1
		c4.7,0,9.4,0,14.1,0c1,0,1.2,0.2,1.2,1.2c0,1.2,0,2.4,0,3.6c0,1.7,0,1.7-1.7,1.7c-4.7,0-9.4,0-14.1,0c-1.8,0-3.7,1.4-4.1,3.1
		c-0.5,1.9,0.3,3.6,2.2,4.6c0.6,0.3,1.2,0.5,1.9,0.6c0,0.5,0.4,0.3,0.6,0.3C46.5,30.1,51.5,30.1,56.5,30.1z"/>
	<path id="XMLID_297_" class="st4" d="M66.2,7.8c0,2.2,0,4.4,0,6.6c0,0.4,0.1,0.5,0.5,0.5c2.7,0,5.5,0,8.2,0c2.1,0,4-1.9,4-4
		c0-3.2,0-6.4,0-9.5c0-0.9,0.1-1,1-1.1c1.8-0.1,3.5,0,5.3,0c0.5,0,0.8,0.3,0.8,0.8c0,3.7,0,7.4-0.1,11.1C86,14.2,85,16,83.7,17.6
		c-0.3,0.4-0.4,0.6,0,1.2c1.6,1.9,2.5,4.1,2.5,6.7c0,3,0,6,0,9.1c0,1.6,0,1.6-1.7,1.6c-1.4,0-2.9,0-4.3,0c-1,0-1.2-0.2-1.2-1.1
		c0-3.1,0-6.2,0-9.4c0-2.3-2-4.2-4.3-4.2c-2.6,0-5.1,0-7.7,0c-1,0-0.9-0.1-0.9,0.8c0,4.2,0,8.4,0,12.7c0,1.1-0.1,1.2-1.2,1.2
		c-1.6,0-3.3,0-4.9,0c-0.8,0-1-0.2-1-1c0-11.3,0-22.6,0-33.9c0-0.8,0.2-1,1-1c1.8,0,3.5,0,5.3,0c0.7,0,0.9,0.3,0.9,1
		C66.2,3.4,66.2,5.6,66.2,7.8C66.2,7.8,66.2,7.8,66.2,7.8z"/>
	<path id="XMLID_296_" class="st3" d="M0.1,6.2c0-1.9,0-3.7,0-5.6c0.1-0.3,0.4-0.4,0.7-0.4c2.5-0.1,5.1-0.2,7.6,0.1
		c1.8,0.2,3.3,1,4.7,2.1c0.4,0.3,0.6,0.3,1,0C16,1,18.2,0.3,20.7,0.2c1.8,0,3.5,0,5.3,0c1,0,1.2,0.2,1.2,1.2c0,1.4,0,2.8,0,4.2
		c0,0.9-0.2,1-1,1c-1.5,0-3,0-4.5,0c-1.3,0-2.5,0.5-3.4,1.5C17.5,9,17.2,9.9,17.2,11c0,8,0,16,0,24c0,1-0.1,1.2-1.1,1.2
		c-1.7,0-3.3,0-5,0c-0.8,0-1-0.2-1-1c0-7.9,0-15.9,0-23.8c0-2.8-1.8-4.6-4.6-4.7c-1.5,0-2.9,0-4.4,0C0.6,6.7,0.3,6.6,0.1,6.2z"/>
	<path id="XMLID_295_" class="st3" d="M116.8,8.5c0.2,1.2,0.2,2.4,0,3.6c0,2.6-1.3,4.7-3.2,6.4c-1.6,1.6-3.6,2.7-5.8,2.8
		c-3.3,0.2-6.6,0.6-9.8-0.2c-4.3-1-6.9-3.9-8-8.2c-0.1-0.5-0.1-1.1-0.2-1.6c0-0.6,0-1.3,0-1.9c0-0.1,0-0.1,0-0.2
		c0-0.5,0.1-0.9,0.7-0.9c2,0,4,0,6,0c0,0,0.1,0.1,0.1,0.1c0.2,0.3,0.1,0.7,0.2,1c0,0.5-0.1,0.9,0.1,1.4c0,0.2,0,0.4,0.1,0.6
		c0,0.1,0,0.2,0.1,0.2c0,0.1,0.1,0.3,0.1,0.4c0,0,0,0,0,0l0,0c0,0,0,0,0,0c0.1,0.5,0.3,0.9,0.7,1.2c0,0,0.1,0.1,0.1,0.1
		c0.1,0.2,0.2,0.3,0.3,0.3c0.1,0.1,0.1,0.1,0.2,0.2c0.3,0.4,0.7,0.6,1.2,0.7c0.1,0,0.2,0.1,0.2,0.1c0.3,0.2,0.6,0.4,1,0.3
		c1.6,0.1,3.3,0.1,4.9,0c1.7-0.1,3.5-1.7,3.8-3.3c0,0,0-0.1,0.1-0.1c0-0.1,0-0.2,0-0.2c0.2-0.4,0.1-0.9,0.1-1.3
		c0-0.6-0.1-1.1,0.1-1.7c0,0,0,0,0,0c0.2-0.1,0.5-0.1,0.7-0.1c1.8,0,3.5,0,5.3,0c0.3,0,0.5,0,0.7,0.1C116.8,8.5,116.8,8.5,116.8,8.5
		z"/>
	<path id="XMLID_294_" class="st3" d="M99.9,29.2c0-1.9,0-3.9,0-5.8c0-0.9,0.2-1,1-1c1.7,0,3.4,0,5.1,0c0.8,0,0.9,0.1,0.9,0.9
		c0,3.6,0,7.2,0,10.8c0,0.4,0,0.8,0,1.2c0,0.5-0.2,0.9-0.8,0.9c-1.9,0-3.7,0-5.6,0c-0.6,0-0.8-0.3-0.8-1
		C99.9,33.2,99.9,31.2,99.9,29.2C99.9,29.2,99.9,29.2,99.9,29.2z"/>
	<path id="XMLID_291_" class="st5" d="M46.2,41.4c0-0.2,0-0.3,0-0.5c0-0.6,0.1-0.7,0.7-0.6c0.2,0,0.2,0.1,0.2,0.2
		c0,2.2,0.2,4.4-0.1,6.6c-0.2,1.7-1.6,2.7-3.3,2.6c-1.4,0-2.5-0.6-3.2-1.8c-0.1-0.2-0.4-0.5-0.1-0.7c0.3-0.1,0.7-0.2,0.9,0.3
		c0.3,0.6,0.7,1.1,1.4,1.2c2.2,0.6,3.6-0.7,3.4-2.8c-0.8,0.9-1.7,1.3-2.9,1.2c-1-0.1-1.8-0.5-2.4-1.2c-1.3-1.4-1.1-3.6,0.3-5
		C42.6,39.7,44.5,39.8,46.2,41.4z M40.9,43.7c0,1.6,1.1,2.8,2.6,2.8c1.5,0,2.7-1.2,2.7-2.7c0-1.5-1.2-2.8-2.6-2.8
		C42.1,40.9,40.9,42.2,40.9,43.7z"/>
	<path id="XMLID_288_" class="st5" d="M85.7,41.3c0-1,0-2,0-2.9c0-0.4,0.1-0.5,0.5-0.5c0.4,0,0.5,0.1,0.4,0.4c0,2.8,0,5.6,0,8.4
		c0,0.4-0.2,0.4-0.5,0.4c-0.3,0-0.5,0-0.5-0.4c0-0.2,0-0.4,0-0.7c-0.8,1-1.8,1.4-3,1.3c-1-0.1-1.8-0.5-2.5-1.2
		c-1.2-1.3-1.1-3.5,0.2-4.8C81.8,39.8,83.9,39.8,85.7,41.3z M83,40.9c-1.6,0-2.7,1.2-2.7,2.8c0,1.6,1.2,2.7,2.7,2.7
		c1.5,0,2.7-1.2,2.7-2.8C85.8,42.2,84.5,40.9,83,40.9z"/>
	<path id="XMLID_284_" class="st6" d="M66.2,46.1c-1.7,1.6-3.9,1.6-5.3,0.2c-1.3-1.3-1.4-3.5-0.1-4.9c1.4-1.6,3.5-1.6,5.4-0.1
		c0.2-0.1,0.1-0.3,0.1-0.4c0-0.3-0.1-0.6,0.4-0.6c0.5,0,0.5,0.2,0.5,0.6c0,1.9,0,3.8,0,5.7c0,0.3,0.1,0.6-0.4,0.6
		c-0.6,0-0.4-0.3-0.5-0.6C66.2,46.4,66.2,46.3,66.2,46.1z M66.2,43.7c0-1.6-1.2-2.8-2.7-2.8c-1.6,0-2.8,1.3-2.8,2.8
		c0,1.5,1.2,2.7,2.8,2.7C65,46.5,66.2,45.2,66.2,43.7z M66.2,41.3C66.2,41.3,66.2,41.3,66.2,41.3C66.2,41.3,66.1,41.3,66.2,41.3
		C66.2,41.4,66.2,41.4,66.2,41.3C66.2,41.3,66.2,41.3,66.2,41.3z"/>
	<path id="XMLID_281_" class="st5" d="M20.4,40.1c2,0,3.5,1.6,3.5,3.6c0,1.9-1.6,3.5-3.6,3.5c-2,0-3.6-1.6-3.6-3.6
		C16.8,41.7,18.3,40.1,20.4,40.1z M23,43.7c0-1.5-1.2-2.7-2.7-2.7c-1.4,0-2.6,1.3-2.7,2.8c0,1.4,1.3,2.7,2.7,2.7
		C21.8,46.5,23,45.3,23,43.7z"/>
	<path id="XMLID_278_" class="st5" d="M91.5,40.1c1.9,0,3.6,1.6,3.6,3.5c0,2-1.6,3.6-3.6,3.6c-1.9,0-3.5-1.6-3.5-3.5
		C87.9,41.7,89.4,40.1,91.5,40.1z M91.4,40.9c-1.5,0-2.7,1.3-2.7,2.8c0,1.4,1.3,2.7,2.7,2.7c1.5,0,2.7-1.3,2.6-2.8
		C94.1,42.2,92.9,40.9,91.4,40.9z"/>
	<path id="XMLID_277_" class="st7" d="M30.2,46.2c-0.9,1-2.1,1.3-3.3,0.9c-1.2-0.4-1.7-1.3-1.8-2.5c-0.1-1.3,0-2.6-0.1-3.9
		c0-0.4,0.1-0.5,0.5-0.5c0.4,0,0.5,0.1,0.5,0.5c0,1.3,0,2.6,0,3.9c0.1,1.1,0.7,1.7,1.8,1.8c1.1,0.1,2-0.6,2.2-1.6
		c0.2-1.2,0.1-2.3,0.1-3.5c0-0.2,0-0.3,0-0.5c0-0.4,0-0.5,0.5-0.5c0.4,0,0.5,0.2,0.5,0.5c0,1.9,0,3.9,0,5.8c0,0.3,0,0.5-0.5,0.5
		c-0.4,0-0.5-0.1-0.4-0.5C30.3,46.6,30.2,46.4,30.2,46.2z"/>
	<path id="XMLID_276_" class="st6" d="M33.6,41.1c1-1.1,2.2-1.2,3.4-0.7c1.3,0.5,1.7,1.7,1.7,3c0,1.1,0,2.2,0,3.4
		c0,0.4-0.2,0.4-0.5,0.4c-0.3,0-0.5,0-0.5-0.4c0-1.1,0-2.3,0-3.4c0-1.4-0.8-2.3-2-2.3c-1.2-0.1-2.2,0.8-2.2,2.1c0,1.2,0,2.4,0,3.6
		c0,0.4-0.1,0.5-0.5,0.5c-0.4,0-0.5-0.1-0.5-0.5c0-1.9,0-3.8,0-5.6c0-0.3-0.3-0.7,0.4-0.7C33.7,40.3,33.6,40.6,33.6,41.1z"/>
	<path id="XMLID_275_" class="st6" d="M69.5,41.1c1-1.1,2.1-1.1,3.3-0.7c1.2,0.4,1.7,1.4,1.8,2.6c0.1,1.3,0,2.6,0.1,3.9
		c0,0.4-0.3,0.3-0.5,0.3c-0.3,0-0.5,0-0.5-0.4c0-1.1,0-2.1,0-3.2c0-0.2,0-0.5,0-0.7c-0.1-1.2-1-2-2.1-1.9c-1.1,0-2,0.9-2,2.1
		c0,1.2,0,2.4,0,3.6c0,0.4-0.1,0.5-0.5,0.5c-0.4,0-0.5-0.1-0.4-0.5c0-1.9,0-3.8,0-5.6c0-0.3-0.2-0.7,0.4-0.7
		C69.7,40.3,69.5,40.6,69.5,41.1z"/>
	<path id="XMLID_274_" class="st5" d="M10.1,38c0.9-0.3,1.2,0.1,1.5,0.8c0.6,1.4,1.4,2.8,2.1,4.2c0.6-1.2,1.2-2.3,1.8-3.4
		c0.2-0.5,0.5-0.9,0.7-1.4c0.1-0.2,0.9-0.4,1.1-0.3c0.2,0.2,0,0.3-0.1,0.4c-0.9,1.7-1.8,3.4-2.7,5c-0.3,0.5-0.4,1-0.4,1.6
		c0,0.6,0,1.3,0,1.9c0,0.4-0.2,0.3-0.5,0.3c-0.2,0-0.5,0.1-0.5-0.3c0-0.1,0-0.1,0-0.2c0.3-1.8-0.3-3.4-1.3-5
		C11.3,40.5,10.7,39.2,10.1,38z"/>
	<path id="XMLID_273_" class="st5" d="M58.9,42.4c-0.5,0.1-0.9,0.1-1.3-0.5c-0.6-0.9-2-1.2-3.1-0.7c-1.1,0.5-1.9,1.7-1.7,2.9
		c0.1,1.2,1.1,2.2,2.2,2.4c1.1,0.2,2.1-0.1,2.8-1.1C58,45,58,45,58.8,45.1c-0.4,1.5-2.1,2.4-4,2.1c-1.6-0.2-3-1.8-3-3.4
		c0-1.8,1.3-3.3,3.1-3.6C56.6,39.9,58.3,40.8,58.9,42.4z"/>
	<path id="XMLID_272_" class="st5" d="M104.4,37.9c0.7,0,1.4,0,2.2,0c0.4,0,0.4,0.1,0.4,0.5c0,0.4-0.1,0.4-0.5,0.4
		c-0.4,0-0.8,0-1.2,0c-0.4,0-0.5,0.1-0.5,0.5c0,2.5,0,4.9,0,7.4c0,0.4-0.1,0.5-0.5,0.5c-0.4,0-0.5-0.1-0.4-0.5c0-2.4,0-4.7,0-7.1
		c0-0.8,0-0.8-0.8-0.8c-0.3,0-0.5,0-0.8,0c-0.3,0-0.5,0-0.5-0.4c0-0.4,0.2-0.5,0.5-0.5C103,37.9,103.7,37.9,104.4,37.9z"/>
	<path id="XMLID_271_" class="st0" d="M90.8,1.4c0.8-1.1,2.6-1.5,3.9-0.9c1.9,0.8,2.7,2.7,2,4.6c-0.1,0.2-0.1,0.3-0.2,0.5
		c0,0-0.1,0.1-0.1,0.1c0,0,0,0,0,0c0,0-0.1,0-0.1,0c-0.4-0.3-0.6,0.1-1,0.2c0.3,0,0.6,0,0.9,0.1c0,0.1,0,0.1-0.1,0.2
		C96,6.1,96,6.2,95.9,6.3c0,0,0,0,0,0c-0.3,0.1-0.5,0.4-0.8,0.6c-0.1,0-0.2,0-0.3,0.1c-0.1-0.3-0.6,0-0.6-0.4
		c0.2-0.1,0.5,0.1,0.6-0.2c0-0.1-0.1-0.2-0.2-0.2c0.4-0.2,0.7-0.6,1-0.9c1.1-1.8-0.1-3.6-1.6-3.9c-0.4-0.3-1.1-0.3-1.4,0
		c-0.4,0.3-0.9,0.6-1.3,0.9c0,0-0.1,0-0.1,0c0-0.4,0.5-0.5,0.5-0.9c0.2,0,0.5,0.1,0.6-0.3c0-0.1-0.1-0.2-0.2-0.2
		c-0.2,0-0.5,0-0.5,0.3C91.3,1.3,91.1,1.4,90.8,1.4z"/>
	<path id="XMLID_270_" class="st7" d="M100.9,42.5c0,1.4,0,2.8,0,4.2c0,0.4-0.2,0.5-0.5,0.5c-0.3,0-0.5,0-0.5-0.4c0-2.8,0-5.5,0-8.3
		c0-0.4,0.1-0.5,0.5-0.5c0.4,0,0.5,0,0.5,0.5C100.9,39.7,100.9,41.1,100.9,42.5z"/>
	<path id="XMLID_269_" class="st8" d="M90.8,1.4c0.3-0.1,0.5-0.2,0.8-0.2c0,0,0,0.1,0,0.1c0,0.4-0.5,0.5-0.5,0.9
		c-0.7,1.2-0.8,2.3,0.1,3.3c0.2,0.3,0.3,0.7,0.6,0.7c0.5,0.1,0.9,0.4,1.4,0.3c0.4,0.5,1,0.5,1.6,0.5c-0.3,0.3-0.6,0.2-0.9,0.3
		c-0.8,0-1.5-0.1-2.2-0.3c0,0,0,0,0,0c-0.1-0.2-0.3-0.2-0.5-0.3c-0.1-0.1-0.1-0.2-0.2-0.3c0,0,0.1,0,0.1-0.1c0,0-0.1,0-0.1,0
		c0,0,0,0,0,0c0.1-0.1,0.3-0.3,0-0.4c-0.2,0-0.2-0.2-0.2-0.3c0-0.4-0.3-0.2-0.4-0.1c-0.5-1.1-0.6-2.1,0-3.2c0,0.2-0.1,0.5,0.2,0.7
		c-0.1-0.2,0.3-0.6-0.2-0.7C90.3,1.9,90.5,1.6,90.8,1.4z"/>
	<path id="XMLID_268_" class="st9" d="M56.5,30.1c-5,0-10,0-15,0c-0.2,0-0.6,0.2-0.6-0.3c3.1,0,6.2,0,9.4,0c1.8,0,3.7,0,5.5,0
		C56.1,29.7,56.4,29.7,56.5,30.1z"/>
	<path id="XMLID_267_" class="st10" d="M96.6,8.3c-2,0-4,0-6,0c-0.6,0-0.7,0.5-0.7,0.9c-0.3-0.3-0.2-0.9,0.2-1
		c0.5-0.1,0.9-0.3,1.4-0.3c1.5,0,3.1,0,4.6,0C96.4,8,96.7,7.9,96.6,8.3z"/>
	<path id="XMLID_266_" class="st10" d="M116.8,8.4c-0.2-0.1-0.5-0.1-0.7-0.1c-1.8,0-3.5,0-5.3,0c-0.3,0-0.5,0.1-0.7,0.1
		c0.2-0.4,0.5-0.6,1-0.4c0.3,0.1,0.5-0.1,0.7-0.1c1.5,0,3,0,4.5,0C116.6,7.9,116.8,8,116.8,8.4z"/>
	<path id="XMLID_265_" class="st2" d="M111.7,6.9c0-0.3,0-0.6,0.5-0.3c0.3,0.2,0.8,0.1,1.2,0.1c0.6,0,1.2,0.1,1.7,0.3
		c0,0.2-0.2,0.1-0.3,0.1c-0.7,0.1-1.3-0.3-2-0.2c-0.3,0-0.5,0-0.4,0.4c-0.1,0-0.1,0-0.2,0C112.1,7,111.9,7,111.8,7
		C111.8,7,111.7,6.9,111.7,6.9z"/>
	<path id="XMLID_264_" class="st0" d="M112.4,7.2c0-0.3,0.2-0.3,0.4-0.4c0.7-0.1,1.3,0.4,2,0.2c-0.2,0.2-0.5,0.2-0.8,0.3
		C113.5,7.3,113,7.3,112.4,7.2C112.4,7.2,112.4,7.2,112.4,7.2z"/>
	<path id="XMLID_263_" class="st10" d="M110,8.4c-0.2,0.5-0.1,1.1-0.1,1.7c0,0.4,0.1,0.9-0.1,1.3c-0.2-0.9-0.1-1.8,0-2.7
		C109.8,8.6,109.8,8.4,110,8.4z"/>
	<path id="XMLID_262_" class="st10" d="M97,10.8c-0.2-0.5-0.1-0.9-0.1-1.4c0-0.3,0-0.7-0.2-1c0.3,0.1,0.5,0.2,0.4,0.6
		C97,9.6,97.2,10.2,97,10.8z"/>
	<path id="XMLID_261_" class="st2" d="M94.8,7c-0.6,0-1.2,0-1.6-0.5c0.3,0,0.7,0,1,0C94.3,7,94.8,6.7,94.8,7C94.8,7,94.8,7,94.8,7z"
		/>
	<path id="XMLID_260_" class="st10" d="M89.9,9.4c0,0.6,0,1.3,0,1.9c-0.1,0-0.2-0.1-0.2-0.2c0-0.5,0-1,0-1.5
		C89.7,9.5,89.8,9.5,89.9,9.4z"/>
	<path id="XMLID_259_" class="st10" d="M91.7,7c0.7,0.2,1.5,0.3,2.2,0.3c-0.7,0.1-1.3,0.3-2,0C91.7,7.2,91.6,7.2,91.7,7z"/>
	<path id="XMLID_258_" class="st11" d="M90.2,5.4c0.2-0.1,0.4-0.2,0.4,0.1c0,0.2,0.1,0.3,0.2,0.3c0.3,0.1,0.1,0.2,0,0.4
		C90.6,6.1,90.4,5.8,90.2,5.4z"/>
	<path id="XMLID_257_" class="st10" d="M115.9,6.3c0.3-0.4,0.5-0.8,0.8-1.2C116.8,5.9,116.6,6.1,115.9,6.3z"/>
	<path id="XMLID_256_" class="st10" d="M99.7,14.6c-0.5-0.1-0.9-0.3-1.2-0.7C99,14,99.5,14.1,99.7,14.6z"/>
	<path id="XMLID_255_" class="st10" d="M101,15c-0.4,0-0.7-0.1-1-0.3C100.4,14.4,100.7,14.7,101,15z"/>
	<path id="XMLID_254_" class="st9" d="M114.3,0.4c-0.3,0-0.6,0-0.8,0c-0.3,0-0.5,0-0.8,0c0,0-0.1,0-0.1,0
		C113.1,0.2,113.7,0.1,114.3,0.4z"/>
	<path id="XMLID_253_" class="st10" d="M97.9,13.3c-0.4-0.3-0.6-0.7-0.7-1.2C97.5,12.4,97.8,12.8,97.9,13.3z"/>
	<path id="XMLID_252_" class="st2" d="M96.2,5.9c-0.3,0-0.6,0-0.9-0.1c0.3-0.1,0.6-0.4,1-0.2C96.3,5.8,96.3,5.8,96.2,5.9
		C96.3,5.9,96.2,5.9,96.2,5.9z"/>
	<path id="XMLID_251_" class="st10" d="M112.4,7.2c0.5,0,1.1,0,1.6,0c-0.4,0.1-0.9,0.1-1.3,0.2C112.6,7.5,112.4,7.4,112.4,7.2z"/>
	<path id="XMLID_250_" class="st10" d="M95.2,6.9c0.3-0.2,0.5-0.5,0.8-0.6C95.9,6.8,95.6,7,95.2,6.9z"/>
	<path id="XMLID_249_" class="st10" d="M110.6,6c0.2,0.1,0.4,0.3,0.5,0.5C110.6,6.6,110.6,6.3,110.6,6z"/>
	<path id="XMLID_248_" class="st10" d="M91.2,6.6c0.2,0.1,0.4,0.1,0.5,0.3C91.3,7.1,91.2,7,91.2,6.6z"/>
	<path id="XMLID_247_" class="st10" d="M111.7,6.9c0,0.1,0,0.1,0,0.2c-0.3,0-0.5,0.1-0.5-0.3C111.4,6.7,111.6,6.8,111.7,6.9z"/>
	<path id="XMLID_246_" class="st10" d="M111.8,7c0.2,0,0.3,0,0.4,0.2C112,7.3,111.8,7.4,111.8,7z"/>
	<path id="XMLID_245_" class="st10" d="M98.4,13.8c-0.2-0.1-0.3-0.2-0.3-0.3C98.3,13.4,98.4,13.5,98.4,13.8z"/>
	<path id="XMLID_244_" class="st10" d="M115.4,6.8c0.1-0.1,0.2-0.2,0.4-0.3C115.7,6.8,115.6,6.8,115.4,6.8z"/>
	<path id="XMLID_243_" class="st10" d="M95.9,6.3c0-0.1,0.1-0.2,0.2-0.3C96.2,6.3,96.1,6.4,95.9,6.3z"/>
	<path id="XMLID_242_" class="st10" d="M97.1,11.6c-0.1-0.1-0.1-0.1-0.1-0.2C97.2,11.4,97.3,11.5,97.1,11.6z"/>
	<path id="XMLID_241_" class="st10" d="M96.3,5.9c0-0.1,0-0.1,0-0.2c0,0,0.1,0,0.1,0C96.4,5.8,96.3,5.8,96.3,5.9z"/>
	<path id="XMLID_240_" class="st11" d="M91,6.3C91,6.3,91.1,6.3,91,6.3C91.1,6.3,91,6.3,91,6.3C91,6.3,91,6.3,91,6.3z"/>
	<path id="XMLID_239_" class="st10" d="M96.4,5.7c0,0,0.1-0.1,0.1-0.1C96.5,5.6,96.5,5.6,96.4,5.7z"/>
	<path id="XMLID_238_" class="st2" d="M115.2,6.9C115.2,6.8,115.2,6.8,115.2,6.9C115.2,6.8,115.2,6.9,115.2,6.9z"/>
	<path id="XMLID_237_" class="st10" d="M109.8,11.6c0,0,0,0.1-0.1,0.1C109.7,11.7,109.7,11.7,109.8,11.6z"/>
	<path id="XMLID_236_" class="st10" d="M97.2,12L97.2,12C97.2,12,97.2,12,97.2,12C97.2,12,97.2,12,97.2,12z"/>
	<path id="XMLID_235_" class="st12" d="M113.4,6.4c-1.3,0-2.6-1.3-2.6-2.5c0-1.6,1.2-2.6,2.6-2.6c1.5,0,2.5,1.1,2.5,2.6
		C116,5.2,114.8,6.4,113.4,6.4z"/>
	<path id="XMLID_234_" class="st2" d="M113.5,0.6c0.1,0,0.3,0,0.4,0.1C113.6,1,113.2,0.9,113,1c-0.2,0.1-0.1-0.2-0.2-0.4
		C113,0.6,113.2,0.6,113.5,0.6z"/>
	<path id="XMLID_233_" class="st11" d="M110.1,4.3c0-0.3-0.1-0.5,0.1-0.7c0.1-0.1,0.2,0.1,0.2,0.2C110.6,4.2,110.3,4.1,110.1,4.3z"
		/>
	<path id="XMLID_232_" class="st13" d="M116.7,4.5c-0.2-0.2-0.2-0.5,0-0.9C116.8,3.9,116.8,4.2,116.7,4.5z"/>
	<path id="XMLID_231_" class="st13" d="M113.5,0.6c-0.2,0-0.5,0-0.7,0c-0.1,0-0.1-0.1-0.1-0.2c0.3,0,0.5,0,0.8,0
		C113.5,0.5,113.5,0.6,113.5,0.6z"/>
	<path id="XMLID_230_" class="st14" d="M40.9,43.7c0-1.5,1.2-2.7,2.7-2.7c1.5,0,2.7,1.3,2.6,2.8c0,1.5-1.3,2.7-2.7,2.7
		C42.1,46.5,40.9,45.2,40.9,43.7z"/>
	<path id="XMLID_229_" class="st14" d="M83,40.9c1.5,0,2.7,1.2,2.7,2.8c0,1.5-1.2,2.8-2.7,2.8c-1.6,0-2.7-1.2-2.7-2.7
		C80.3,42.1,81.5,41,83,40.9z"/>
	<path id="XMLID_228_" class="st14" d="M66.2,43.7c0,1.5-1.2,2.7-2.7,2.8c-1.6,0-2.8-1.2-2.8-2.7c0-1.6,1.2-2.8,2.8-2.8
		C65,40.9,66.2,42.2,66.2,43.7z"/>
	<path id="XMLID_227_" class="st15" d="M66.2,41.3C66.2,41.3,66.2,41.3,66.2,41.3C66.2,41.4,66.2,41.4,66.2,41.3
		C66.1,41.3,66.2,41.3,66.2,41.3C66.2,41.3,66.2,41.3,66.2,41.3z"/>
	<path id="XMLID_226_" class="st14" d="M23,43.7c0,1.6-1.2,2.8-2.7,2.8c-1.4,0-2.7-1.3-2.7-2.7c0-1.5,1.2-2.8,2.7-2.8
		C21.8,40.9,23,42.2,23,43.7z"/>
	<path id="XMLID_225_" class="st14" d="M91.4,40.9c1.4,0,2.7,1.2,2.7,2.7c0,1.6-1.2,2.8-2.6,2.8c-1.4,0-2.7-1.2-2.7-2.7
		C88.7,42.3,90,41,91.4,40.9z"/>
	<path id="XMLID_224_" class="st12" d="M91.2,2.2c0.4-0.3,0.9-0.6,1.3-0.9c0.5,0,0.9,0,1.4,0c1.5,0.3,2.7,2,1.6,3.9
		c-0.2,0.4-0.6,0.7-1,0.9c0,0-0.1,0-0.1,0c-0.1,0-0.2,0-0.2,0C93,6.6,91.6,6,91.1,4.8C90.7,3.9,90.9,3.1,91.2,2.2z"/>
	<path id="XMLID_223_" class="st11" d="M91.2,2.2c-0.3,0.8-0.5,1.7-0.1,2.6C91.6,6,93,6.6,94.2,6.2c0.1,0,0.1,0,0.2,0
		c0,0.2,0.2,0.2,0.3,0.2c-0.1,0.4-0.4,0.2-0.6,0.2c-0.3,0-0.7,0-1,0c-0.5,0.1-0.9-0.2-1.4-0.3c-0.3,0-0.4-0.5-0.6-0.7
		C90.4,4.6,90.4,3.4,91.2,2.2C91.2,2.2,91.2,2.2,91.2,2.2z"/>
	<path id="XMLID_222_" class="st13" d="M93.9,1.3c-0.5,0-0.9,0-1.4,0C92.8,1,93.5,1,93.9,1.3z"/>
	<path id="XMLID_221_" class="st2" d="M91.6,1.3c0,0,0-0.1,0-0.1c0-0.4,0.2-0.4,0.5-0.3c0.1,0,0.2,0.1,0.2,0.2
		C92.2,1.4,91.9,1.3,91.6,1.3z"/>
	<path id="XMLID_220_" class="st2" d="M94.8,6.4c-0.2,0-0.3,0-0.3-0.2c0,0,0.1,0,0.1,0C94.7,6.2,94.8,6.2,94.8,6.4z"/>
	<path id="XMLID_219_" class="st13" d="M90.2,2.2c0.5,0.2,0.1,0.5,0.2,0.7C90.1,2.8,90.3,2.5,90.2,2.2C90.2,2.2,90.2,2.2,90.2,2.2z"
		/>
</g>
</svg>
