<?xml version="1.0" encoding="utf-8"?>
<!-- Generator: Adobe Illustrator 19.0.0, SVG Export Plug-In . SVG Version: 6.00 Build 0)  -->
<svg version="1.1" id="Layer_1" xmlns="http://www.w3.org/2000/svg" xmlns:xlink="http://www.w3.org/1999/xlink" x="0px" y="0px"
	 viewBox="0 0 16 13" style="enable-background:new 0 0 16 13;" xml:space="preserve">
<style type="text/css">
	.st0{clip-path:url(#SVGID_2_);}
	.st1{clip-path:url(#SVGID_4_);fill:#FFFFFF;}
	.st2{clip-path:url(#SVGID_6_);}
	.st3{clip-path:url(#SVGID_8_);fill:#5EC2A8;}
	.st4{clip-path:url(#XMLID_14_);}
	.st5{clip-path:url(#XMLID_15_);fill:#FFFFFF;}
	.st6{clip-path:url(#XMLID_16_);}
	.st7{clip-path:url(#XMLID_17_);fill:#5EC2A8;}
</style>
<g>
	<defs>
		<path id="SVGID_1_" d="M-575.9,2415.2c0,0.6-0.5,1.1-1.1,1.1H-589c-0.6,0-1.1-0.5-1.1-1.1v-8.2c0-0.6,0.5-1.1,1.1-1.1h12.1
			c0.6,0,1.1,0.5,1.1,1.1L-575.9,2415.2L-575.9,2415.2z M-577,2405H-589c-1.1,0-2,0.9-2,2v8.3c0,1.1,0.9,2,2,2h12.1c1.1,0,2-0.9,2-2
			v-8.2C-575,2405.9-575.9,2405-577,2405z"/>
	</defs>
	<clipPath id="SVGID_2_">
		<use xlink:href="#SVGID_1_"  style="overflow:visible;"/>
	</clipPath>
	<g class="st0">
		<defs>
			<rect id="SVGID_3_" x="-713" y="-2697" width="1442" height="5406"/>
		</defs>
		<clipPath id="SVGID_4_">
			<use xlink:href="#SVGID_3_"  style="overflow:visible;"/>
		</clipPath>
		<rect x="-596" y="2400" class="st1" width="26" height="22.2"/>
	</g>
</g>
<g>
	<defs>
		<path id="SVGID_5_" d="M-580.9,2411l3.9-3.5c0.2-0.2,0.2-0.4,0-0.6c-0.2-0.2-0.4-0.2-0.6,0l-5.4,4.8l-1.1-0.9c0,0,0,0,0,0
			c0,0,0,0-0.1-0.1l-4.3-3.8c-0.2-0.2-0.5-0.1-0.6,0c-0.2,0.2-0.1,0.5,0,0.6l4,3.5l-3.9,3.7c-0.2,0.2-0.2,0.4,0,0.6
			c0.1,0.1,0.2,0.1,0.3,0.1c0.1,0,0.2,0,0.3-0.1l4-3.7l1.1,1c0.1,0.1,0.2,0.1,0.3,0.1s0.2,0,0.3-0.1l1.1-1l4,3.8
			c0.1,0.1,0.2,0.1,0.3,0.1c0.1,0,0.2,0,0.3-0.1c0.2-0.2,0.2-0.5,0-0.6L-580.9,2411z"/>
	</defs>
	<clipPath id="SVGID_6_">
		<use xlink:href="#SVGID_5_"  style="overflow:visible;"/>
	</clipPath>
	<g class="st2">
		<defs>
			<rect id="SVGID_7_" x="-713" y="-2697" width="1442" height="5406"/>
		</defs>
		<clipPath id="SVGID_8_">
			<use xlink:href="#SVGID_7_"  style="overflow:visible;"/>
		</clipPath>
		<rect x="-594.2" y="2401.7" class="st3" width="22.3" height="18.8"/>
	</g>
</g>
<g id="XMLID_7_">
	<defs>
		<path id="XMLID_8_" d="M15.1,10.6c0,0.6-0.5,1.1-1.1,1.1H2c-0.6,0-1.1-0.5-1.1-1.1V2.4c0-0.6,0.5-1.1,1.1-1.1H14
			c0.6,0,1.1,0.5,1.1,1.1L15.1,10.6L15.1,10.6z M14,0.4H2c-1.1,0-2,0.9-2,2v8.3c0,1.1,0.9,2,2,2H14c1.1,0,2-0.9,2-2V2.4
			C16,1.3,15.1,0.4,14,0.4z"/>
	</defs>
	<clipPath id="XMLID_14_">
		<use xlink:href="#XMLID_8_"  style="overflow:visible;"/>
	</clipPath>
	<g id="XMLID_11_" class="st4">
		<defs>
			<rect id="XMLID_12_" x="-122" y="-5101.6" width="1442" height="5406"/>
		</defs>
		<clipPath id="XMLID_15_">
			<use xlink:href="#XMLID_12_"  style="overflow:visible;"/>
		</clipPath>
		<rect id="XMLID_13_" x="-5" y="-4.6" class="st5" width="26" height="22.2"/>
	</g>
</g>
<g id="XMLID_2_">
	<defs>
		<path id="XMLID_3_" d="M10.1,6.4L14,2.9c0.2-0.2,0.2-0.4,0-0.6c-0.2-0.2-0.4-0.2-0.6,0L8,7.1L6.9,6.1c0,0,0,0,0,0c0,0,0,0-0.1-0.1
			L2.6,2.2C2.4,2.1,2.1,2.1,2,2.3C1.8,2.4,1.8,2.7,2,2.9l4,3.5L2,10.1c-0.2,0.2-0.2,0.4,0,0.6c0.1,0.1,0.2,0.1,0.3,0.1
			c0.1,0,0.2,0,0.3-0.1l4-3.7l1.1,1C7.8,8.1,7.9,8.1,8,8.1c0.1,0,0.2,0,0.3-0.1l1.1-1l4,3.8c0.1,0.1,0.2,0.1,0.3,0.1
			c0.1,0,0.2,0,0.3-0.1c0.2-0.2,0.2-0.5,0-0.6L10.1,6.4z"/>
	</defs>
	<clipPath id="XMLID_16_">
		<use xlink:href="#XMLID_3_"  style="overflow:visible;"/>
	</clipPath>
	<g id="XMLID_4_" class="st6">
		<defs>
			<rect id="XMLID_5_" x="-122" y="-5101.6" width="1442" height="5406"/>
		</defs>
		<clipPath id="XMLID_17_">
			<use xlink:href="#XMLID_5_"  style="overflow:visible;"/>
		</clipPath>
		<rect id="XMLID_6_" x="-3.2" y="-2.9" class="st7" width="22.3" height="18.8"/>
	</g>
</g>
</svg>
