<?xml version="1.0" encoding="utf-8"?>
<!-- Generator: Adobe Illustrator 19.0.0, SVG Export Plug-In . SVG Version: 6.00 Build 0)  -->
<svg version="1.1" id="Layer_1" xmlns="http://www.w3.org/2000/svg" xmlns:xlink="http://www.w3.org/1999/xlink" x="0px" y="0px"
	 viewBox="0 0 12 16" style="enable-background:new 0 0 12 16;" xml:space="preserve">
<style type="text/css">
	.st0{clip-path:url(#XMLID_16_);}
	.st1{clip-path:url(#XMLID_17_);fill:#5EC2A8;}
	.st2{clip-path:url(#XMLID_18_);}
	.st3{clip-path:url(#XMLID_19_);fill:#FFFFFF;}
</style>
<g id="XMLID_9_">
	<defs>
		<path id="XMLID_10_" d="M6.1,7C5.3,7,4.6,6.4,4.6,5.6c0-0.8,0.7-1.5,1.5-1.5s1.5,0.7,1.5,1.5C7.5,6.4,6.9,7,6.1,7z M6.1,3.5
			c-1.1,0-2,0.9-2,2s0.9,2,2,2s2-0.9,2-2S7.2,3.5,6.1,3.5z"/>
	</defs>
	<clipPath id="XMLID_16_">
		<use xlink:href="#XMLID_10_"  style="overflow:visible;"/>
	</clipPath>
	<g id="XMLID_13_" class="st0">
		<defs>
			<rect id="XMLID_14_" x="-123.6" y="-5022" width="1442" height="5406"/>
		</defs>
		<clipPath id="XMLID_17_">
			<use xlink:href="#XMLID_14_"  style="overflow:visible;"/>
		</clipPath>
		<rect id="XMLID_15_" x="-1" y="-1.5" class="st1" width="14.1" height="14.1"/>
	</g>
</g>
<g id="XMLID_2_">
	<defs>
		<path id="XMLID_3_" d="M10,9.2l-4,5.8L2,9.2c-1.5-2-1.3-5.3,0.5-7.1C3.4,1.1,4.7,0.6,6,0.6s2.6,0.5,3.5,1.5
			C11.3,3.8,11.5,7.2,10,9.2z M9.9,1.7C8.9,0.6,7.5,0,6,0C4.5,0,3.1,0.6,2.1,1.7C0.1,3.6-0.1,7.3,1.5,9.5L6,16l4.5-6.4
			C12.1,7.3,11.9,3.6,9.9,1.7z"/>
	</defs>
	<clipPath id="XMLID_18_">
		<use xlink:href="#XMLID_3_"  style="overflow:visible;"/>
	</clipPath>
	<g id="XMLID_6_" class="st2">
		<defs>
			<rect id="XMLID_7_" x="-123.6" y="-5022" width="1442" height="5406"/>
		</defs>
		<clipPath id="XMLID_19_">
			<use xlink:href="#XMLID_7_"  style="overflow:visible;"/>
		</clipPath>
		<rect id="XMLID_8_" x="-4.6" y="-5" class="st3" width="21.2" height="25.9"/>
	</g>
</g>
</svg>
