<?xml version="1.0" encoding="utf-8"?>
<!-- Generator: Adobe Illustrator 19.0.0, SVG Export Plug-In . SVG Version: 6.00 Build 0)  -->
<svg version="1.1" id="Layer_1" xmlns="http://www.w3.org/2000/svg" xmlns:xlink="http://www.w3.org/1999/xlink" x="0px" y="0px"
	 viewBox="0 0 150 126" style="enable-background:new 0 0 150 126;" xml:space="preserve">
<style type="text/css">
	.st0{clip-path:url(#XMLID_125_);}
	.st1{clip-path:url(#XMLID_126_);fill:#5EC2A8;}
	.st2{clip-path:url(#XMLID_127_);}
	.st3{clip-path:url(#XMLID_128_);fill:#5EC2A8;}
	.st4{clip-path:url(#XMLID_129_);}
	.st5{clip-path:url(#XMLID_130_);fill:#5EC2A8;}
	.st6{clip-path:url(#XMLID_131_);}
	.st7{clip-path:url(#XMLID_132_);fill:#5EC2A8;}
	.st8{clip-path:url(#XMLID_133_);}
	.st9{clip-path:url(#XMLID_134_);enable-background:new    ;}
	.st10{clip-path:url(#XMLID_135_);}
	.st11{clip-path:url(#XMLID_136_);}
	.st12{clip-path:url(#XMLID_137_);fill:#5EC2A8;}
	.st13{clip-path:url(#XMLID_138_);}
	.st14{clip-path:url(#XMLID_139_);enable-background:new    ;}
	.st15{clip-path:url(#XMLID_140_);}
	.st16{clip-path:url(#XMLID_141_);}
	.st17{clip-path:url(#XMLID_142_);fill:#5EC2A8;}
	.st18{clip-path:url(#XMLID_143_);}
	.st19{clip-path:url(#XMLID_144_);fill:#5EC2A8;}
	.st20{clip-path:url(#XMLID_145_);}
	.st21{clip-path:url(#XMLID_146_);fill:#5EC2A8;}
	.st22{clip-path:url(#XMLID_147_);}
	.st23{clip-path:url(#XMLID_148_);fill:#5EC2A8;}
	.st24{clip-path:url(#XMLID_149_);}
	.st25{clip-path:url(#XMLID_150_);fill:#5EC2A8;}
	.st26{clip-path:url(#XMLID_151_);}
	.st27{clip-path:url(#XMLID_152_);fill:#5EC2A8;}
	.st28{clip-path:url(#XMLID_153_);}
	.st29{clip-path:url(#XMLID_154_);fill:#5EC2A8;}
	.st30{clip-path:url(#XMLID_155_);}
	.st31{clip-path:url(#XMLID_156_);fill:#5EC2A8;}
	.st32{clip-path:url(#XMLID_157_);}
	.st33{clip-path:url(#XMLID_158_);fill:#5EC2A8;}
	.st34{clip-path:url(#XMLID_159_);}
	.st35{clip-path:url(#XMLID_160_);fill:#5EC2A8;}
	.st36{clip-path:url(#XMLID_161_);}
	.st37{clip-path:url(#XMLID_162_);fill:#5EC2A8;}
	.st38{clip-path:url(#XMLID_163_);}
	.st39{clip-path:url(#XMLID_164_);fill:#5EC2A8;}
</style>
<g id="XMLID_118_">
	<defs>
		<path id="XMLID_119_" d="M39.9,55.6H101v67.5H39.9V55.6z M37.6,125.5h65.8V53.2H37.6V125.5z"/>
	</defs>
	<clipPath id="XMLID_125_">
		<use xlink:href="#XMLID_119_"  style="overflow:visible;"/>
	</clipPath>
	<g id="XMLID_122_" class="st0">
		<defs>
			<rect id="XMLID_123_" x="-644.6" y="-667.2" width="1440" height="1519"/>
		</defs>
		<clipPath id="XMLID_126_">
			<use xlink:href="#XMLID_123_"  style="overflow:visible;"/>
		</clipPath>
		<rect id="XMLID_124_" x="32.6" y="48.2" class="st1" width="75.8" height="82.2"/>
	</g>
</g>
<g id="XMLID_111_">
	<defs>
		<path id="XMLID_112_" d="M110,55.6H30.9v-8.8c0-3.1,2.5-5.7,5.7-5.7h67.8c3.1,0,5.7,2.5,5.7,5.7V55.6z M33.3,53.2h74.3v-6.5
			c0-1.8-1.5-3.3-3.3-3.3H36.6c-1.8,0-3.3,1.5-3.3,3.3V53.2z"/>
	</defs>
	<clipPath id="XMLID_127_">
		<use xlink:href="#XMLID_112_"  style="overflow:visible;"/>
	</clipPath>
	<g id="XMLID_115_" class="st2">
		<defs>
			<rect id="XMLID_116_" x="-644.6" y="-667.2" width="1440" height="1519"/>
		</defs>
		<clipPath id="XMLID_128_">
			<use xlink:href="#XMLID_116_"  style="overflow:visible;"/>
		</clipPath>
		<rect id="XMLID_117_" x="25.9" y="36.1" class="st3" width="89.1" height="24.5"/>
	</g>
</g>
<g id="XMLID_104_">
	<defs>
		<path id="XMLID_105_" d="M36.6,26.7H1.5l-0.1-0.5c0-0.2-0.1-0.3-0.1-0.5c-0.6-3.3,0.2-6.7,2.1-9.4c1.9-2.8,4.8-4.6,8.1-5.2
			c5.9-1,11.6,1.9,14,7c0.7-0.4,1.5-0.6,2.2-0.8c4.2-0.7,8.2,2.1,8.9,6.3c0.1,0.9,0.2,1.7,0,2.6L36.6,26.7z M2.5,25.5h33.1
			c0-0.6,0-1.1-0.1-1.7c-0.6-3.5-4-5.9-7.5-5.3c-0.9,0.2-1.7,0.5-2.4,0.9l-0.6,0.4l-0.3-0.7c-1.9-4.9-7.5-7.8-12.9-6.9
			c-3,0.5-5.6,2.2-7.4,4.7C2.6,19.5,2,22.5,2.5,25.5z"/>
	</defs>
	<clipPath id="XMLID_129_">
		<use xlink:href="#XMLID_105_"  style="overflow:visible;"/>
	</clipPath>
	<g id="XMLID_108_" class="st4">
		<defs>
			<rect id="XMLID_109_" x="-644.6" y="-667.2" width="1440" height="1519"/>
		</defs>
		<clipPath id="XMLID_130_">
			<use xlink:href="#XMLID_109_"  style="overflow:visible;"/>
		</clipPath>
		<rect id="XMLID_110_" x="-3.9" y="6" class="st5" width="45.7" height="25.7"/>
	</g>
</g>
<g id="XMLID_97_">
	<defs>
		<path id="XMLID_98_" d="M149.6,22.7l-54.5,0L95,22.1c-0.1-0.7-0.1-1.4-0.1-2.2c0-8.6,5.2-15.6,11.7-15.6c3.3,0,6.4,1.8,8.6,5.1
			c1-2.5,3.8-8.3,8.9-8.8c6.4-0.7,12,3.3,14.2,10.1c0.7-0.5,1.4-0.8,2.2-1c1.7-0.4,3.3-0.1,4.8,0.9c2.2,1.5,3.8,4.5,4.2,8
			c0.1,1.2,0.2,2.4,0,3.6L149.6,22.7z M96.1,21.4l52.4,0c0.1-0.9,0.1-1.9-0.1-2.8c-0.4-3.1-1.8-5.8-3.7-7.1
			c-1.2-0.8-2.6-1.1-3.9-0.8c-0.9,0.2-1.7,0.7-2.4,1.4l-0.7,0.7l-0.3-0.9c-1.8-6.8-7-10.8-13.2-10.1c-5.6,0.6-8.3,9.1-8.4,9.2
			l-0.4,1.3l-0.7-1.2c-2-3.5-5-5.5-8.2-5.5c-5.8,0-10.5,6.5-10.5,14.4C96.1,20.4,96.1,20.9,96.1,21.4z"/>
	</defs>
	<clipPath id="XMLID_131_">
		<use xlink:href="#XMLID_98_"  style="overflow:visible;"/>
	</clipPath>
	<g id="XMLID_101_" class="st6">
		<defs>
			<rect id="XMLID_102_" x="-644.6" y="-667.2" width="1440" height="1519"/>
		</defs>
		<clipPath id="XMLID_132_">
			<use xlink:href="#XMLID_102_"  style="overflow:visible;"/>
		</clipPath>
		<rect id="XMLID_103_" x="89.9" y="-4.5" class="st7" width="64.8" height="32.1"/>
	</g>
</g>
<g id="XMLID_83_">
	<defs>
		<polyline id="XMLID_84_" points="0.3,0.5 149.7,0.5 149.7,125.5 0.3,125.5 		"/>
	</defs>
	<clipPath id="XMLID_133_">
		<use xlink:href="#XMLID_84_"  style="overflow:visible;"/>
	</clipPath>
	<g id="XMLID_85_" class="st8">
		<defs>
			<rect id="XMLID_86_" x="-644.6" y="-667.2" width="1440" height="1519"/>
		</defs>
		<clipPath id="XMLID_134_">
			<use xlink:href="#XMLID_86_"  style="overflow:visible;"/>
		</clipPath>
		<g id="XMLID_87_" class="st9">
			<g id="XMLID_88_">
				<defs>
					<rect id="XMLID_89_" x="0.3" y="62" width="28" height="34"/>
				</defs>
				<clipPath id="XMLID_135_">
					<use xlink:href="#XMLID_89_"  style="overflow:visible;"/>
				</clipPath>
				<g id="XMLID_90_" class="st10">
					<defs>
						<path id="XMLID_91_" d="M13.8,96C6.3,96,0.3,89.9,0.3,82.4c0-7,5.7-20.3,13.6-20.3c7.8,0,13.6,13.4,13.6,20.3
							C27.4,89.9,21.3,96,13.8,96 M13.8,64.5c-5.8,0-11.2,11.2-11.2,17.9c0,6.2,5,11.2,11.2,11.2c6.2,0,11.2-5,11.2-11.2
							C25,75.6,19.6,64.5,13.8,64.5"/>
					</defs>
					<clipPath id="XMLID_136_">
						<use xlink:href="#XMLID_91_"  style="overflow:visible;"/>
					</clipPath>
					<g id="XMLID_94_" class="st11">
						<defs>
							<rect id="XMLID_95_" x="0.3" y="0" width="150" height="126"/>
						</defs>
						<clipPath id="XMLID_137_">
							<use xlink:href="#XMLID_95_"  style="overflow:visible;"/>
						</clipPath>
						<rect id="XMLID_96_" x="-4.7" y="57.1" class="st12" width="37.1" height="43.9"/>
					</g>
				</g>
			</g>
		</g>
	</g>
</g>
<g id="XMLID_2_">
	<defs>
		<rect id="XMLID_3_" x="0.3" y="0.5" width="149.5" height="125"/>
	</defs>
	<clipPath id="XMLID_138_">
		<use xlink:href="#XMLID_3_"  style="overflow:visible;"/>
	</clipPath>
	<g id="XMLID_4_" class="st13">
		<defs>
			<rect id="XMLID_5_" x="-644.6" y="-667.2" width="1440" height="1519"/>
		</defs>
		<clipPath id="XMLID_139_">
			<use xlink:href="#XMLID_5_"  style="overflow:visible;"/>
		</clipPath>
		<g id="XMLID_6_" class="st14">
			<g id="XMLID_7_">
				<defs>
					<rect id="XMLID_8_" x="3.3" y="63" width="135" height="63"/>
				</defs>
				<clipPath id="XMLID_140_">
					<use xlink:href="#XMLID_8_"  style="overflow:visible;"/>
				</clipPath>
				<g id="XMLID_78_" class="st15">
					<defs>
						<rect id="XMLID_79_" x="13.2" y="73.3" width="1.2" height="51.6"/>
					</defs>
					<clipPath id="XMLID_141_">
						<use xlink:href="#XMLID_79_"  style="overflow:visible;"/>
					</clipPath>
					<g id="XMLID_80_" class="st16">
						<defs>
							<rect id="XMLID_81_" x="0.3" y="0" width="150" height="126"/>
						</defs>
						<clipPath id="XMLID_142_">
							<use xlink:href="#XMLID_81_"  style="overflow:visible;"/>
						</clipPath>
						<rect id="XMLID_82_" x="8.2" y="68.3" class="st17" width="11.2" height="61.6"/>
					</g>
				</g>
				<g id="XMLID_73_" class="st15">
					<defs>
						<rect id="XMLID_74_" x="3.6" y="124.3" width="133.8" height="1.2"/>
					</defs>
					<clipPath id="XMLID_143_">
						<use xlink:href="#XMLID_74_"  style="overflow:visible;"/>
					</clipPath>
					<g id="XMLID_75_" class="st18">
						<defs>
							<rect id="XMLID_76_" x="0.3" y="0" width="150" height="126"/>
						</defs>
						<clipPath id="XMLID_144_">
							<use xlink:href="#XMLID_76_"  style="overflow:visible;"/>
						</clipPath>
						<rect id="XMLID_77_" x="-1.4" y="119.3" class="st19" width="143.8" height="11.2"/>
					</g>
				</g>
				<g id="XMLID_66_" class="st15">
					<defs>
						<path id="XMLID_67_" d="M65.2,77H50.4V63.7h14.8V77z M51.6,75.8H64V64.9H51.6V75.8z"/>
					</defs>
					<clipPath id="XMLID_145_">
						<use xlink:href="#XMLID_67_"  style="overflow:visible;"/>
					</clipPath>
					<g id="XMLID_70_" class="st20">
						<defs>
							<rect id="XMLID_71_" x="0.3" y="0" width="150" height="126"/>
						</defs>
						<clipPath id="XMLID_146_">
							<use xlink:href="#XMLID_71_"  style="overflow:visible;"/>
						</clipPath>
						<rect id="XMLID_72_" x="45.4" y="58.7" class="st21" width="24.8" height="23.2"/>
					</g>
				</g>
				<g id="XMLID_59_" class="st15">
					<defs>
						<path id="XMLID_60_" d="M90.5,77H75.7V63.7h14.8V77z M76.9,75.8h12.4V64.9H76.9V75.8z"/>
					</defs>
					<clipPath id="XMLID_147_">
						<use xlink:href="#XMLID_60_"  style="overflow:visible;"/>
					</clipPath>
					<g id="XMLID_63_" class="st22">
						<defs>
							<rect id="XMLID_64_" x="0.3" y="0" width="150" height="126"/>
						</defs>
						<clipPath id="XMLID_148_">
							<use xlink:href="#XMLID_64_"  style="overflow:visible;"/>
						</clipPath>
						<rect id="XMLID_65_" x="70.7" y="58.7" class="st23" width="24.8" height="23.2"/>
					</g>
				</g>
				<g id="XMLID_52_" class="st15">
					<defs>
						<path id="XMLID_53_" d="M65.2,97H50.4V83.8h14.8V97z M51.6,95.8H64V85H51.6V95.8z"/>
					</defs>
					<clipPath id="XMLID_149_">
						<use xlink:href="#XMLID_53_"  style="overflow:visible;"/>
					</clipPath>
					<g id="XMLID_56_" class="st24">
						<defs>
							<rect id="XMLID_57_" x="0.3" y="0" width="150" height="126"/>
						</defs>
						<clipPath id="XMLID_150_">
							<use xlink:href="#XMLID_57_"  style="overflow:visible;"/>
						</clipPath>
						<rect id="XMLID_58_" x="45.4" y="78.8" class="st25" width="24.8" height="23.2"/>
					</g>
				</g>
				<g id="XMLID_45_" class="st15">
					<defs>
						<path id="XMLID_46_" d="M90.5,97H75.7V83.8h14.8V97z M76.9,95.8h12.4V85H76.9V95.8z"/>
					</defs>
					<clipPath id="XMLID_151_">
						<use xlink:href="#XMLID_46_"  style="overflow:visible;"/>
					</clipPath>
					<g id="XMLID_49_" class="st26">
						<defs>
							<rect id="XMLID_50_" x="0.3" y="0" width="150" height="126"/>
						</defs>
						<clipPath id="XMLID_152_">
							<use xlink:href="#XMLID_50_"  style="overflow:visible;"/>
						</clipPath>
						<rect id="XMLID_51_" x="70.7" y="78.8" class="st27" width="24.8" height="23.2"/>
					</g>
				</g>
				<g id="XMLID_38_" class="st15">
					<defs>
						<path id="XMLID_39_" d="M65.2,117.1H50.4v-13.2h14.8V117.1z M51.6,115.9H64V105H51.6V115.9z"/>
					</defs>
					<clipPath id="XMLID_153_">
						<use xlink:href="#XMLID_39_"  style="overflow:visible;"/>
					</clipPath>
					<g id="XMLID_42_" class="st28">
						<defs>
							<rect id="XMLID_43_" x="0.3" y="0" width="150" height="126"/>
						</defs>
						<clipPath id="XMLID_154_">
							<use xlink:href="#XMLID_43_"  style="overflow:visible;"/>
						</clipPath>
						<rect id="XMLID_44_" x="45.4" y="98.8" class="st29" width="24.8" height="23.2"/>
					</g>
				</g>
				<g id="XMLID_31_" class="st15">
					<defs>
						<path id="XMLID_32_" d="M90.5,117.1H75.7v-13.2h14.8V117.1z M76.9,115.9h12.4V105H76.9V115.9z"/>
					</defs>
					<clipPath id="XMLID_155_">
						<use xlink:href="#XMLID_32_"  style="overflow:visible;"/>
					</clipPath>
					<g id="XMLID_35_" class="st30">
						<defs>
							<rect id="XMLID_36_" x="0.3" y="0" width="150" height="126"/>
						</defs>
						<clipPath id="XMLID_156_">
							<use xlink:href="#XMLID_36_"  style="overflow:visible;"/>
						</clipPath>
						<rect id="XMLID_37_" x="70.7" y="98.8" class="st31" width="24.8" height="23.2"/>
					</g>
				</g>
				<g id="XMLID_26_" class="st15">
					<defs>
						<polygon id="XMLID_27_" points="13.8,85.9 8.4,78 8.9,77.7 13.8,84.9 18.7,78.8 19.2,79.2 						"/>
					</defs>
					<clipPath id="XMLID_157_">
						<use xlink:href="#XMLID_27_"  style="overflow:visible;"/>
					</clipPath>
					<g id="XMLID_28_" class="st32">
						<defs>
							<rect id="XMLID_29_" x="0.3" y="0" width="150" height="126"/>
						</defs>
						<clipPath id="XMLID_158_">
							<use xlink:href="#XMLID_29_"  style="overflow:visible;"/>
						</clipPath>
						<rect id="XMLID_30_" x="3.4" y="72.7" class="st33" width="20.8" height="18.2"/>
					</g>
				</g>
				<g id="XMLID_19_" class="st15">
					<defs>
						<path id="XMLID_20_" d="M122.3,105.9c-5.7,0-10.4-4.7-10.4-10.4c0-5.4,4.3-15.4,10.4-15.4c6.1,0,10.4,10,10.4,15.4
							C132.7,101.3,128,105.9,122.3,105.9 M122.3,82.6c-4.1,0-8,8.2-8,13c0,4.4,3.6,8,8,8s8-3.6,8-8
							C130.3,90.8,126.4,82.6,122.3,82.6"/>
					</defs>
					<clipPath id="XMLID_159_">
						<use xlink:href="#XMLID_20_"  style="overflow:visible;"/>
					</clipPath>
					<g id="XMLID_23_" class="st34">
						<defs>
							<rect id="XMLID_24_" x="0.3" y="0" width="150" height="126"/>
						</defs>
						<clipPath id="XMLID_160_">
							<use xlink:href="#XMLID_24_"  style="overflow:visible;"/>
						</clipPath>
						<rect id="XMLID_25_" x="106.9" y="75.2" class="st35" width="30.8" height="35.8"/>
					</g>
				</g>
				<g id="XMLID_14_" class="st15">
					<defs>
						<rect id="XMLID_15_" x="121.7" y="87.9" width="1.2" height="37.3"/>
					</defs>
					<clipPath id="XMLID_161_">
						<use xlink:href="#XMLID_15_"  style="overflow:visible;"/>
					</clipPath>
					<g id="XMLID_16_" class="st36">
						<defs>
							<rect id="XMLID_17_" x="0.3" y="0" width="150" height="126"/>
						</defs>
						<clipPath id="XMLID_162_">
							<use xlink:href="#XMLID_17_"  style="overflow:visible;"/>
						</clipPath>
						<rect id="XMLID_18_" x="116.7" y="82.9" class="st37" width="11.2" height="47.3"/>
					</g>
				</g>
				<g id="XMLID_9_" class="st15">
					<defs>
						<polygon id="XMLID_10_" points="122.3,99.3 117.3,92.2 117.8,91.8 122.3,98.4 126.8,92.9 127.2,93.3 						"/>
					</defs>
					<clipPath id="XMLID_163_">
						<use xlink:href="#XMLID_10_"  style="overflow:visible;"/>
					</clipPath>
					<g id="XMLID_11_" class="st38">
						<defs>
							<rect id="XMLID_12_" x="0.3" y="0" width="150" height="126"/>
						</defs>
						<clipPath id="XMLID_164_">
							<use xlink:href="#XMLID_12_"  style="overflow:visible;"/>
						</clipPath>
						<rect id="XMLID_13_" x="112.3" y="86.8" class="st39" width="19.9" height="17.5"/>
					</g>
				</g>
			</g>
		</g>
	</g>
</g>
</svg>
