<?xml version="1.0" encoding="utf-8"?>
<!-- Generator: Adobe Illustrator 19.0.0, SVG Export Plug-In . SVG Version: 6.00 Build 0)  -->
<svg version="1.1" id="Layer_1" xmlns="http://www.w3.org/2000/svg" xmlns:xlink="http://www.w3.org/1999/xlink" x="0px" y="0px"
	 viewBox="0 0 147 120" style="enable-background:new 0 0 147 120;" xml:space="preserve">
<style type="text/css">
	.st0{clip-path:url(#XMLID_144_);}
	.st1{clip-path:url(#XMLID_145_);fill:#5EC2A8;}
	.st2{clip-path:url(#XMLID_146_);}
	.st3{clip-path:url(#XMLID_147_);fill:#5EC2A8;}
	.st4{clip-path:url(#XMLID_148_);}
	.st5{clip-path:url(#XMLID_149_);fill:#5EC2A8;}
	.st6{clip-path:url(#XMLID_150_);}
	.st7{clip-path:url(#XMLID_151_);enable-background:new    ;}
	.st8{clip-path:url(#XMLID_152_);}
	.st9{clip-path:url(#XMLID_153_);}
	.st10{clip-path:url(#XMLID_154_);fill:#5EC2A8;}
	.st11{clip-path:url(#XMLID_155_);}
	.st12{clip-path:url(#XMLID_156_);fill:#5EC2A8;}
	.st13{clip-path:url(#XMLID_157_);}
	.st14{clip-path:url(#XMLID_158_);enable-background:new    ;}
	.st15{clip-path:url(#XMLID_159_);}
	.st16{clip-path:url(#XMLID_160_);}
	.st17{clip-path:url(#XMLID_161_);fill:#5EC2A8;}
	.st18{clip-path:url(#XMLID_162_);}
	.st19{clip-path:url(#XMLID_163_);fill:#5EC2A8;}
	.st20{clip-path:url(#XMLID_164_);}
	.st21{clip-path:url(#XMLID_165_);fill:#5EC2A8;}
	.st22{clip-path:url(#XMLID_166_);}
	.st23{clip-path:url(#XMLID_167_);fill:#5EC2A8;}
	.st24{clip-path:url(#XMLID_168_);}
	.st25{clip-path:url(#XMLID_169_);fill:#5EC2A8;}
	.st26{clip-path:url(#XMLID_170_);}
	.st27{clip-path:url(#XMLID_171_);fill:#5EC2A8;}
	.st28{clip-path:url(#XMLID_172_);}
	.st29{clip-path:url(#XMLID_173_);fill:#5EC2A8;}
	.st30{clip-path:url(#XMLID_174_);}
	.st31{clip-path:url(#XMLID_175_);fill:#5EC2A8;}
	.st32{clip-path:url(#XMLID_176_);}
	.st33{clip-path:url(#XMLID_177_);fill:#5EC2A8;}
	.st34{clip-path:url(#XMLID_178_);}
	.st35{clip-path:url(#XMLID_179_);fill:#5EC2A8;}
	.st36{clip-path:url(#XMLID_180_);}
	.st37{clip-path:url(#XMLID_181_);fill:#5EC2A8;}
	.st38{clip-path:url(#XMLID_182_);}
	.st39{clip-path:url(#XMLID_183_);fill:#5EC2A8;}
	.st40{clip-path:url(#XMLID_184_);}
	.st41{clip-path:url(#XMLID_185_);fill:#5EC2A8;}
	.st42{clip-path:url(#XMLID_186_);}
	.st43{clip-path:url(#XMLID_187_);fill:#5EC2A8;}
	.st44{clip-path:url(#XMLID_188_);}
	.st45{clip-path:url(#XMLID_189_);fill:#5EC2A8;}
</style>
<g id="XMLID_137_">
	<defs>
		<path id="XMLID_138_" d="M49.9,39.4h60v78.1h-60V39.4z M47.6,119.8h64.6V37.1H47.6V119.8z"/>
	</defs>
	<clipPath id="XMLID_144_">
		<use xlink:href="#XMLID_138_"  style="overflow:visible;"/>
	</clipPath>
	<g id="XMLID_141_" class="st0">
		<defs>
			<rect id="XMLID_142_" x="-890.1" y="-672.9" width="1440" height="1519"/>
		</defs>
		<clipPath id="XMLID_145_">
			<use xlink:href="#XMLID_142_"  style="overflow:visible;"/>
		</clipPath>
		<rect id="XMLID_143_" x="42.6" y="32.1" class="st1" width="74.6" height="92.7"/>
	</g>
</g>
<g id="XMLID_130_">
	<defs>
		<path id="XMLID_131_" d="M118.6,39.9H41v-8.4c0-3.2,2.6-5.8,5.8-5.8h66c3.2,0,5.8,2.6,5.8,5.8V39.9z M43.3,37.6h73v-6.1
			c0-1.9-1.6-3.5-3.5-3.5h-66c-1.9,0-3.5,1.6-3.5,3.5V37.6z"/>
	</defs>
	<clipPath id="XMLID_146_">
		<use xlink:href="#XMLID_131_"  style="overflow:visible;"/>
	</clipPath>
	<g id="XMLID_134_" class="st2">
		<defs>
			<rect id="XMLID_135_" x="-890.1" y="-672.9" width="1440" height="1519"/>
		</defs>
		<clipPath id="XMLID_147_">
			<use xlink:href="#XMLID_135_"  style="overflow:visible;"/>
		</clipPath>
		<rect id="XMLID_136_" x="36" y="20.7" class="st3" width="87.6" height="24.2"/>
	</g>
</g>
<g id="XMLID_123_">
	<defs>
		<path id="XMLID_124_" d="M39.6,45H5.2l-0.1-0.5C5,44.4,5,44.2,5,44.1C3.8,37.4,8.3,31,15,29.8c5.7-1,11.4,1.9,13.7,6.8
			c0.7-0.4,1.4-0.6,2.2-0.7c2-0.3,4,0.1,5.6,1.3c1.6,1.2,2.7,2.9,3.1,4.9c0.1,0.8,0.2,1.7,0,2.5L39.6,45z M6.1,43.8h32.5
			c0-0.5,0-1.1-0.1-1.6c-0.3-1.7-1.2-3.1-2.6-4.1c-1.4-1-3.1-1.4-4.8-1.1c-0.9,0.1-1.6,0.5-2.4,0.9l-0.6,0.4l-0.3-0.7
			C26,32.9,20.6,30,15.2,31C9.1,32,5.1,37.8,6.1,43.8z"/>
	</defs>
	<clipPath id="XMLID_148_">
		<use xlink:href="#XMLID_124_"  style="overflow:visible;"/>
	</clipPath>
	<g id="XMLID_127_" class="st4">
		<defs>
			<rect id="XMLID_128_" x="-890.1" y="-672.9" width="1440" height="1519"/>
		</defs>
		<clipPath id="XMLID_149_">
			<use xlink:href="#XMLID_128_"  style="overflow:visible;"/>
		</clipPath>
		<rect id="XMLID_129_" x="-0.2" y="24.6" class="st5" width="45" height="25.4"/>
	</g>
</g>
<g id="XMLID_109_">
	<defs>
		<rect id="XMLID_110_" x="0.1" y="0.2" width="146.8" height="119.6"/>
	</defs>
	<clipPath id="XMLID_150_">
		<use xlink:href="#XMLID_110_"  style="overflow:visible;"/>
	</clipPath>
	<g id="XMLID_111_" class="st6">
		<defs>
			<rect id="XMLID_112_" x="-890.1" y="-672.9" width="1440" height="1519"/>
		</defs>
		<clipPath id="XMLID_151_">
			<use xlink:href="#XMLID_112_"  style="overflow:visible;"/>
		</clipPath>
		<g id="XMLID_113_" class="st7">
			<g id="XMLID_114_">
				<defs>
					<rect id="XMLID_115_" x="91.1" y="-1" width="55" height="23"/>
				</defs>
				<clipPath id="XMLID_152_">
					<use xlink:href="#XMLID_115_"  style="overflow:visible;"/>
				</clipPath>
				<g id="XMLID_116_" class="st8">
					<defs>
						<path id="XMLID_117_" d="M145.3,21.8l-53.5,0l-0.1-0.5c-0.1-0.7-0.1-1.4-0.1-2.1c0-8.4,5.1-15.2,11.5-15.2
							c3.3,0,6.3,1.8,8.5,5c1-2.5,3.8-8.1,8.8-8.6c6.3-0.7,11.8,3.2,13.9,9.8c0.7-0.5,1.4-0.8,2.2-1c1.6-0.4,3.3-0.1,4.8,0.9
							c2.2,1.5,3.8,4.4,4.2,7.8c0.1,1.2,0.1,2.4,0,3.5L145.3,21.8z M92.8,20.7l51.4,0c0.1-0.9,0.1-1.8-0.1-2.7c-0.4-3-1.7-5.7-3.7-7
							c-1.2-0.8-2.5-1.1-3.8-0.8c-0.8,0.2-1.6,0.7-2.4,1.3l-0.7,0.6l-0.3-0.9c-1.8-6.6-6.9-10.5-12.9-9.8c-5.5,0.6-8.2,8.9-8.2,9
							l-0.4,1.3l-0.7-1.2c-2-3.4-4.9-5.4-8.1-5.4c-5.7,0-10.3,6.3-10.3,14.1C92.8,19.7,92.8,20.2,92.8,20.7z"/>
					</defs>
					<clipPath id="XMLID_153_">
						<use xlink:href="#XMLID_117_"  style="overflow:visible;"/>
					</clipPath>
					<g id="XMLID_120_" class="st9">
						<defs>
							<rect id="XMLID_121_" x="0.1" y="0" width="147" height="120"/>
						</defs>
						<clipPath id="XMLID_154_">
							<use xlink:href="#XMLID_121_"  style="overflow:visible;"/>
						</clipPath>
						<rect id="XMLID_122_" x="86.6" y="-4.8" class="st10" width="63.8" height="31.7"/>
					</g>
				</g>
			</g>
		</g>
	</g>
</g>
<g id="XMLID_102_">
	<defs>
		<path id="XMLID_103_" d="M133.6,90.9c-7.3,0-13.3-6-13.3-13.3c0-6.8,5.6-19.9,13.3-19.9c7.7,0,13.3,13.1,13.3,19.9
			C146.9,85,140.9,90.9,133.6,90.9 M133.6,60.1c-5.7,0-11,10.9-11,17.5c0,6,4.9,10.9,11,10.9c6.1,0,11-4.9,11-10.9
			C144.6,71.1,139.3,60.1,133.6,60.1"/>
	</defs>
	<clipPath id="XMLID_155_">
		<use xlink:href="#XMLID_103_"  style="overflow:visible;"/>
	</clipPath>
	<g id="XMLID_106_" class="st11">
		<defs>
			<rect id="XMLID_107_" x="-890.1" y="-672.9" width="1440" height="1519"/>
		</defs>
		<clipPath id="XMLID_156_">
			<use xlink:href="#XMLID_107_"  style="overflow:visible;"/>
		</clipPath>
		<rect id="XMLID_108_" x="115.3" y="52.8" class="st12" width="36.6" height="43.1"/>
	</g>
</g>
<g id="XMLID_2_">
	<defs>
		<rect id="XMLID_3_" x="0.1" y="0.2" width="146.8" height="119.6"/>
	</defs>
	<clipPath id="XMLID_157_">
		<use xlink:href="#XMLID_3_"  style="overflow:visible;"/>
	</clipPath>
	<g id="XMLID_4_" class="st13">
		<defs>
			<rect id="XMLID_5_" x="-890.1" y="-672.9" width="1440" height="1519"/>
		</defs>
		<clipPath id="XMLID_158_">
			<use xlink:href="#XMLID_5_"  style="overflow:visible;"/>
		</clipPath>
		<g id="XMLID_6_" class="st14">
			<g id="XMLID_7_">
				<defs>
					<rect id="XMLID_8_" x="0.1" y="50" width="139" height="70"/>
				</defs>
				<clipPath id="XMLID_159_">
					<use xlink:href="#XMLID_8_"  style="overflow:visible;"/>
				</clipPath>
				<g id="XMLID_97_" class="st15">
					<defs>
						<rect id="XMLID_98_" x="133" y="68.8" width="1.2" height="50.4"/>
					</defs>
					<clipPath id="XMLID_160_">
						<use xlink:href="#XMLID_98_"  style="overflow:visible;"/>
					</clipPath>
					<g id="XMLID_99_" class="st16">
						<defs>
							<rect id="XMLID_100_" x="0.1" y="0" width="147" height="120"/>
						</defs>
						<clipPath id="XMLID_161_">
							<use xlink:href="#XMLID_100_"  style="overflow:visible;"/>
						</clipPath>
						<rect id="XMLID_101_" x="128" y="63.8" class="st17" width="11.2" height="60.4"/>
					</g>
				</g>
				<g id="XMLID_92_" class="st15">
					<defs>
						<rect id="XMLID_93_" x="7.2" y="118.6" width="131.3" height="1.2"/>
					</defs>
					<clipPath id="XMLID_162_">
						<use xlink:href="#XMLID_93_"  style="overflow:visible;"/>
					</clipPath>
					<g id="XMLID_94_" class="st18">
						<defs>
							<rect id="XMLID_95_" x="0.1" y="0" width="147" height="120"/>
						</defs>
						<clipPath id="XMLID_163_">
							<use xlink:href="#XMLID_95_"  style="overflow:visible;"/>
						</clipPath>
						<rect id="XMLID_96_" x="2.2" y="113.6" class="st19" width="141.3" height="11.2"/>
					</g>
				</g>
				<g id="XMLID_85_" class="st15">
					<defs>
						<path id="XMLID_86_" d="M74.7,66.6H60.1V53.6h14.5V66.6z M61.3,65.4h12.2V54.8H61.3V65.4z"/>
					</defs>
					<clipPath id="XMLID_164_">
						<use xlink:href="#XMLID_86_"  style="overflow:visible;"/>
					</clipPath>
					<g id="XMLID_89_" class="st20">
						<defs>
							<rect id="XMLID_90_" x="0.1" y="0" width="147" height="120"/>
						</defs>
						<clipPath id="XMLID_165_">
							<use xlink:href="#XMLID_90_"  style="overflow:visible;"/>
						</clipPath>
						<rect id="XMLID_91_" x="55.1" y="48.6" class="st21" width="24.5" height="22.9"/>
					</g>
				</g>
				<g id="XMLID_78_" class="st15">
					<defs>
						<path id="XMLID_79_" d="M99.5,66.6H84.9V53.6h14.5V66.6z M86.1,65.4h12.2V54.8H86.1V65.4z"/>
					</defs>
					<clipPath id="XMLID_166_">
						<use xlink:href="#XMLID_79_"  style="overflow:visible;"/>
					</clipPath>
					<g id="XMLID_82_" class="st22">
						<defs>
							<rect id="XMLID_83_" x="0.1" y="0" width="147" height="120"/>
						</defs>
						<clipPath id="XMLID_167_">
							<use xlink:href="#XMLID_83_"  style="overflow:visible;"/>
						</clipPath>
						<rect id="XMLID_84_" x="79.9" y="48.6" class="st23" width="24.5" height="22.9"/>
					</g>
				</g>
				<g id="XMLID_71_" class="st15">
					<defs>
						<path id="XMLID_72_" d="M74.7,86.2H60.1V73.2h14.5V86.2z M61.3,85h12.2V74.4H61.3V85z"/>
					</defs>
					<clipPath id="XMLID_168_">
						<use xlink:href="#XMLID_72_"  style="overflow:visible;"/>
					</clipPath>
					<g id="XMLID_75_" class="st24">
						<defs>
							<rect id="XMLID_76_" x="0.1" y="0" width="147" height="120"/>
						</defs>
						<clipPath id="XMLID_169_">
							<use xlink:href="#XMLID_76_"  style="overflow:visible;"/>
						</clipPath>
						<rect id="XMLID_77_" x="55.1" y="68.2" class="st25" width="24.5" height="22.9"/>
					</g>
				</g>
				<g id="XMLID_64_" class="st15">
					<defs>
						<path id="XMLID_65_" d="M99.5,86.2H84.9V73.2h14.5V86.2z M86.1,85h12.2V74.4H86.1V85z"/>
					</defs>
					<clipPath id="XMLID_170_">
						<use xlink:href="#XMLID_65_"  style="overflow:visible;"/>
					</clipPath>
					<g id="XMLID_68_" class="st26">
						<defs>
							<rect id="XMLID_69_" x="0.1" y="0" width="147" height="120"/>
						</defs>
						<clipPath id="XMLID_171_">
							<use xlink:href="#XMLID_69_"  style="overflow:visible;"/>
						</clipPath>
						<rect id="XMLID_70_" x="79.9" y="68.2" class="st27" width="24.5" height="22.9"/>
					</g>
				</g>
				<g id="XMLID_57_" class="st15">
					<defs>
						<path id="XMLID_58_" d="M74.7,105.8H60.1V92.8h14.5V105.8z M61.3,104.6h12.2V94H61.3V104.6z"/>
					</defs>
					<clipPath id="XMLID_172_">
						<use xlink:href="#XMLID_58_"  style="overflow:visible;"/>
					</clipPath>
					<g id="XMLID_61_" class="st28">
						<defs>
							<rect id="XMLID_62_" x="0.1" y="0" width="147" height="120"/>
						</defs>
						<clipPath id="XMLID_173_">
							<use xlink:href="#XMLID_62_"  style="overflow:visible;"/>
						</clipPath>
						<rect id="XMLID_63_" x="55.1" y="87.8" class="st29" width="24.5" height="22.9"/>
					</g>
				</g>
				<g id="XMLID_50_" class="st15">
					<defs>
						<path id="XMLID_51_" d="M99.5,105.8H84.9V92.8h14.5V105.8z M86.1,104.6h12.2V94H86.1V104.6z"/>
					</defs>
					<clipPath id="XMLID_174_">
						<use xlink:href="#XMLID_51_"  style="overflow:visible;"/>
					</clipPath>
					<g id="XMLID_54_" class="st30">
						<defs>
							<rect id="XMLID_55_" x="0.1" y="0" width="147" height="120"/>
						</defs>
						<clipPath id="XMLID_175_">
							<use xlink:href="#XMLID_55_"  style="overflow:visible;"/>
						</clipPath>
						<rect id="XMLID_56_" x="79.9" y="87.8" class="st31" width="24.5" height="22.9"/>
					</g>
				</g>
				<g id="XMLID_45_" class="st15">
					<defs>
						<polygon id="XMLID_46_" points="133.6,81.1 128.2,73.4 128.7,73.1 133.6,80.1 138.4,74.2 138.9,74.6 						"/>
					</defs>
					<clipPath id="XMLID_176_">
						<use xlink:href="#XMLID_46_"  style="overflow:visible;"/>
					</clipPath>
					<g id="XMLID_47_" class="st32">
						<defs>
							<rect id="XMLID_48_" x="0.1" y="0" width="147" height="120"/>
						</defs>
						<clipPath id="XMLID_177_">
							<use xlink:href="#XMLID_48_"  style="overflow:visible;"/>
						</clipPath>
						<rect id="XMLID_49_" x="123.2" y="68.1" class="st33" width="20.6" height="18"/>
					</g>
				</g>
				<g id="XMLID_38_" class="st15">
					<defs>
						<path id="XMLID_39_" d="M10.3,100.7c-5.6,0-10.2-4.6-10.2-10.1c0-5.3,4.2-15,10.2-15s10.2,9.8,10.2,15
							C20.5,96.1,15.9,100.7,10.3,100.7 M10.3,77.8c-4,0-7.9,8.1-7.9,12.7c0,4.3,3.5,7.8,7.9,7.8c4.3,0,7.9-3.5,7.9-7.8
							C18.1,85.9,14.2,77.8,10.3,77.8"/>
					</defs>
					<clipPath id="XMLID_178_">
						<use xlink:href="#XMLID_39_"  style="overflow:visible;"/>
					</clipPath>
					<g id="XMLID_42_" class="st34">
						<defs>
							<rect id="XMLID_43_" x="0.1" y="0" width="147" height="120"/>
						</defs>
						<clipPath id="XMLID_179_">
							<use xlink:href="#XMLID_43_"  style="overflow:visible;"/>
						</clipPath>
						<rect id="XMLID_44_" x="-4.9" y="70.5" class="st35" width="30.4" height="35.2"/>
					</g>
				</g>
				<g id="XMLID_33_" class="st15">
					<defs>
						<rect id="XMLID_34_" x="9.7" y="83" width="1.2" height="36.5"/>
					</defs>
					<clipPath id="XMLID_180_">
						<use xlink:href="#XMLID_34_"  style="overflow:visible;"/>
					</clipPath>
					<g id="XMLID_35_" class="st36">
						<defs>
							<rect id="XMLID_36_" x="0.1" y="0" width="147" height="120"/>
						</defs>
						<clipPath id="XMLID_181_">
							<use xlink:href="#XMLID_36_"  style="overflow:visible;"/>
						</clipPath>
						<rect id="XMLID_37_" x="4.7" y="78" class="st37" width="11.2" height="46.5"/>
					</g>
				</g>
				<g id="XMLID_28_" class="st15">
					<defs>
						<polygon id="XMLID_29_" points="10.3,94.2 5.4,87.2 5.8,86.9 10.3,93.3 14.6,87.9 15.1,88.3 						"/>
					</defs>
					<clipPath id="XMLID_182_">
						<use xlink:href="#XMLID_29_"  style="overflow:visible;"/>
					</clipPath>
					<g id="XMLID_30_" class="st38">
						<defs>
							<rect id="XMLID_31_" x="0.1" y="0" width="147" height="120"/>
						</defs>
						<clipPath id="XMLID_183_">
							<use xlink:href="#XMLID_31_"  style="overflow:visible;"/>
						</clipPath>
						<rect id="XMLID_32_" x="0.4" y="81.9" class="st39" width="19.7" height="17.3"/>
					</g>
				</g>
				<g id="XMLID_21_" class="st15">
					<defs>
						<path id="XMLID_22_" d="M49.8,63H21.1v-7c0-2.8,2.3-5.1,5.1-5.1h23.6V63z M23.4,60.7h24.1v-7.5H26.3c-1.6,0-2.8,1.3-2.8,2.8
							V60.7z"/>
					</defs>
					<clipPath id="XMLID_184_">
						<use xlink:href="#XMLID_22_"  style="overflow:visible;"/>
					</clipPath>
					<g id="XMLID_25_" class="st40">
						<defs>
							<rect id="XMLID_26_" x="0.1" y="0" width="147" height="120"/>
						</defs>
						<clipPath id="XMLID_185_">
							<use xlink:href="#XMLID_26_"  style="overflow:visible;"/>
						</clipPath>
						<rect id="XMLID_27_" x="16.1" y="45.8" class="st41" width="38.7" height="22.2"/>
					</g>
				</g>
				<g id="XMLID_16_" class="st15">
					<defs>
						<rect id="XMLID_17_" x="25.1" y="61.8" width="2.3" height="56.8"/>
					</defs>
					<clipPath id="XMLID_186_">
						<use xlink:href="#XMLID_17_"  style="overflow:visible;"/>
					</clipPath>
					<g id="XMLID_18_" class="st42">
						<defs>
							<rect id="XMLID_19_" x="0.1" y="0" width="147" height="120"/>
						</defs>
						<clipPath id="XMLID_187_">
							<use xlink:href="#XMLID_19_"  style="overflow:visible;"/>
						</clipPath>
						<rect id="XMLID_20_" x="20.1" y="56.8" class="st43" width="12.3" height="66.8"/>
					</g>
				</g>
				<g id="XMLID_9_" class="st15">
					<defs>
						<path id="XMLID_10_" d="M44,81.1H31V68.1h13V81.1z M32.2,79.9h10.7V69.3H32.2V79.9z"/>
					</defs>
					<clipPath id="XMLID_188_">
						<use xlink:href="#XMLID_10_"  style="overflow:visible;"/>
					</clipPath>
					<g id="XMLID_13_" class="st44">
						<defs>
							<rect id="XMLID_14_" x="0.1" y="0" width="147" height="120"/>
						</defs>
						<clipPath id="XMLID_189_">
							<use xlink:href="#XMLID_14_"  style="overflow:visible;"/>
						</clipPath>
						<rect id="XMLID_15_" x="26" y="63.1" class="st45" width="23" height="22.9"/>
					</g>
				</g>
			</g>
		</g>
	</g>
</g>
</svg>
