<?xml version="1.0" encoding="utf-8"?>
<!-- Generator: Adobe Illustrator 19.0.0, SVG Export Plug-In . SVG Version: 6.00 Build 0)  -->
<svg version="1.1" id="Layer_1" xmlns="http://www.w3.org/2000/svg" xmlns:xlink="http://www.w3.org/1999/xlink" x="0px" y="0px"
	 viewBox="0 0 153 98" style="enable-background:new 0 0 153 98;" xml:space="preserve">
<style type="text/css">
	.st0{clip-path:url(#XMLID_139_);}
	.st1{clip-path:url(#XMLID_140_);fill:#5EC2A8;}
	.st2{clip-path:url(#XMLID_141_);}
	.st3{clip-path:url(#XMLID_142_);enable-background:new    ;}
	.st4{clip-path:url(#XMLID_143_);}
	.st5{clip-path:url(#XMLID_144_);}
	.st6{clip-path:url(#XMLID_145_);fill:#5EC2A8;}
	.st7{clip-path:url(#XMLID_146_);}
	.st8{clip-path:url(#XMLID_147_);fill:#5EC2A8;}
	.st9{clip-path:url(#XMLID_148_);}
	.st10{clip-path:url(#XMLID_149_);fill:#5EC2A8;}
	.st11{clip-path:url(#XMLID_150_);}
	.st12{clip-path:url(#XMLID_151_);fill:#5EC2A8;}
	.st13{clip-path:url(#XMLID_152_);}
	.st14{clip-path:url(#XMLID_153_);fill:#5EC2A8;}
	.st15{clip-path:url(#XMLID_154_);}
	.st16{clip-path:url(#XMLID_155_);fill:#5EC2A8;}
	.st17{clip-path:url(#XMLID_156_);}
	.st18{clip-path:url(#XMLID_157_);fill:#5EC2A8;}
	.st19{clip-path:url(#XMLID_158_);}
	.st20{clip-path:url(#XMLID_159_);fill:#5EC2A8;}
	.st21{clip-path:url(#XMLID_160_);}
	.st22{clip-path:url(#XMLID_161_);fill:#5EC2A8;}
	.st23{clip-path:url(#XMLID_162_);}
	.st24{clip-path:url(#XMLID_163_);fill:#5EC2A8;}
	.st25{clip-path:url(#XMLID_164_);}
	.st26{clip-path:url(#XMLID_165_);fill:#5EC2A8;}
	.st27{clip-path:url(#XMLID_166_);}
	.st28{clip-path:url(#XMLID_167_);fill:#5EC2A8;}
	.st29{clip-path:url(#XMLID_168_);}
	.st30{clip-path:url(#XMLID_169_);fill:#5EC2A8;}
	.st31{clip-path:url(#XMLID_170_);}
	.st32{clip-path:url(#XMLID_171_);fill:#5EC2A8;}
	.st33{clip-path:url(#XMLID_172_);}
	.st34{clip-path:url(#XMLID_173_);fill:#5EC2A8;}
	.st35{clip-path:url(#XMLID_174_);}
	.st36{clip-path:url(#XMLID_175_);fill:#5EC2A8;}
	.st37{clip-path:url(#XMLID_176_);}
	.st38{clip-path:url(#XMLID_177_);fill:#5EC2A8;}
	.st39{clip-path:url(#XMLID_178_);}
	.st40{clip-path:url(#XMLID_179_);fill:#5EC2A8;}
	.st41{clip-path:url(#XMLID_180_);}
	.st42{clip-path:url(#XMLID_181_);fill:#5EC2A8;}
	.st43{clip-path:url(#XMLID_182_);}
	.st44{clip-path:url(#XMLID_183_);fill:#5EC2A8;}
	.st45{clip-path:url(#XMLID_184_);}
	.st46{clip-path:url(#XMLID_185_);fill:#5EC2A8;}
</style>
<g id="XMLID_132_">
	<defs>
		<path id="XMLID_133_" d="M115.1,61.4H27.7l11.6-25.6c1-2.1,3.1-3.5,5.5-3.5H98c2.3,0,4.5,1.4,5.5,3.5L115.1,61.4z M31.4,58.9h79.9
			l-10.1-22.2c-0.6-1.3-1.9-2.1-3.3-2.1H44.8c-1.4,0-2.7,0.8-3.3,2.1L31.4,58.9z"/>
	</defs>
	<clipPath id="XMLID_139_">
		<use xlink:href="#XMLID_133_"  style="overflow:visible;"/>
	</clipPath>
	<g id="XMLID_136_" class="st0">
		<defs>
			<rect id="XMLID_137_" x="-400.1" y="-694" width="1440" height="1519"/>
		</defs>
		<clipPath id="XMLID_140_">
			<use xlink:href="#XMLID_137_"  style="overflow:visible;"/>
		</clipPath>
		<rect id="XMLID_138_" x="22.7" y="27.2" class="st1" width="97.5" height="39.1"/>
	</g>
</g>
<g id="XMLID_2_">
	<defs>
		<rect id="XMLID_3_" x="0.5" y="0.2" width="152" height="97.5"/>
	</defs>
	<clipPath id="XMLID_141_">
		<use xlink:href="#XMLID_3_"  style="overflow:visible;"/>
	</clipPath>
	<g id="XMLID_4_" class="st2">
		<defs>
			<rect id="XMLID_5_" x="-400.1" y="-694" width="1440" height="1519"/>
		</defs>
		<clipPath id="XMLID_142_">
			<use xlink:href="#XMLID_5_"  style="overflow:visible;"/>
		</clipPath>
		<g id="XMLID_6_" class="st3">
			<g id="XMLID_7_">
				<defs>
					<rect id="XMLID_8_" x="-0.5" y="-1.2" width="154" height="99"/>
				</defs>
				<clipPath id="XMLID_143_">
					<use xlink:href="#XMLID_8_"  style="overflow:visible;"/>
				</clipPath>
				<g id="XMLID_125_" class="st4">
					<defs>
						<path id="XMLID_126_" d="M105.1,97.8H37.8V58.9h67.3V97.8z M40.2,95.3h62.5v-34H40.2V95.3z"/>
					</defs>
					<clipPath id="XMLID_144_">
						<use xlink:href="#XMLID_126_"  style="overflow:visible;"/>
					</clipPath>
					<g id="XMLID_129_" class="st5">
						<defs>
							<rect id="XMLID_130_" x="0.5" y="-0.2" width="153" height="98"/>
						</defs>
						<clipPath id="XMLID_145_">
							<use xlink:href="#XMLID_130_"  style="overflow:visible;"/>
						</clipPath>
						<rect id="XMLID_131_" x="32.8" y="53.9" class="st6" width="77.3" height="48.8"/>
					</g>
				</g>
				<g id="XMLID_118_" class="st4">
					<defs>
						<path id="XMLID_119_" d="M36.6,27.1H0.7l-0.1-0.5c-0.1-0.9-0.1-1.8,0-2.6c0.7-4.3,4.8-7.2,9.1-6.4c0.8,0.1,1.6,0.4,2.3,0.8
							c2.4-5.2,8.3-8.2,14.3-7.1c3.4,0.6,6.3,2.5,8.3,5.3c2,2.8,2.7,6.2,2.2,9.6c0,0.2-0.1,0.3-0.1,0.5L36.6,27.1z M1.7,25.8h33.9
							c0.5-3.1-0.2-6.1-2-8.7c-1.8-2.6-4.5-4.3-7.5-4.8c-5.6-1-11.3,2-13.2,7l-0.3,0.7L12,19.7c-0.7-0.5-1.6-0.8-2.5-1
							c-3.6-0.6-7.1,1.8-7.7,5.4C1.7,24.7,1.7,25.3,1.7,25.8z"/>
					</defs>
					<clipPath id="XMLID_146_">
						<use xlink:href="#XMLID_119_"  style="overflow:visible;"/>
					</clipPath>
					<g id="XMLID_122_" class="st7">
						<defs>
							<rect id="XMLID_123_" x="0.5" y="-0.2" width="153" height="98"/>
						</defs>
						<clipPath id="XMLID_147_">
							<use xlink:href="#XMLID_123_"  style="overflow:visible;"/>
						</clipPath>
						<rect id="XMLID_124_" x="-4.5" y="6" class="st8" width="46.5" height="26.1"/>
					</g>
				</g>
				<g id="XMLID_111_" class="st4">
					<defs>
						<path id="XMLID_112_" d="M96.6,22.9l-0.1-0.5c-0.1-1.2-0.1-2.5,0-3.7c0.4-3.5,2.1-6.6,4.3-8.1c1.5-1.1,3.3-1.4,5-1
							c0.8,0.2,1.6,0.6,2.3,1.1c2.2-6.9,8-11,14.5-10.3c5.2,0.6,8.1,6.4,9.1,9c2.3-3.3,5.4-5.2,8.8-5.2c6.6,0,11.9,7.2,11.9,15.9
							c0,0.7,0,1.5-0.1,2.2l-0.1,0.5L96.6,22.9z M104.4,10.6c-1,0-1.9,0.3-2.8,0.9c-2,1.4-3.4,4.1-3.8,7.3c-0.1,1-0.1,1.9-0.1,2.9
							l53.6,0c0-0.5,0.1-1,0.1-1.6c0-8.1-4.8-14.7-10.7-14.7c-3.3,0-6.4,2.1-8.4,5.6l-0.7,1.2l-0.4-1.3c0-0.1-2.8-8.7-8.6-9.4
							c-6.3-0.7-11.6,3.4-13.5,10.3l-0.3,1l-0.7-0.7c-0.8-0.7-1.6-1.2-2.5-1.4C105.2,10.6,104.8,10.6,104.4,10.6z"/>
					</defs>
					<clipPath id="XMLID_148_">
						<use xlink:href="#XMLID_112_"  style="overflow:visible;"/>
					</clipPath>
					<g id="XMLID_115_" class="st9">
						<defs>
							<rect id="XMLID_116_" x="0.5" y="-0.2" width="153" height="98"/>
						</defs>
						<clipPath id="XMLID_149_">
							<use xlink:href="#XMLID_116_"  style="overflow:visible;"/>
						</clipPath>
						<rect id="XMLID_117_" x="91.4" y="-4.8" class="st10" width="66.1" height="32.7"/>
					</g>
				</g>
				<g id="XMLID_104_" class="st4">
					<defs>
						<path id="XMLID_105_" d="M13.5,88.8C7.1,88.8,2,83.7,2,77.3c0-6,4.8-17.1,11.5-17.1S25,71.3,25,77.3
							C25,83.7,19.8,88.8,13.5,88.8 M13.5,62.6c-4.6,0-9.1,9.3-9.1,14.7c0,5,4.1,9.1,9.1,9.1s9.1-4.1,9.1-9.1
							C22.6,71.9,18.1,62.6,13.5,62.6"/>
					</defs>
					<clipPath id="XMLID_150_">
						<use xlink:href="#XMLID_105_"  style="overflow:visible;"/>
					</clipPath>
					<g id="XMLID_108_" class="st11">
						<defs>
							<rect id="XMLID_109_" x="0.5" y="-0.2" width="153" height="98"/>
						</defs>
						<clipPath id="XMLID_151_">
							<use xlink:href="#XMLID_109_"  style="overflow:visible;"/>
						</clipPath>
						<rect id="XMLID_110_" x="-3" y="55.2" class="st12" width="33" height="38.7"/>
					</g>
				</g>
				<g id="XMLID_99_" class="st4">
					<defs>
						<rect id="XMLID_100_" x="12.9" y="68.6" width="1.2" height="28.5"/>
					</defs>
					<clipPath id="XMLID_152_">
						<use xlink:href="#XMLID_100_"  style="overflow:visible;"/>
					</clipPath>
					<g id="XMLID_101_" class="st13">
						<defs>
							<rect id="XMLID_102_" x="0.5" y="-0.2" width="153" height="98"/>
						</defs>
						<clipPath id="XMLID_153_">
							<use xlink:href="#XMLID_102_"  style="overflow:visible;"/>
						</clipPath>
						<rect id="XMLID_103_" x="7.9" y="63.6" class="st14" width="11.2" height="38.5"/>
					</g>
				</g>
				<g id="XMLID_94_" class="st4">
					<defs>
						<rect id="XMLID_95_" x="3" y="96.6" width="136.9" height="1.2"/>
					</defs>
					<clipPath id="XMLID_154_">
						<use xlink:href="#XMLID_95_"  style="overflow:visible;"/>
					</clipPath>
					<g id="XMLID_96_" class="st15">
						<defs>
							<rect id="XMLID_97_" x="0.5" y="-0.2" width="153" height="98"/>
						</defs>
						<clipPath id="XMLID_155_">
							<use xlink:href="#XMLID_97_"  style="overflow:visible;"/>
						</clipPath>
						<rect id="XMLID_98_" x="-2" y="91.6" class="st16" width="146.9" height="11.2"/>
					</g>
				</g>
				<g id="XMLID_87_" class="st4">
					<defs>
						<path id="XMLID_88_" d="M98.7,92.4H82.9V66.7h15.8V92.4z M84.1,91.2h13.4V67.9H84.1V91.2z"/>
					</defs>
					<clipPath id="XMLID_156_">
						<use xlink:href="#XMLID_88_"  style="overflow:visible;"/>
					</clipPath>
					<g id="XMLID_91_" class="st17">
						<defs>
							<rect id="XMLID_92_" x="0.5" y="-0.2" width="153" height="98"/>
						</defs>
						<clipPath id="XMLID_157_">
							<use xlink:href="#XMLID_92_"  style="overflow:visible;"/>
						</clipPath>
						<rect id="XMLID_93_" x="77.9" y="61.7" class="st18" width="25.8" height="35.7"/>
					</g>
				</g>
				<g id="XMLID_80_" class="st4">
					<defs>
						<path id="XMLID_81_" d="M63.5,82.1H48.4V68.5h15.2V82.1z M49.6,80.9h12.7V69.8H49.6V80.9z"/>
					</defs>
					<clipPath id="XMLID_158_">
						<use xlink:href="#XMLID_81_"  style="overflow:visible;"/>
					</clipPath>
					<g id="XMLID_84_" class="st19">
						<defs>
							<rect id="XMLID_85_" x="0.5" y="-0.2" width="153" height="98"/>
						</defs>
						<clipPath id="XMLID_159_">
							<use xlink:href="#XMLID_85_"  style="overflow:visible;"/>
						</clipPath>
						<rect id="XMLID_86_" x="43.4" y="63.5" class="st20" width="25.2" height="23.5"/>
					</g>
				</g>
				<g id="XMLID_75_" class="st4">
					<defs>
						<rect id="XMLID_76_" x="48.6" y="39.1" width="4.9" height="1.2"/>
					</defs>
					<clipPath id="XMLID_160_">
						<use xlink:href="#XMLID_76_"  style="overflow:visible;"/>
					</clipPath>
					<g id="XMLID_77_" class="st21">
						<defs>
							<rect id="XMLID_78_" x="0.5" y="-0.2" width="153" height="98"/>
						</defs>
						<clipPath id="XMLID_161_">
							<use xlink:href="#XMLID_78_"  style="overflow:visible;"/>
						</clipPath>
						<rect id="XMLID_79_" x="43.6" y="34.1" class="st22" width="14.9" height="11.2"/>
					</g>
				</g>
				<g id="XMLID_70_" class="st4">
					<defs>
						<rect id="XMLID_71_" x="65.4" y="39.1" width="12" height="1.2"/>
					</defs>
					<clipPath id="XMLID_162_">
						<use xlink:href="#XMLID_71_"  style="overflow:visible;"/>
					</clipPath>
					<g id="XMLID_72_" class="st23">
						<defs>
							<rect id="XMLID_73_" x="0.5" y="-0.2" width="153" height="98"/>
						</defs>
						<clipPath id="XMLID_163_">
							<use xlink:href="#XMLID_73_"  style="overflow:visible;"/>
						</clipPath>
						<rect id="XMLID_74_" x="60.4" y="34.1" class="st24" width="22" height="11.2"/>
					</g>
				</g>
				<g id="XMLID_65_" class="st4">
					<defs>
						<rect id="XMLID_66_" x="89.4" y="39.1" width="4.9" height="1.2"/>
					</defs>
					<clipPath id="XMLID_164_">
						<use xlink:href="#XMLID_66_"  style="overflow:visible;"/>
					</clipPath>
					<g id="XMLID_67_" class="st25">
						<defs>
							<rect id="XMLID_68_" x="0.5" y="-0.2" width="153" height="98"/>
						</defs>
						<clipPath id="XMLID_165_">
							<use xlink:href="#XMLID_68_"  style="overflow:visible;"/>
						</clipPath>
						<rect id="XMLID_69_" x="84.4" y="34.1" class="st26" width="14.9" height="11.2"/>
					</g>
				</g>
				<g id="XMLID_60_" class="st4">
					<defs>
						<rect id="XMLID_61_" x="43.9" y="46.2" width="4.9" height="1.2"/>
					</defs>
					<clipPath id="XMLID_166_">
						<use xlink:href="#XMLID_61_"  style="overflow:visible;"/>
					</clipPath>
					<g id="XMLID_62_" class="st27">
						<defs>
							<rect id="XMLID_63_" x="0.5" y="-0.2" width="153" height="98"/>
						</defs>
						<clipPath id="XMLID_167_">
							<use xlink:href="#XMLID_63_"  style="overflow:visible;"/>
						</clipPath>
						<rect id="XMLID_64_" x="38.9" y="41.2" class="st28" width="14.9" height="11.2"/>
					</g>
				</g>
				<g id="XMLID_53_" class="st4">
					<defs>
						<path id="XMLID_54_" d="M85,47.4H76v-1.2H85V47.4z M66.9,47.4h-9.1v-1.2h9.1V47.4z"/>
					</defs>
					<clipPath id="XMLID_168_">
						<use xlink:href="#XMLID_54_"  style="overflow:visible;"/>
					</clipPath>
					<g id="XMLID_57_" class="st29">
						<defs>
							<rect id="XMLID_58_" x="0.5" y="-0.2" width="153" height="98"/>
						</defs>
						<clipPath id="XMLID_169_">
							<use xlink:href="#XMLID_58_"  style="overflow:visible;"/>
						</clipPath>
						<rect id="XMLID_59_" x="52.8" y="41.2" class="st30" width="37.2" height="11.2"/>
					</g>
				</g>
				<g id="XMLID_48_" class="st4">
					<defs>
						<rect id="XMLID_49_" x="94.1" y="46.2" width="4.9" height="1.2"/>
					</defs>
					<clipPath id="XMLID_170_">
						<use xlink:href="#XMLID_49_"  style="overflow:visible;"/>
					</clipPath>
					<g id="XMLID_50_" class="st31">
						<defs>
							<rect id="XMLID_51_" x="0.5" y="-0.2" width="153" height="98"/>
						</defs>
						<clipPath id="XMLID_171_">
							<use xlink:href="#XMLID_51_"  style="overflow:visible;"/>
						</clipPath>
						<rect id="XMLID_52_" x="89.1" y="41.2" class="st32" width="14.9" height="11.2"/>
					</g>
				</g>
				<g id="XMLID_43_" class="st4">
					<defs>
						<rect id="XMLID_44_" x="40.7" y="52.9" width="4.9" height="1.2"/>
					</defs>
					<clipPath id="XMLID_172_">
						<use xlink:href="#XMLID_44_"  style="overflow:visible;"/>
					</clipPath>
					<g id="XMLID_45_" class="st33">
						<defs>
							<rect id="XMLID_46_" x="0.5" y="-0.2" width="153" height="98"/>
						</defs>
						<clipPath id="XMLID_173_">
							<use xlink:href="#XMLID_46_"  style="overflow:visible;"/>
						</clipPath>
						<rect id="XMLID_47_" x="35.7" y="47.9" class="st34" width="14.9" height="11.2"/>
					</g>
				</g>
				<g id="XMLID_36_" class="st4">
					<defs>
						<path id="XMLID_37_" d="M86.9,54.1H76.6v-1.2h10.3V54.1z M66.2,54.1H55.9v-1.2h10.3V54.1z"/>
					</defs>
					<clipPath id="XMLID_174_">
						<use xlink:href="#XMLID_37_"  style="overflow:visible;"/>
					</clipPath>
					<g id="XMLID_40_" class="st35">
						<defs>
							<rect id="XMLID_41_" x="0.5" y="-0.2" width="153" height="98"/>
						</defs>
						<clipPath id="XMLID_175_">
							<use xlink:href="#XMLID_41_"  style="overflow:visible;"/>
						</clipPath>
						<rect id="XMLID_42_" x="50.9" y="47.9" class="st36" width="41" height="11.2"/>
					</g>
				</g>
				<g id="XMLID_31_" class="st4">
					<defs>
						<rect id="XMLID_32_" x="97.2" y="52.9" width="4.9" height="1.2"/>
					</defs>
					<clipPath id="XMLID_176_">
						<use xlink:href="#XMLID_32_"  style="overflow:visible;"/>
					</clipPath>
					<g id="XMLID_33_" class="st37">
						<defs>
							<rect id="XMLID_34_" x="0.5" y="-0.2" width="153" height="98"/>
						</defs>
						<clipPath id="XMLID_177_">
							<use xlink:href="#XMLID_34_"  style="overflow:visible;"/>
						</clipPath>
						<rect id="XMLID_35_" x="92.2" y="47.9" class="st38" width="14.9" height="11.2"/>
					</g>
				</g>
				<g id="XMLID_26_" class="st4">
					<defs>
						<polygon id="XMLID_27_" points="13.5,81.5 7.9,73.5 8.4,73.1 13.5,80.5 18.5,74.3 19,74.7 						"/>
					</defs>
					<clipPath id="XMLID_178_">
						<use xlink:href="#XMLID_27_"  style="overflow:visible;"/>
					</clipPath>
					<g id="XMLID_28_" class="st39">
						<defs>
							<rect id="XMLID_29_" x="0.5" y="-0.2" width="153" height="98"/>
						</defs>
						<clipPath id="XMLID_179_">
							<use xlink:href="#XMLID_29_"  style="overflow:visible;"/>
						</clipPath>
						<rect id="XMLID_30_" x="2.9" y="68.1" class="st40" width="21.1" height="18.4"/>
					</g>
				</g>
				<g id="XMLID_19_" class="st4">
					<defs>
						<path id="XMLID_20_" d="M124.5,89.9c-5.9,0-10.6-4.8-10.6-10.6c0-5.5,4.4-15.7,10.6-15.7s10.6,10.2,10.6,15.7
							C135.1,85.1,130.3,89.9,124.5,89.9 M124.5,66c-4.1,0-8.2,8.4-8.2,13.3c0,4.5,3.7,8.2,8.2,8.2c4.5,0,8.2-3.7,8.2-8.2
							C132.7,74.4,128.6,66,124.5,66"/>
					</defs>
					<clipPath id="XMLID_180_">
						<use xlink:href="#XMLID_20_"  style="overflow:visible;"/>
					</clipPath>
					<g id="XMLID_23_" class="st41">
						<defs>
							<rect id="XMLID_24_" x="0.5" y="-0.2" width="153" height="98"/>
						</defs>
						<clipPath id="XMLID_181_">
							<use xlink:href="#XMLID_24_"  style="overflow:visible;"/>
						</clipPath>
						<rect id="XMLID_25_" x="108.9" y="58.5" class="st42" width="31.2" height="36.4"/>
					</g>
				</g>
				<g id="XMLID_14_" class="st4">
					<defs>
						<rect id="XMLID_15_" x="123.9" y="71.4" width="1.2" height="26"/>
					</defs>
					<clipPath id="XMLID_182_">
						<use xlink:href="#XMLID_15_"  style="overflow:visible;"/>
					</clipPath>
					<g id="XMLID_16_" class="st43">
						<defs>
							<rect id="XMLID_17_" x="0.5" y="-0.2" width="153" height="98"/>
						</defs>
						<clipPath id="XMLID_183_">
							<use xlink:href="#XMLID_17_"  style="overflow:visible;"/>
						</clipPath>
						<rect id="XMLID_18_" x="118.9" y="66.4" class="st44" width="11.2" height="36"/>
					</g>
				</g>
				<g id="XMLID_9_" class="st4">
					<defs>
						<polygon id="XMLID_10_" points="124.5,83.2 119.4,75.8 119.9,75.5 124.5,82.1 129,76.5 129.5,76.9 						"/>
					</defs>
					<clipPath id="XMLID_184_">
						<use xlink:href="#XMLID_10_"  style="overflow:visible;"/>
					</clipPath>
					<g id="XMLID_11_" class="st45">
						<defs>
							<rect id="XMLID_12_" x="0.5" y="-0.2" width="153" height="98"/>
						</defs>
						<clipPath id="XMLID_185_">
							<use xlink:href="#XMLID_12_"  style="overflow:visible;"/>
						</clipPath>
						<rect id="XMLID_13_" x="114.4" y="70.5" class="st46" width="20.1" height="17.7"/>
					</g>
				</g>
			</g>
		</g>
	</g>
</g>
</svg>
