<?xml version="1.0" encoding="utf-8"?>
<!-- Generator: Adobe Illustrator 19.0.0, SVG Export Plug-In . SVG Version: 6.00 Build 0)  -->
<svg version="1.1" id="Layer_1" xmlns="http://www.w3.org/2000/svg" xmlns:xlink="http://www.w3.org/1999/xlink" x="0px" y="0px"
	 viewBox="0 0 30 30" style="enable-background:new 0 0 30 30;" xml:space="preserve">
<style type="text/css">
	.st0{clip-path:url(#SVGID_2_);}
	.st1{clip-path:url(#SVGID_4_);fill:#010101;}
	.st2{clip-path:url(#SVGID_6_);}
	.st3{clip-path:url(#SVGID_8_);fill:#010101;}
	.st4{clip-path:url(#SVGID_10_);}
	.st5{clip-path:url(#SVGID_12_);fill:#010101;}
	.st6{clip-path:url(#SVGID_14_);}
	.st7{clip-path:url(#SVGID_16_);fill:#010101;}
	.st8{clip-path:url(#SVGID_18_);}
	.st9{clip-path:url(#SVGID_20_);fill:#010101;}
	.st10{clip-path:url(#SVGID_22_);}
	.st11{clip-path:url(#SVGID_24_);fill:#010101;}
	.st12{clip-path:url(#SVGID_26_);}
	.st13{clip-path:url(#SVGID_28_);fill:#010101;}
	.st14{clip-path:url(#SVGID_30_);}
	.st15{clip-path:url(#SVGID_32_);fill:#010101;}
	.st16{clip-path:url(#SVGID_34_);}
	.st17{clip-path:url(#SVGID_36_);fill:#010101;}
	.st18{clip-path:url(#SVGID_38_);}
	.st19{clip-path:url(#SVGID_40_);fill:#010101;}
	.st20{clip-path:url(#SVGID_42_);}
	.st21{clip-path:url(#SVGID_44_);fill:#010101;}
	.st22{clip-path:url(#SVGID_46_);}
	.st23{clip-path:url(#SVGID_48_);fill:#010101;}
	.st24{clip-path:url(#SVGID_50_);}
	.st25{clip-path:url(#SVGID_52_);fill:#010101;}
	.st26{clip-path:url(#SVGID_54_);}
	.st27{clip-path:url(#SVGID_56_);fill:#010101;}
	.st28{clip-path:url(#SVGID_58_);}
	.st29{clip-path:url(#SVGID_60_);fill:#010101;}
	.st30{clip-path:url(#XMLID_77_);}
	.st31{clip-path:url(#XMLID_78_);fill:#010101;}
	.st32{clip-path:url(#XMLID_79_);}
	.st33{clip-path:url(#XMLID_80_);fill:#010101;}
	.st34{clip-path:url(#XMLID_81_);}
	.st35{clip-path:url(#XMLID_82_);fill:#010101;}
	.st36{clip-path:url(#XMLID_83_);}
	.st37{clip-path:url(#XMLID_84_);fill:#010101;}
	.st38{clip-path:url(#XMLID_85_);}
	.st39{clip-path:url(#XMLID_86_);fill:#010101;}
	.st40{clip-path:url(#XMLID_87_);}
	.st41{clip-path:url(#XMLID_88_);fill:#010101;}
	.st42{clip-path:url(#XMLID_89_);}
	.st43{clip-path:url(#XMLID_90_);fill:#010101;}
	.st44{clip-path:url(#XMLID_91_);}
	.st45{clip-path:url(#XMLID_92_);fill:#010101;}
	.st46{clip-path:url(#XMLID_93_);}
	.st47{clip-path:url(#XMLID_94_);fill:#010101;}
	.st48{clip-path:url(#XMLID_95_);}
	.st49{clip-path:url(#XMLID_96_);fill:#010101;}
	.st50{clip-path:url(#XMLID_97_);}
	.st51{clip-path:url(#XMLID_98_);fill:#010101;}
	.st52{clip-path:url(#XMLID_99_);}
	.st53{clip-path:url(#XMLID_100_);fill:#010101;}
	.st54{clip-path:url(#XMLID_101_);}
	.st55{clip-path:url(#XMLID_102_);fill:#010101;}
	.st56{clip-path:url(#XMLID_103_);}
	.st57{clip-path:url(#XMLID_104_);fill:#010101;}
	.st58{clip-path:url(#XMLID_105_);}
	.st59{clip-path:url(#XMLID_106_);fill:#010101;}
</style>
<g>
	<defs>
		<path id="SVGID_1_" d="M83.5-1320.1c-0.2,0-0.3,0.1-0.3,0.3v2.5l-2.1,1.4c-0.1,0.1-0.2,0.3-0.1,0.4c0.1,0.1,0.2,0.1,0.3,0.1
			c0.1,0,0.1,0,0.2,0l2.1-1.3l2.1,1.3c0.1,0,0.1,0,0.2,0c0.1,0,0.2,0,0.3-0.1c0.1-0.1,0.1-0.3-0.1-0.4l-2.1-1.4v-2.5
			C83.8-1320,83.7-1320.1,83.5-1320.1z"/>
	</defs>
	<clipPath id="SVGID_2_">
		<use xlink:href="#SVGID_1_"  style="overflow:visible;"/>
	</clipPath>
	<g class="st0">
		<defs>
			<rect id="SVGID_3_" x="-705" y="-2059" width="1440" height="4148"/>
		</defs>
		<clipPath id="SVGID_4_">
			<use xlink:href="#SVGID_3_"  style="overflow:visible;"/>
		</clipPath>
		<rect x="76" y="-1325.1" class="st1" width="15.1" height="14.8"/>
	</g>
</g>
<g>
	<defs>
		<path id="SVGID_5_" d="M91.7-1307.3l-2.1-1.4v-2.5c0-0.2-0.1-0.3-0.3-0.3c-0.2,0-0.3,0.1-0.3,0.3v2.5l-2.1,1.4
			c-0.1,0.1-0.2,0.3-0.1,0.4c0.1,0.1,0.2,0.1,0.3,0.1c0.1,0,0.1,0,0.2,0l2.1-1.3l2.1,1.3c0.1,0,0.1,0,0.2,0c0.1,0,0.2,0,0.3-0.1
			C91.9-1307,91.9-1307.2,91.7-1307.3z"/>
	</defs>
	<clipPath id="SVGID_6_">
		<use xlink:href="#SVGID_5_"  style="overflow:visible;"/>
	</clipPath>
	<g class="st2">
		<defs>
			<rect id="SVGID_7_" x="-705" y="-2059" width="1440" height="4148"/>
		</defs>
		<clipPath id="SVGID_8_">
			<use xlink:href="#SVGID_7_"  style="overflow:visible;"/>
		</clipPath>
		<rect x="81.8" y="-1316.5" class="st3" width="15.1" height="14.8"/>
	</g>
</g>
<g>
	<defs>
		<path id="SVGID_9_" d="M80.2-1307.3l-2.1-1.4v-2.5c0-0.2-0.1-0.3-0.3-0.3s-0.3,0.1-0.3,0.3v2.5l-2.1,1.4c-0.1,0.1-0.2,0.3-0.1,0.4
			c0.1,0.1,0.2,0.1,0.3,0.1c0.1,0,0.1,0,0.2,0l2.1-1.3l2.1,1.3c0.1,0,0.1,0,0.2,0c0.1,0,0.2,0,0.3-0.1
			C80.4-1307,80.3-1307.2,80.2-1307.3z"/>
	</defs>
	<clipPath id="SVGID_10_">
		<use xlink:href="#SVGID_9_"  style="overflow:visible;"/>
	</clipPath>
	<g class="st4">
		<defs>
			<rect id="SVGID_11_" x="-705" y="-2059" width="1440" height="4148"/>
		</defs>
		<clipPath id="SVGID_12_">
			<use xlink:href="#SVGID_11_"  style="overflow:visible;"/>
		</clipPath>
		<rect x="70.2" y="-1316.5" class="st5" width="15.1" height="14.8"/>
	</g>
</g>
<g>
	<defs>
		<path id="SVGID_13_" d="M85.7-1323.4c-0.7-0.3-1.1-0.5-1.1-0.5l-0.5,1.7l-0.1,0.2l-0.2-0.7c0.6-0.8,0-0.8-0.1-0.8
			c-0.1,0-0.7,0-0.1,0.8l-0.2,0.7l-0.1-0.2l-0.5-1.7c0,0-0.4,0.3-1.1,0.5c-0.8,0.3-0.7,0.9-0.7,2.1h2.7h0.1h2.9
			C86.4-1322.5,86.4-1323.1,85.7-1323.4z"/>
	</defs>
	<clipPath id="SVGID_14_">
		<use xlink:href="#SVGID_13_"  style="overflow:visible;"/>
	</clipPath>
	<g class="st6">
		<defs>
			<rect id="SVGID_15_" x="-705" y="-2059" width="1440" height="4148"/>
		</defs>
		<clipPath id="SVGID_16_">
			<use xlink:href="#SVGID_15_"  style="overflow:visible;"/>
		</clipPath>
		<rect x="75.7" y="-1329" class="st7" width="15.8" height="12.7"/>
	</g>
</g>
<g>
	<defs>
		<path id="SVGID_17_" d="M82.3-1325.1c0.1,0.4,0.4,0.9,0.9,1.1c0.2,0.1,0.4,0.1,0.6,0c0.5-0.2,0.8-0.7,0.9-1.1
			c0.1,0,0.2-0.1,0.3-0.4c0.1-0.5,0-0.5-0.1-0.5c0-0.1,0-0.1,0.1-0.2c0.2-1.2-0.4-1.2-0.4-1.2s-0.1-0.2-0.4-0.3
			c-0.2-0.1-0.4-0.2-0.7-0.2c-0.1,0-0.2,0-0.3,0.1c-0.1,0-0.2,0.1-0.3,0.2c-0.1,0.1-0.2,0.2-0.3,0.3c-0.2,0.2-0.3,0.4-0.4,0.6
			c-0.1,0.2,0,0.4,0,0.6c0,0.1,0,0.1,0.1,0.2c-0.1,0-0.3,0.1-0.1,0.5C82.2-1325.2,82.3-1325.1,82.3-1325.1z"/>
	</defs>
	<clipPath id="SVGID_18_">
		<use xlink:href="#SVGID_17_"  style="overflow:visible;"/>
	</clipPath>
	<g class="st8">
		<defs>
			<rect id="SVGID_19_" x="-705" y="-2059" width="1440" height="4148"/>
		</defs>
		<clipPath id="SVGID_20_">
			<use xlink:href="#SVGID_19_"  style="overflow:visible;"/>
		</clipPath>
		<rect x="77" y="-1332.9" class="st9" width="13" height="14"/>
	</g>
</g>
<g>
	<defs>
		<path id="SVGID_21_" d="M91.5-1314.8c-0.7-0.3-1.1-0.5-1.1-0.5l-0.5,1.7l-0.1,0.2l-0.2-0.7c0.6-0.8,0-0.8-0.1-0.8
			c-0.1,0-0.7,0-0.1,0.8l-0.2,0.7l-0.1-0.2l-0.5-1.7c0,0-0.4,0.3-1.1,0.5c-0.8,0.3-0.7,0.9-0.7,2.1h2.7h0.1h2.9
			C92.2-1313.9,92.3-1314.5,91.5-1314.8z"/>
	</defs>
	<clipPath id="SVGID_22_">
		<use xlink:href="#SVGID_21_"  style="overflow:visible;"/>
	</clipPath>
	<g class="st10">
		<defs>
			<rect id="SVGID_23_" x="-705" y="-2059" width="1440" height="4148"/>
		</defs>
		<clipPath id="SVGID_24_">
			<use xlink:href="#SVGID_23_"  style="overflow:visible;"/>
		</clipPath>
		<rect x="81.5" y="-1320.3" class="st11" width="15.8" height="12.7"/>
	</g>
</g>
<g>
	<defs>
		<path id="SVGID_25_" d="M88.1-1316.4c0.1,0.4,0.4,0.9,0.9,1.1c0.2,0.1,0.4,0.1,0.6,0c0.5-0.2,0.8-0.7,0.9-1.1
			c0.1,0,0.2-0.1,0.3-0.4c0.1-0.5,0-0.5-0.1-0.5c0-0.1,0-0.1,0.1-0.2c0.2-1.2-0.4-1.2-0.4-1.2s-0.1-0.2-0.4-0.3
			c-0.2-0.1-0.4-0.2-0.7-0.2c-0.1,0-0.2,0-0.3,0.1c-0.1,0-0.2,0.1-0.3,0.2c-0.1,0.1-0.2,0.2-0.3,0.3c-0.2,0.2-0.3,0.4-0.4,0.6
			c-0.1,0.2,0,0.4,0,0.6c0,0.1,0,0.1,0.1,0.2c-0.1,0-0.3,0.1-0.1,0.5C88-1316.5,88.1-1316.4,88.1-1316.4z"/>
	</defs>
	<clipPath id="SVGID_26_">
		<use xlink:href="#SVGID_25_"  style="overflow:visible;"/>
	</clipPath>
	<g class="st12">
		<defs>
			<rect id="SVGID_27_" x="-705" y="-2059" width="1440" height="4148"/>
		</defs>
		<clipPath id="SVGID_28_">
			<use xlink:href="#SVGID_27_"  style="overflow:visible;"/>
		</clipPath>
		<rect x="82.8" y="-1324.3" class="st13" width="13" height="14"/>
	</g>
</g>
<g>
	<defs>
		<path id="SVGID_29_" d="M79.9-1314.8c-0.7-0.3-1.1-0.5-1.1-0.5l-0.5,1.7l-0.1,0.2l-0.2-0.7c0.6-0.8,0-0.8-0.1-0.8
			c-0.1,0-0.7,0-0.1,0.8l-0.2,0.7l-0.1-0.2l-0.5-1.7c0,0-0.4,0.3-1.1,0.5c-0.8,0.3-0.7,0.9-0.7,2.1h2.7h0.1h2.9
			C80.6-1313.9,80.6-1314.5,79.9-1314.8z"/>
	</defs>
	<clipPath id="SVGID_30_">
		<use xlink:href="#SVGID_29_"  style="overflow:visible;"/>
	</clipPath>
	<g class="st14">
		<defs>
			<rect id="SVGID_31_" x="-705" y="-2059" width="1440" height="4148"/>
		</defs>
		<clipPath id="SVGID_32_">
			<use xlink:href="#SVGID_31_"  style="overflow:visible;"/>
		</clipPath>
		<rect x="69.8" y="-1320.4" class="st15" width="15.8" height="12.7"/>
	</g>
</g>
<g>
	<defs>
		<path id="SVGID_33_" d="M76.5-1316.5c0.1,0.4,0.4,0.9,0.9,1.1c0.2,0.1,0.4,0.1,0.6,0c0.5-0.2,0.8-0.7,0.9-1.1
			c0.1,0,0.2-0.1,0.3-0.4c0.1-0.5,0-0.5-0.1-0.5c0-0.1,0-0.1,0.1-0.2c0.2-1.2-0.4-1.2-0.4-1.2s-0.1-0.2-0.4-0.3
			c-0.2-0.1-0.4-0.2-0.7-0.2c-0.1,0-0.2,0-0.3,0.1c-0.1,0-0.2,0.1-0.3,0.2c-0.1,0.1-0.2,0.2-0.3,0.3c-0.2,0.2-0.3,0.4-0.4,0.6
			c-0.1,0.2,0,0.4,0,0.6c0,0.1,0,0.1,0.1,0.2c-0.1,0-0.3,0.1-0.1,0.5C76.4-1316.6,76.4-1316.5,76.5-1316.5z"/>
	</defs>
	<clipPath id="SVGID_34_">
		<use xlink:href="#SVGID_33_"  style="overflow:visible;"/>
	</clipPath>
	<g class="st16">
		<defs>
			<rect id="SVGID_35_" x="-705" y="-2059" width="1440" height="4148"/>
		</defs>
		<clipPath id="SVGID_36_">
			<use xlink:href="#SVGID_35_"  style="overflow:visible;"/>
		</clipPath>
		<rect x="71.2" y="-1324.3" class="st17" width="13" height="14"/>
	</g>
</g>
<g>
	<defs>
		<path id="SVGID_37_" d="M97.2-1306.2c-0.7-0.3-1.1-0.5-1.1-0.5l-0.5,1.7l-0.1,0.2l-0.2-0.7c0.6-0.8,0-0.8-0.1-0.8
			c-0.1,0-0.7,0-0.1,0.8l-0.2,0.7l-0.1-0.2l-0.5-1.7c0,0-0.4,0.3-1.1,0.5c-0.8,0.3-0.7,0.9-0.7,2.1H95h0.1H98
			C98-1305.3,98-1305.9,97.2-1306.2z"/>
	</defs>
	<clipPath id="SVGID_38_">
		<use xlink:href="#SVGID_37_"  style="overflow:visible;"/>
	</clipPath>
	<g class="st18">
		<defs>
			<rect id="SVGID_39_" x="-705" y="-2059" width="1440" height="4148"/>
		</defs>
		<clipPath id="SVGID_40_">
			<use xlink:href="#SVGID_39_"  style="overflow:visible;"/>
		</clipPath>
		<rect x="87.2" y="-1311.7" class="st19" width="15.8" height="12.7"/>
	</g>
</g>
<g>
	<defs>
		<path id="SVGID_41_" d="M93.9-1307.8c0.1,0.4,0.4,0.9,0.9,1.1c0.2,0.1,0.4,0.1,0.6,0c0.5-0.2,0.8-0.7,0.9-1.1
			c0.1,0,0.2-0.1,0.3-0.4c0.1-0.5,0-0.5-0.1-0.5c0-0.1,0-0.1,0.1-0.2c0.2-1.2-0.4-1.2-0.4-1.2s-0.1-0.2-0.4-0.3
			c-0.2-0.1-0.4-0.2-0.7-0.2c-0.1,0-0.2,0-0.3,0.1c-0.1,0-0.2,0.1-0.3,0.2c-0.1,0.1-0.2,0.2-0.3,0.3c-0.2,0.2-0.3,0.4-0.4,0.6
			c-0.1,0.2,0,0.4,0,0.6c0,0.1,0,0.1,0.1,0.2c-0.1,0-0.3,0.1-0.1,0.5C93.7-1307.9,93.8-1307.8,93.9-1307.8z"/>
	</defs>
	<clipPath id="SVGID_42_">
		<use xlink:href="#SVGID_41_"  style="overflow:visible;"/>
	</clipPath>
	<g class="st20">
		<defs>
			<rect id="SVGID_43_" x="-705" y="-2059" width="1440" height="4148"/>
		</defs>
		<clipPath id="SVGID_44_">
			<use xlink:href="#SVGID_43_"  style="overflow:visible;"/>
		</clipPath>
		<rect x="88.6" y="-1315.7" class="st21" width="13" height="14"/>
	</g>
</g>
<g>
	<defs>
		<path id="SVGID_45_" d="M85.6-1306.2c-0.7-0.3-1.1-0.5-1.1-0.5L84-1305l-0.1,0.2l-0.2-0.7c0.6-0.8,0-0.8-0.1-0.8
			c-0.1,0-0.7,0-0.1,0.8l-0.2,0.7L83-1305l-0.5-1.7c0,0-0.4,0.3-1.1,0.5c-0.8,0.3-0.7,0.9-0.7,2.1h2.7h0.1h2.9
			C86.4-1305.3,86.4-1305.9,85.6-1306.2z"/>
	</defs>
	<clipPath id="SVGID_46_">
		<use xlink:href="#SVGID_45_"  style="overflow:visible;"/>
	</clipPath>
	<g class="st22">
		<defs>
			<rect id="SVGID_47_" x="-705" y="-2059" width="1440" height="4148"/>
		</defs>
		<clipPath id="SVGID_48_">
			<use xlink:href="#SVGID_47_"  style="overflow:visible;"/>
		</clipPath>
		<rect x="75.6" y="-1311.8" class="st23" width="15.8" height="12.7"/>
	</g>
</g>
<g>
	<defs>
		<path id="SVGID_49_" d="M82-1308.3c0.1,0.3,0.2,0.4,0.3,0.4c0.1,0.4,0.4,0.9,0.9,1.1c0.2,0.1,0.4,0.1,0.6,0
			c0.5-0.2,0.8-0.7,0.9-1.1c0.1,0,0.2-0.1,0.3-0.4c0.1-0.5,0-0.5-0.1-0.5c0-0.1,0-0.1,0.1-0.2c0.2-1.2-0.4-1.2-0.4-1.2
			s-0.1-0.2-0.4-0.3c-0.2-0.1-0.4-0.2-0.7-0.2c-0.1,0-0.2,0-0.3,0.1c-0.1,0-0.2,0.1-0.3,0.2c-0.1,0.1-0.2,0.2-0.3,0.3
			c-0.2,0.2-0.3,0.4-0.4,0.6c-0.1,0.2,0,0.4,0,0.6c0,0.1,0,0.1,0.1,0.2C82-1308.8,81.9-1308.7,82-1308.3z"/>
	</defs>
	<clipPath id="SVGID_50_">
		<use xlink:href="#SVGID_49_"  style="overflow:visible;"/>
	</clipPath>
	<g class="st24">
		<defs>
			<rect id="SVGID_51_" x="-705" y="-2059" width="1440" height="4148"/>
		</defs>
		<clipPath id="SVGID_52_">
			<use xlink:href="#SVGID_51_"  style="overflow:visible;"/>
		</clipPath>
		<rect x="77" y="-1315.7" class="st25" width="13" height="14"/>
	</g>
</g>
<g>
	<defs>
		<path id="SVGID_53_" d="M74-1306.2c-0.7-0.3-1.1-0.5-1.1-0.5l-0.5,1.7l-0.1,0.2l-0.2-0.7c0.6-0.8,0-0.8-0.1-0.8
			c-0.1,0-0.7,0-0.1,0.8l-0.2,0.7l-0.1-0.2l-0.5-1.7c0,0-0.4,0.3-1.1,0.5c-0.8,0.3-0.7,0.9-0.7,2.1h2.7h0.1h2.9
			C74.7-1305.3,74.8-1305.9,74-1306.2z"/>
	</defs>
	<clipPath id="SVGID_54_">
		<use xlink:href="#SVGID_53_"  style="overflow:visible;"/>
	</clipPath>
	<g class="st26">
		<defs>
			<rect id="SVGID_55_" x="-705" y="-2059" width="1440" height="4148"/>
		</defs>
		<clipPath id="SVGID_56_">
			<use xlink:href="#SVGID_55_"  style="overflow:visible;"/>
		</clipPath>
		<rect x="64" y="-1311.8" class="st27" width="15.8" height="12.7"/>
	</g>
</g>
<g>
	<defs>
		<path id="SVGID_57_" d="M70.7-1307.8c0.1,0.4,0.4,0.9,0.9,1.1c0.2,0.1,0.4,0.1,0.6,0c0.5-0.2,0.8-0.7,0.9-1.1
			c0.1,0,0.2-0.1,0.3-0.4c0.1-0.5,0-0.5-0.1-0.5c0-0.1,0-0.1,0.1-0.2c0.2-1.2-0.4-1.2-0.4-1.2s-0.1-0.2-0.4-0.3
			c-0.2-0.1-0.4-0.2-0.7-0.2c-0.1,0-0.2,0-0.3,0.1c-0.1,0-0.2,0.1-0.3,0.2c-0.1,0.1-0.2,0.2-0.3,0.3c-0.2,0.2-0.3,0.4-0.4,0.6
			c-0.1,0.2,0,0.4,0,0.6c0,0.1,0,0.1,0.1,0.2c-0.1,0-0.3,0.1-0.1,0.5C70.5-1307.9,70.6-1307.8,70.7-1307.8z"/>
	</defs>
	<clipPath id="SVGID_58_">
		<use xlink:href="#SVGID_57_"  style="overflow:visible;"/>
	</clipPath>
	<g class="st28">
		<defs>
			<rect id="SVGID_59_" x="-705" y="-2059" width="1440" height="4148"/>
		</defs>
		<clipPath id="SVGID_60_">
			<use xlink:href="#SVGID_59_"  style="overflow:visible;"/>
		</clipPath>
		<rect x="65.4" y="-1315.7" class="st29" width="13" height="14"/>
	</g>
</g>
<g id="XMLID_72_">
	<defs>
		<path id="XMLID_73_" d="M15,10.9c-0.2,0-0.3,0.1-0.3,0.3v2.5l-2.1,1.4c-0.1,0.1-0.2,0.3-0.1,0.4c0.1,0.1,0.2,0.1,0.3,0.1
			c0.1,0,0.1,0,0.2,0l2.1-1.3l2.1,1.3c0.1,0,0.1,0,0.2,0c0.1,0,0.2,0,0.3-0.1c0.1-0.1,0.1-0.3-0.1-0.4l-2.1-1.4v-2.5
			C15.4,11,15.2,10.9,15,10.9z"/>
	</defs>
	<clipPath id="XMLID_77_">
		<use xlink:href="#XMLID_73_"  style="overflow:visible;"/>
	</clipPath>
	<g id="XMLID_74_" class="st30">
		<defs>
			<rect id="XMLID_75_" x="-773.5" y="-728" width="1440" height="4148"/>
		</defs>
		<clipPath id="XMLID_78_">
			<use xlink:href="#XMLID_75_"  style="overflow:visible;"/>
		</clipPath>
		<rect id="XMLID_76_" x="7.5" y="5.9" class="st31" width="15.1" height="14.8"/>
	</g>
</g>
<g id="XMLID_67_">
	<defs>
		<path id="XMLID_68_" d="M23.2,23.7l-2.1-1.4v-2.5c0-0.2-0.1-0.3-0.3-0.3c-0.2,0-0.3,0.1-0.3,0.3v2.5l-2.1,1.4
			c-0.1,0.1-0.2,0.3-0.1,0.4c0.1,0.1,0.2,0.1,0.3,0.1c0.1,0,0.1,0,0.2,0l2.1-1.3l2.1,1.3c0.1,0,0.1,0,0.2,0c0.1,0,0.2,0,0.3-0.1
			C23.4,24,23.4,23.8,23.2,23.7z"/>
	</defs>
	<clipPath id="XMLID_79_">
		<use xlink:href="#XMLID_68_"  style="overflow:visible;"/>
	</clipPath>
	<g id="XMLID_69_" class="st32">
		<defs>
			<rect id="XMLID_70_" x="-773.5" y="-728" width="1440" height="4148"/>
		</defs>
		<clipPath id="XMLID_80_">
			<use xlink:href="#XMLID_70_"  style="overflow:visible;"/>
		</clipPath>
		<rect id="XMLID_71_" x="13.3" y="14.5" class="st33" width="15.1" height="14.8"/>
	</g>
</g>
<g id="XMLID_62_">
	<defs>
		<path id="XMLID_63_" d="M11.7,23.7l-2.1-1.4v-2.5c0-0.2-0.1-0.3-0.3-0.3c-0.2,0-0.3,0.1-0.3,0.3v2.5l-2.1,1.4
			c-0.1,0.1-0.2,0.3-0.1,0.4c0.1,0.1,0.2,0.1,0.3,0.1c0.1,0,0.1,0,0.2,0l2.1-1.3l2.1,1.3c0.1,0,0.1,0,0.2,0c0.1,0,0.2,0,0.3-0.1
			C11.9,24,11.8,23.8,11.7,23.7z"/>
	</defs>
	<clipPath id="XMLID_81_">
		<use xlink:href="#XMLID_63_"  style="overflow:visible;"/>
	</clipPath>
	<g id="XMLID_64_" class="st34">
		<defs>
			<rect id="XMLID_65_" x="-773.5" y="-728" width="1440" height="4148"/>
		</defs>
		<clipPath id="XMLID_82_">
			<use xlink:href="#XMLID_65_"  style="overflow:visible;"/>
		</clipPath>
		<rect id="XMLID_66_" x="1.7" y="14.5" class="st35" width="15.1" height="14.8"/>
	</g>
</g>
<g id="XMLID_57_">
	<defs>
		<path id="XMLID_58_" d="M17.2,7.6C16.5,7.3,16.1,7,16.1,7l-0.5,1.7L15.4,9l-0.2-0.7c0.6-0.8,0-0.8-0.1-0.8c-0.1,0-0.7,0-0.1,0.8
			L14.6,9l-0.1-0.2L14,7c0,0-0.4,0.3-1.1,0.5c-0.8,0.3-0.7,0.9-0.7,2.1h2.7H15h2.9C17.9,8.5,18,7.9,17.2,7.6z"/>
	</defs>
	<clipPath id="XMLID_83_">
		<use xlink:href="#XMLID_58_"  style="overflow:visible;"/>
	</clipPath>
	<g id="XMLID_59_" class="st36">
		<defs>
			<rect id="XMLID_60_" x="-773.5" y="-728" width="1440" height="4148"/>
		</defs>
		<clipPath id="XMLID_84_">
			<use xlink:href="#XMLID_60_"  style="overflow:visible;"/>
		</clipPath>
		<rect id="XMLID_61_" x="7.2" y="2" class="st37" width="15.8" height="12.7"/>
	</g>
</g>
<g id="XMLID_52_">
	<defs>
		<path id="XMLID_53_" d="M13.8,5.9c0.1,0.4,0.4,0.9,0.9,1.1c0.2,0.1,0.4,0.1,0.6,0c0.5-0.2,0.8-0.7,0.9-1.1c0.1,0,0.2-0.1,0.3-0.4
			C16.6,5,16.5,5,16.4,5c0-0.1,0-0.1,0.1-0.2C16.6,3.6,16,3.5,16,3.5s-0.1-0.2-0.4-0.3C15.5,3.1,15.3,3,15,3.1c-0.1,0-0.2,0-0.3,0.1
			c-0.1,0-0.2,0.1-0.3,0.2c-0.1,0.1-0.2,0.2-0.3,0.3c-0.2,0.2-0.3,0.4-0.4,0.6c-0.1,0.2,0,0.4,0,0.6c0,0.1,0,0.1,0.1,0.2
			c-0.1,0-0.3,0.1-0.1,0.5C13.7,5.8,13.8,5.9,13.8,5.9z"/>
	</defs>
	<clipPath id="XMLID_85_">
		<use xlink:href="#XMLID_53_"  style="overflow:visible;"/>
	</clipPath>
	<g id="XMLID_54_" class="st38">
		<defs>
			<rect id="XMLID_55_" x="-773.5" y="-728" width="1440" height="4148"/>
		</defs>
		<clipPath id="XMLID_86_">
			<use xlink:href="#XMLID_55_"  style="overflow:visible;"/>
		</clipPath>
		<rect id="XMLID_56_" x="8.5" y="-1.9" class="st39" width="13" height="14"/>
	</g>
</g>
<g id="XMLID_47_">
	<defs>
		<path id="XMLID_48_" d="M23,16.2c-0.7-0.3-1.1-0.5-1.1-0.5l-0.5,1.7l-0.1,0.2L21,16.9c0.6-0.8,0-0.8-0.1-0.8c-0.1,0-0.7,0-0.1,0.8
			l-0.2,0.7l-0.1-0.2l-0.5-1.7c0,0-0.4,0.3-1.1,0.5c-0.8,0.3-0.7,0.9-0.7,2.1h2.7h0.1h2.9C23.7,17.1,23.8,16.5,23,16.2z"/>
	</defs>
	<clipPath id="XMLID_87_">
		<use xlink:href="#XMLID_48_"  style="overflow:visible;"/>
	</clipPath>
	<g id="XMLID_49_" class="st40">
		<defs>
			<rect id="XMLID_50_" x="-773.5" y="-728" width="1440" height="4148"/>
		</defs>
		<clipPath id="XMLID_88_">
			<use xlink:href="#XMLID_50_"  style="overflow:visible;"/>
		</clipPath>
		<rect id="XMLID_51_" x="13" y="10.7" class="st41" width="15.8" height="12.7"/>
	</g>
</g>
<g id="XMLID_42_">
	<defs>
		<path id="XMLID_43_" d="M19.6,14.6c0.1,0.4,0.4,0.9,0.9,1.1c0.2,0.1,0.4,0.1,0.6,0c0.5-0.2,0.8-0.7,0.9-1.1c0.1,0,0.2-0.1,0.3-0.4
			c0.1-0.5,0-0.5-0.1-0.5c0-0.1,0-0.1,0.1-0.2c0.2-1.2-0.4-1.2-0.4-1.2s-0.1-0.2-0.4-0.3c-0.2-0.1-0.4-0.2-0.7-0.2
			c-0.1,0-0.2,0-0.3,0.1c-0.1,0-0.2,0.1-0.3,0.2c-0.1,0.1-0.2,0.2-0.3,0.3c-0.2,0.2-0.3,0.4-0.4,0.6c-0.1,0.2,0,0.4,0,0.6
			c0,0.1,0,0.1,0.1,0.2c-0.1,0-0.3,0.1-0.1,0.5C19.5,14.5,19.6,14.6,19.6,14.6z"/>
	</defs>
	<clipPath id="XMLID_89_">
		<use xlink:href="#XMLID_43_"  style="overflow:visible;"/>
	</clipPath>
	<g id="XMLID_44_" class="st42">
		<defs>
			<rect id="XMLID_45_" x="-773.5" y="-728" width="1440" height="4148"/>
		</defs>
		<clipPath id="XMLID_90_">
			<use xlink:href="#XMLID_45_"  style="overflow:visible;"/>
		</clipPath>
		<rect id="XMLID_46_" x="14.3" y="6.7" class="st43" width="13" height="14"/>
	</g>
</g>
<g id="XMLID_37_">
	<defs>
		<path id="XMLID_38_" d="M11.4,16.2c-0.7-0.3-1.1-0.5-1.1-0.5l-0.5,1.7l-0.1,0.2l-0.2-0.7c0.6-0.8,0-0.8-0.1-0.8
			c-0.1,0-0.7,0-0.1,0.8l-0.2,0.7l-0.1-0.2l-0.5-1.7c0,0-0.4,0.3-1.1,0.5c-0.8,0.3-0.7,0.9-0.7,2.1h2.7h0.1h2.9
			C12.1,17.1,12.1,16.5,11.4,16.2z"/>
	</defs>
	<clipPath id="XMLID_91_">
		<use xlink:href="#XMLID_38_"  style="overflow:visible;"/>
	</clipPath>
	<g id="XMLID_39_" class="st44">
		<defs>
			<rect id="XMLID_40_" x="-773.5" y="-728" width="1440" height="4148"/>
		</defs>
		<clipPath id="XMLID_92_">
			<use xlink:href="#XMLID_40_"  style="overflow:visible;"/>
		</clipPath>
		<rect id="XMLID_41_" x="1.4" y="10.6" class="st45" width="15.8" height="12.7"/>
	</g>
</g>
<g id="XMLID_32_">
	<defs>
		<path id="XMLID_33_" d="M8,14.5c0.1,0.4,0.4,0.9,0.9,1.1c0.2,0.1,0.4,0.1,0.6,0c0.5-0.2,0.8-0.7,0.9-1.1c0.1,0,0.2-0.1,0.3-0.4
			c0.1-0.5,0-0.5-0.1-0.5c0-0.1,0-0.1,0.1-0.2c0.2-1.2-0.4-1.2-0.4-1.2s-0.1-0.2-0.4-0.3c-0.2-0.1-0.4-0.2-0.7-0.2
			c-0.1,0-0.2,0-0.3,0.1c-0.1,0-0.2,0.1-0.3,0.2c-0.1,0.1-0.2,0.2-0.3,0.3c-0.2,0.2-0.3,0.4-0.4,0.6c-0.1,0.2,0,0.4,0,0.6
			c0,0.1,0,0.1,0.1,0.2c-0.1,0-0.3,0.1-0.1,0.5C7.9,14.4,8,14.5,8,14.5z"/>
	</defs>
	<clipPath id="XMLID_93_">
		<use xlink:href="#XMLID_33_"  style="overflow:visible;"/>
	</clipPath>
	<g id="XMLID_34_" class="st46">
		<defs>
			<rect id="XMLID_35_" x="-773.5" y="-728" width="1440" height="4148"/>
		</defs>
		<clipPath id="XMLID_94_">
			<use xlink:href="#XMLID_35_"  style="overflow:visible;"/>
		</clipPath>
		<rect id="XMLID_36_" x="2.7" y="6.7" class="st47" width="13" height="14"/>
	</g>
</g>
<g id="XMLID_27_">
	<defs>
		<path id="XMLID_28_" d="M28.8,24.8c-0.7-0.3-1.1-0.5-1.1-0.5L27.1,26L27,26.2l-0.2-0.7c0.6-0.8,0-0.8-0.1-0.8
			c-0.1,0-0.7,0-0.1,0.8l-0.2,0.7L26.1,26l-0.5-1.7c0,0-0.4,0.3-1.1,0.5c-0.8,0.3-0.7,0.9-0.7,2.1h2.7h0.1h2.9
			C29.5,25.7,29.5,25.1,28.8,24.8z"/>
	</defs>
	<clipPath id="XMLID_95_">
		<use xlink:href="#XMLID_28_"  style="overflow:visible;"/>
	</clipPath>
	<g id="XMLID_29_" class="st48">
		<defs>
			<rect id="XMLID_30_" x="-773.5" y="-728" width="1440" height="4148"/>
		</defs>
		<clipPath id="XMLID_96_">
			<use xlink:href="#XMLID_30_"  style="overflow:visible;"/>
		</clipPath>
		<rect id="XMLID_31_" x="18.7" y="19.3" class="st49" width="15.8" height="12.7"/>
	</g>
</g>
<g id="XMLID_22_">
	<defs>
		<path id="XMLID_23_" d="M25.4,23.2c0.1,0.4,0.4,0.9,0.9,1.1c0.2,0.1,0.4,0.1,0.6,0c0.5-0.2,0.8-0.7,0.9-1.1c0.1,0,0.2-0.1,0.3-0.4
			c0.1-0.5,0-0.5-0.1-0.5c0-0.1,0-0.1,0.1-0.2c0.2-1.2-0.4-1.2-0.4-1.2s-0.1-0.2-0.4-0.3c-0.2-0.1-0.4-0.2-0.7-0.2
			c-0.1,0-0.2,0-0.3,0.1c-0.1,0-0.2,0.1-0.3,0.2c-0.1,0.1-0.2,0.2-0.3,0.3c-0.2,0.2-0.3,0.4-0.4,0.6c-0.1,0.2,0,0.4,0,0.6
			c0,0.1,0,0.1,0.1,0.2c-0.1,0-0.3,0.1-0.1,0.5C25.2,23.1,25.3,23.2,25.4,23.2z"/>
	</defs>
	<clipPath id="XMLID_97_">
		<use xlink:href="#XMLID_23_"  style="overflow:visible;"/>
	</clipPath>
	<g id="XMLID_24_" class="st50">
		<defs>
			<rect id="XMLID_25_" x="-773.5" y="-728" width="1440" height="4148"/>
		</defs>
		<clipPath id="XMLID_98_">
			<use xlink:href="#XMLID_25_"  style="overflow:visible;"/>
		</clipPath>
		<rect id="XMLID_26_" x="20.1" y="15.3" class="st51" width="13" height="14"/>
	</g>
</g>
<g id="XMLID_17_">
	<defs>
		<path id="XMLID_18_" d="M17.1,24.8c-0.7-0.3-1.1-0.5-1.1-0.5L15.5,26l-0.1,0.2l-0.2-0.7c0.6-0.8,0-0.8-0.1-0.8
			c-0.1,0-0.7,0-0.1,0.8l-0.2,0.7L14.5,26L14,24.2c0,0-0.4,0.3-1.1,0.5c-0.8,0.3-0.7,0.9-0.7,2.1h2.7H15h2.9
			C17.9,25.7,17.9,25.1,17.1,24.8z"/>
	</defs>
	<clipPath id="XMLID_99_">
		<use xlink:href="#XMLID_18_"  style="overflow:visible;"/>
	</clipPath>
	<g id="XMLID_19_" class="st52">
		<defs>
			<rect id="XMLID_20_" x="-773.5" y="-728" width="1440" height="4148"/>
		</defs>
		<clipPath id="XMLID_100_">
			<use xlink:href="#XMLID_20_"  style="overflow:visible;"/>
		</clipPath>
		<rect id="XMLID_21_" x="7.1" y="19.2" class="st53" width="15.8" height="12.7"/>
	</g>
</g>
<g id="XMLID_12_">
	<defs>
		<path id="XMLID_13_" d="M13.5,22.7c0.1,0.3,0.2,0.4,0.3,0.4c0.1,0.4,0.4,0.9,0.9,1.1c0.2,0.1,0.4,0.1,0.6,0
			c0.5-0.2,0.8-0.7,0.9-1.1c0.1,0,0.2-0.1,0.3-0.4c0.1-0.5,0-0.5-0.1-0.5c0-0.1,0-0.1,0.1-0.2c0.2-1.2-0.4-1.2-0.4-1.2
			s-0.1-0.2-0.4-0.3c-0.2-0.1-0.4-0.2-0.7-0.2c-0.1,0-0.2,0-0.3,0.1c-0.1,0-0.2,0.1-0.3,0.2c-0.1,0.1-0.2,0.2-0.3,0.3
			c-0.2,0.2-0.3,0.4-0.4,0.6c-0.1,0.2,0,0.4,0,0.6c0,0.1,0,0.1,0.1,0.2C13.5,22.2,13.4,22.3,13.5,22.7z"/>
	</defs>
	<clipPath id="XMLID_101_">
		<use xlink:href="#XMLID_13_"  style="overflow:visible;"/>
	</clipPath>
	<g id="XMLID_14_" class="st54">
		<defs>
			<rect id="XMLID_15_" x="-773.5" y="-728" width="1440" height="4148"/>
		</defs>
		<clipPath id="XMLID_102_">
			<use xlink:href="#XMLID_15_"  style="overflow:visible;"/>
		</clipPath>
		<rect id="XMLID_16_" x="8.5" y="15.3" class="st55" width="13" height="14"/>
	</g>
</g>
<g id="XMLID_7_">
	<defs>
		<path id="XMLID_8_" d="M5.5,24.8c-0.7-0.3-1.1-0.5-1.1-0.5L3.8,26l-0.1,0.2l-0.2-0.7c0.6-0.8,0-0.8-0.1-0.8c-0.1,0-0.7,0-0.1,0.8
			L3,26.2L2.9,26l-0.5-1.7c0,0-0.4,0.3-1.1,0.5c-0.8,0.3-0.7,0.9-0.7,2.1h2.7h0.1h2.9C6.2,25.7,6.3,25.1,5.5,24.8z"/>
	</defs>
	<clipPath id="XMLID_103_">
		<use xlink:href="#XMLID_8_"  style="overflow:visible;"/>
	</clipPath>
	<g id="XMLID_9_" class="st56">
		<defs>
			<rect id="XMLID_10_" x="-773.5" y="-728" width="1440" height="4148"/>
		</defs>
		<clipPath id="XMLID_104_">
			<use xlink:href="#XMLID_10_"  style="overflow:visible;"/>
		</clipPath>
		<rect id="XMLID_11_" x="-4.5" y="19.2" class="st57" width="15.8" height="12.7"/>
	</g>
</g>
<g id="XMLID_2_">
	<defs>
		<path id="XMLID_3_" d="M2.2,23.2c0.1,0.4,0.4,0.9,0.9,1.1c0.2,0.1,0.4,0.1,0.6,0c0.5-0.2,0.8-0.7,0.9-1.1c0.1,0,0.2-0.1,0.3-0.4
			c0.1-0.5,0-0.5-0.1-0.5c0-0.1,0-0.1,0.1-0.2c0.2-1.2-0.4-1.2-0.4-1.2S4.3,20.6,4,20.4c-0.2-0.1-0.4-0.2-0.7-0.2
			c-0.1,0-0.2,0-0.3,0.1c-0.1,0-0.2,0.1-0.3,0.2c-0.1,0.1-0.2,0.2-0.3,0.3c-0.2,0.2-0.3,0.4-0.4,0.6c-0.1,0.2,0,0.4,0,0.6
			c0,0.1,0,0.1,0.1,0.2c-0.1,0-0.3,0.1-0.1,0.5C2,23.1,2.1,23.2,2.2,23.2z"/>
	</defs>
	<clipPath id="XMLID_105_">
		<use xlink:href="#XMLID_3_"  style="overflow:visible;"/>
	</clipPath>
	<g id="XMLID_4_" class="st58">
		<defs>
			<rect id="XMLID_5_" x="-773.5" y="-728" width="1440" height="4148"/>
		</defs>
		<clipPath id="XMLID_106_">
			<use xlink:href="#XMLID_5_"  style="overflow:visible;"/>
		</clipPath>
		<rect id="XMLID_6_" x="-3.1" y="15.3" class="st59" width="13" height="14"/>
	</g>
</g>
</svg>
