<?xml version="1.0" encoding="utf-8"?>
<!-- Generator: Adobe Illustrator 19.0.0, SVG Export Plug-In . SVG Version: 6.00 Build 0)  -->
<svg version="1.1" id="Layer_1" xmlns="http://www.w3.org/2000/svg" xmlns:xlink="http://www.w3.org/1999/xlink" x="0px" y="0px"
	 viewBox="0 0 30 30" style="enable-background:new 0 0 30 30;" xml:space="preserve">
<style type="text/css">
	.st0{clip-path:url(#XMLID_35_);}
	.st1{clip-path:url(#XMLID_36_);fill:#A8AAAD;}
	.st2{clip-path:url(#XMLID_37_);}
	.st3{clip-path:url(#XMLID_38_);fill:#A8AAAD;}
	.st4{clip-path:url(#XMLID_39_);}
	.st5{clip-path:url(#XMLID_40_);fill:#A8AAAD;}
	.st6{clip-path:url(#XMLID_41_);}
	.st7{clip-path:url(#XMLID_42_);fill:#010101;}
	.st8{clip-path:url(#XMLID_43_);}
	.st9{clip-path:url(#XMLID_44_);fill:#010101;}
</style>
<g id="XMLID_30_">
	<defs>
		<circle id="XMLID_31_" cx="15" cy="5.2" r="1.9"/>
	</defs>
	<clipPath id="XMLID_35_">
		<use xlink:href="#XMLID_31_"  style="overflow:visible;"/>
	</clipPath>
	<g id="XMLID_32_" class="st0">
		<defs>
			<rect id="XMLID_33_" x="-946.8" y="-728.1" width="1440" height="4148"/>
		</defs>
		<clipPath id="XMLID_36_">
			<use xlink:href="#XMLID_33_"  style="overflow:visible;"/>
		</clipPath>
		<rect id="XMLID_34_" x="8.2" y="-1.7" class="st1" width="13.7" height="13.7"/>
	</g>
</g>
<g id="XMLID_25_">
	<defs>
		<circle id="XMLID_26_" cx="23.5" cy="19.7" r="1.9"/>
	</defs>
	<clipPath id="XMLID_37_">
		<use xlink:href="#XMLID_26_"  style="overflow:visible;"/>
	</clipPath>
	<g id="XMLID_27_" class="st2">
		<defs>
			<rect id="XMLID_28_" x="-946.8" y="-728.1" width="1440" height="4148"/>
		</defs>
		<clipPath id="XMLID_38_">
			<use xlink:href="#XMLID_28_"  style="overflow:visible;"/>
		</clipPath>
		<rect id="XMLID_29_" x="16.6" y="12.9" class="st3" width="13.7" height="13.7"/>
	</g>
</g>
<g id="XMLID_20_">
	<defs>
		<circle id="XMLID_21_" cx="6.6" cy="19.7" r="1.9"/>
	</defs>
	<clipPath id="XMLID_39_">
		<use xlink:href="#XMLID_21_"  style="overflow:visible;"/>
	</clipPath>
	<g id="XMLID_22_" class="st4">
		<defs>
			<rect id="XMLID_23_" x="-946.8" y="-728.1" width="1440" height="4148"/>
		</defs>
		<clipPath id="XMLID_40_">
			<use xlink:href="#XMLID_23_"  style="overflow:visible;"/>
		</clipPath>
		<rect id="XMLID_24_" x="-0.3" y="12.9" class="st5" width="13.7" height="13.7"/>
	</g>
</g>
<g id="XMLID_7_">
	<defs>
		<path id="XMLID_8_" d="M24.9,19.7c0,0.8-0.6,1.4-1.4,1.4c-0.8,0-1.4-0.6-1.4-1.4c0-0.8,0.6-1.4,1.4-1.4
			C24.2,18.3,24.9,18.9,24.9,19.7z M16.8,23.1c-0.4-0.5-1-0.8-1.7-0.8s-1.3,0.3-1.7,0.8l-4.5-2.6c0.1-0.2,0.1-0.5,0.1-0.8
			c0-1.1-0.8-2.1-1.9-2.3l0-5.1c1.1-0.2,1.9-1.1,1.9-2.3c0-0.3,0-0.5-0.1-0.7l4.5-2.6c0.4,0.5,1,0.8,1.7,0.8s1.3-0.3,1.7-0.8
			l4.5,2.6c-0.1,0.2-0.1,0.5-0.1,0.7c0,1.1,0.8,2,1.9,2.3v5.1c-1.1,0.2-1.9,1.1-1.9,2.3c0,0.3,0,0.5,0.1,0.8L16.8,23.1z M15,26
			c-0.8,0-1.4-0.6-1.4-1.4c0-0.8,0.6-1.4,1.4-1.4c0.8,0,1.4,0.6,1.4,1.4C16.4,25.4,15.8,26,15,26z M6.6,21.1c-0.8,0-1.4-0.6-1.4-1.4
			c0-0.8,0.6-1.4,1.4-1.4S8,18.9,8,19.7C8,20.5,7.3,21.1,6.6,21.1z M5.2,10.1c0-0.8,0.6-1.4,1.4-1.4S8,9.3,8,10.1s-0.6,1.4-1.4,1.4
			S5.2,10.8,5.2,10.1z M15,3.8c0.8,0,1.4,0.6,1.4,1.4c0,0.2-0.1,0.5-0.2,0.7c0,0,0,0,0,0c0,0,0,0,0,0C16,6.3,15.5,6.6,15,6.6
			c-0.8,0-1.4-0.6-1.4-1.4C13.6,4.4,14.2,3.8,15,3.8z M23.5,8.7c0.8,0,1.4,0.6,1.4,1.4s-0.6,1.4-1.4,1.4c-0.8,0-1.4-0.6-1.4-1.4
			S22.7,8.7,23.5,8.7z M25.8,10.1c0-1.3-1-2.3-2.3-2.3c-0.7,0-1.3,0.3-1.7,0.8l-4.5-2.6c0.1-0.2,0.1-0.5,0.1-0.7
			c0-1.3-1-2.3-2.3-2.3s-2.3,1-2.3,2.3c0,0.3,0,0.5,0.1,0.7L8.3,8.6c-0.4-0.5-1-0.8-1.7-0.8c-1.3,0-2.3,1-2.3,2.3
			c0,1.1,0.8,2,1.8,2.2l0,5.2c-1,0.2-1.8,1.1-1.8,2.2c0,1.3,1,2.3,2.3,2.3c0.7,0,1.3-0.3,1.7-0.8l4.6,2.6c-0.1,0.2-0.1,0.5-0.1,0.7
			c0,1.3,1,2.3,2.3,2.3c1.3,0,2.3-1,2.3-2.3c0-0.2,0-0.5-0.1-0.7l4.6-2.6c0.4,0.5,1,0.8,1.7,0.8c1.3,0,2.3-1,2.3-2.3
			c0-1.1-0.8-2-1.9-2.3v-5.1C25,12.1,25.8,11.2,25.8,10.1z"/>
	</defs>
	<clipPath id="XMLID_41_">
		<use xlink:href="#XMLID_8_"  style="overflow:visible;"/>
	</clipPath>
	<g id="XMLID_17_" class="st6">
		<defs>
			<rect id="XMLID_18_" x="-946.8" y="-728.1" width="1440" height="4148"/>
		</defs>
		<clipPath id="XMLID_42_">
			<use xlink:href="#XMLID_18_"  style="overflow:visible;"/>
		</clipPath>
		<rect id="XMLID_19_" x="-0.7" y="-2.1" class="st7" width="31.5" height="34"/>
	</g>
</g>
<g id="XMLID_2_">
	<defs>
		<path id="XMLID_3_" d="M17.2,16.7v-1.6c0.3-0.3,0.4-0.6,0.4-1V12c0-1.3-1-2.3-2.3-2.3h-0.5c-1.3,0-2.3,1-2.3,2.3v2.1
			c0,0.4,0.2,0.7,0.4,1v1.6c-0.5,0.3-1.7,0.9-2.9,1.9c-0.2,0.2-0.2,0.4-0.1,0.6s0.4,0.2,0.6,0.1c1.3-1,2.6-1.7,2.9-1.9
			c0.2-0.1,0.3-0.3,0.3-0.5v-2c0-0.1-0.1-0.3-0.2-0.4c-0.1-0.1-0.2-0.2-0.2-0.4V12c0-0.8,0.7-1.4,1.4-1.4h0.5c0.8,0,1.4,0.7,1.4,1.4
			v2.1c0,0.2-0.1,0.3-0.2,0.4c-0.1,0.1-0.2,0.2-0.2,0.4v2c0,0.2,0.1,0.4,0.3,0.5c0.3,0.1,1.6,0.8,2.9,1.9c0.1,0.1,0.2,0.1,0.3,0.1
			c0.1,0,0.3-0.1,0.3-0.2c0.2-0.2,0.1-0.5-0.1-0.6C18.9,17.6,17.7,16.9,17.2,16.7z"/>
	</defs>
	<clipPath id="XMLID_43_">
		<use xlink:href="#XMLID_3_"  style="overflow:visible;"/>
	</clipPath>
	<g id="XMLID_4_" class="st8">
		<defs>
			<rect id="XMLID_5_" x="-946.8" y="-728.1" width="1440" height="4148"/>
		</defs>
		<clipPath id="XMLID_44_">
			<use xlink:href="#XMLID_5_"  style="overflow:visible;"/>
		</clipPath>
		<rect id="XMLID_6_" x="4.8" y="4.6" class="st9" width="20.4" height="19.7"/>
	</g>
</g>
</svg>
