<?xml version="1.0" encoding="utf-8"?>
<!-- Generator: Adobe Illustrator 19.0.0, SVG Export Plug-In . SVG Version: 6.00 Build 0)  -->
<svg version="1.1" id="Layer_1" xmlns="http://www.w3.org/2000/svg" xmlns:xlink="http://www.w3.org/1999/xlink" x="0px" y="0px"
	 viewBox="0 0 16 16" style="enable-background:new 0 0 16 16;" xml:space="preserve">
<style type="text/css">
	.st0{clip-path:url(#XMLID_19_);}
	.st1{clip-path:url(#XMLID_20_);fill:#FFFFFF;}
	.st2{clip-path:url(#XMLID_21_);}
	.st3{clip-path:url(#XMLID_22_);fill:#5EC2A8;}
	.st4{clip-path:url(#XMLID_23_);}
	.st5{clip-path:url(#XMLID_24_);fill:#5EC2A8;}
</style>
<g id="XMLID_12_">
	<defs>
		<path id="XMLID_13_" d="M13.9,13.5C13.9,13.5,13.9,13.5,13.9,13.5c-0.1,0.1-0.3,0.3-0.4,0.4c-0.2,0.2-0.4,0.4-0.7,0.7
			c-0.3,0.4-0.7,0.5-1.3,0.5c-0.1,0-0.1,0-0.2,0c-1-0.1-1.9-0.5-2.6-0.8c-1.9-0.9-3.6-2.2-5-3.9C2.6,9,1.8,7.7,1.3,6.3
			C1,5.5,0.9,4.9,1,4.2c0-0.4,0.2-0.7,0.5-1l1.2-1.2c0.2-0.2,0.3-0.2,0.5-0.2c0.2,0,0.4,0.1,0.5,0.2c0,0,0,0,0,0
			C3.8,2.3,4,2.5,4.2,2.7C4.3,2.8,4.4,2.9,4.5,3l0.9,0.9c0.4,0.4,0.4,0.7,0,1C5.3,5.1,5.2,5.2,5.1,5.3C4.9,5.6,4.6,5.8,4.3,6.1
			c0,0,0,0,0,0C4,6.4,4,6.7,4.1,6.9c0,0,0,0,0,0C4.4,7.5,4.7,8,5.2,8.7l0,0c0.9,1.1,1.9,2,3,2.7c0.1,0.1,0.3,0.2,0.4,0.2
			c0.1,0.1,0.2,0.1,0.3,0.2c0,0,0,0,0,0c0.1,0.1,0.2,0.1,0.3,0.1c0.3,0,0.5-0.2,0.5-0.2l1.2-1.2c0.1-0.1,0.3-0.3,0.5-0.3
			c0.2,0,0.4,0.1,0.5,0.2l0,0l1.9,1.9C14.2,12.8,14.2,13.1,13.9,13.5z M12.7,9.9c-0.3-0.3-0.7-0.5-1.1-0.5c-0.4,0-0.8,0.2-1.2,0.5
			L9.3,11c-0.1,0-0.2-0.1-0.3-0.1c-0.1-0.1-0.2-0.1-0.3-0.2c-1-0.6-1.9-1.5-2.8-2.5C5.5,7.6,5.2,7.1,5,6.7c0.3-0.3,0.5-0.5,0.8-0.8
			C5.9,5.8,6,5.7,6.1,5.6c0.7-0.7,0.7-1.6,0-2.3L5.2,2.4C5.1,2.3,4.9,2.2,4.8,2.1C4.6,1.8,4.4,1.6,4.2,1.4C3.9,1.1,3.5,0.9,3.1,0.9
			S2.3,1.1,1.9,1.4c0,0,0,0,0,0L0.8,2.6C0.3,3,0.1,3.5,0,4.2C0,5.1,0.3,6.1,0.5,6.7C1,8.1,1.8,9.5,3.1,11c1.5,1.8,3.3,3.2,5.3,4.1
			c0.8,0.4,1.8,0.8,3,0.9c0.1,0,0.1,0,0.2,0c0.8,0,1.4-0.3,1.9-0.8c0,0,0,0,0,0c0.2-0.2,0.4-0.4,0.6-0.6c0.1-0.1,0.3-0.3,0.4-0.4
			c0.3-0.3,0.5-0.8,0.5-1.2c0-0.4-0.2-0.8-0.5-1.2L12.7,9.9z"/>
	</defs>
	<clipPath id="XMLID_19_">
		<use xlink:href="#XMLID_13_"  style="overflow:visible;"/>
	</clipPath>
	<g id="XMLID_16_" class="st0">
		<defs>
			<rect id="XMLID_17_" x="-122" y="-5068" width="1442" height="5406"/>
		</defs>
		<clipPath id="XMLID_20_">
			<use xlink:href="#XMLID_17_"  style="overflow:visible;"/>
		</clipPath>
		<rect id="XMLID_18_" x="-5" y="-4.1" class="st1" width="25" height="25.1"/>
	</g>
</g>
<g id="XMLID_7_">
	<defs>
		<path id="XMLID_8_" d="M8.7,3.8C9.5,4,10.3,4.4,11,5c0.6,0.6,1.1,1.4,1.2,2.3c0,0.2,0.2,0.4,0.4,0.4c0,0,0.1,0,0.1,0
			c0.2,0,0.4-0.3,0.4-0.5c-0.2-1.1-0.7-2-1.5-2.8c-0.8-0.8-1.7-1.3-2.8-1.5C8.6,2.9,8.3,3,8.3,3.3C8.2,3.5,8.4,3.8,8.7,3.8z"/>
	</defs>
	<clipPath id="XMLID_21_">
		<use xlink:href="#XMLID_8_"  style="overflow:visible;"/>
	</clipPath>
	<g id="XMLID_9_" class="st2">
		<defs>
			<rect id="XMLID_10_" x="-122" y="-5068" width="1442" height="5406"/>
		</defs>
		<clipPath id="XMLID_22_">
			<use xlink:href="#XMLID_10_"  style="overflow:visible;"/>
		</clipPath>
		<rect id="XMLID_11_" x="3.3" y="-2.1" class="st3" width="14.8" height="14.8"/>
	</g>
</g>
<g id="XMLID_2_">
	<defs>
		<path id="XMLID_3_" d="M16,7.1c-0.3-1.8-1.1-3.4-2.4-4.6C12.3,1.1,10.7,0.3,8.9,0C8.7,0,8.5,0.1,8.4,0.4c0,0.2,0.1,0.5,0.4,0.5
			c1.6,0.3,3,1,4.1,2.2c1.1,1.1,1.9,2.6,2.2,4.1c0,0.2,0.2,0.4,0.4,0.4c0,0,0.1,0,0.1,0C15.9,7.5,16,7.3,16,7.1z"/>
	</defs>
	<clipPath id="XMLID_23_">
		<use xlink:href="#XMLID_3_"  style="overflow:visible;"/>
	</clipPath>
	<g id="XMLID_4_" class="st4">
		<defs>
			<rect id="XMLID_5_" x="-122" y="-5068" width="1442" height="5406"/>
		</defs>
		<clipPath id="XMLID_24_">
			<use xlink:href="#XMLID_5_"  style="overflow:visible;"/>
		</clipPath>
		<rect id="XMLID_6_" x="3.4" y="-5" class="st5" width="17.6" height="17.6"/>
	</g>
</g>
</svg>
