<?xml version="1.0" encoding="utf-8"?>
<!-- Generator: Adobe Illustrator 19.0.0, SVG Export Plug-In . SVG Version: 6.00 Build 0)  -->
<svg version="1.1" id="Layer_1" xmlns="http://www.w3.org/2000/svg" xmlns:xlink="http://www.w3.org/1999/xlink" x="0px" y="0px"
	 viewBox="0 0 70 80" style="enable-background:new 0 0 70 80;" xml:space="preserve">
<style type="text/css">
	.st0{clip-path:url(#SVGID_2_);}
	.st1{clip-path:url(#SVGID_4_);fill:#5EC2A8;}
	.st2{clip-path:url(#SVGID_6_);}
	.st3{clip-path:url(#SVGID_8_);fill:#010101;}
	.st4{clip-path:url(#SVGID_10_);}
	.st5{clip-path:url(#SVGID_12_);fill:#010101;}
	.st6{clip-path:url(#SVGID_14_);}
	.st7{clip-path:url(#SVGID_16_);fill:#010101;}
	.st8{clip-path:url(#SVGID_18_);}
	.st9{clip-path:url(#SVGID_20_);fill:#010101;}
	.st10{clip-path:url(#SVGID_22_);}
	.st11{clip-path:url(#SVGID_24_);fill:#010101;}
	.st12{clip-path:url(#XMLID_34_);}
	.st13{clip-path:url(#XMLID_35_);fill:#5EC2A8;}
	.st14{clip-path:url(#XMLID_36_);}
	.st15{clip-path:url(#XMLID_37_);fill:#010101;}
	.st16{clip-path:url(#XMLID_38_);}
	.st17{clip-path:url(#XMLID_39_);fill:#010101;}
	.st18{clip-path:url(#XMLID_40_);}
	.st19{clip-path:url(#XMLID_41_);fill:#010101;}
	.st20{clip-path:url(#XMLID_42_);}
	.st21{clip-path:url(#XMLID_43_);fill:#010101;}
	.st22{clip-path:url(#XMLID_44_);}
	.st23{clip-path:url(#XMLID_45_);fill:#010101;}
</style>
<g>
	<defs>
		<rect id="SVGID_1_" x="-300" y="-1067.7" width="66.3" height="10.9"/>
	</defs>
	<clipPath id="SVGID_2_">
		<use xlink:href="#SVGID_1_"  style="overflow:visible;"/>
	</clipPath>
	<g class="st0">
		<defs>
			<rect id="SVGID_3_" x="-685" y="-2508" width="1440" height="5096"/>
		</defs>
		<clipPath id="SVGID_4_">
			<use xlink:href="#SVGID_3_"  style="overflow:visible;"/>
		</clipPath>
		<rect x="-305" y="-1072.7" class="st1" width="76.3" height="20.9"/>
	</g>
</g>
<g>
	<defs>
		<path id="SVGID_5_" d="M-267.1-1051.3c-0.8,0-1.5,0.7-1.5,1.5v3.8h-12.8c-0.8,0-1.5,0.7-1.5,1.5s0.7,1.5,1.5,1.5h28.5
			c0.8,0,1.5-0.7,1.5-1.5s-0.7-1.5-1.5-1.5h-12.8v-3.8C-265.6-1050.7-266.3-1051.3-267.1-1051.3z"/>
	</defs>
	<clipPath id="SVGID_6_">
		<use xlink:href="#SVGID_5_"  style="overflow:visible;"/>
	</clipPath>
	<g class="st2">
		<defs>
			<rect id="SVGID_7_" x="-685" y="-2508" width="1440" height="5096"/>
		</defs>
		<clipPath id="SVGID_8_">
			<use xlink:href="#SVGID_7_"  style="overflow:visible;"/>
		</clipPath>
		<rect x="-287.8" y="-1056.3" class="st3" width="41.5" height="18.3"/>
	</g>
</g>
<g>
	<defs>
		<path id="SVGID_9_" d="M-267.2-1075c3.5,0,6.4,2.5,7.1,5.9h-14.1C-273.7-1072.4-270.8-1075-267.2-1075z M-298.4-1055.4h62.5
			c2,0,3.6-1.6,3.6-3.6v-43.1c0-2-1.6-3.6-3.6-3.6h-17.5c-0.8,0-1.5,0.7-1.5,1.5c0,0.8,0.7,1.5,1.5,1.5h17.5c0.3,0,0.6,0.3,0.6,0.6
			v43.1c0,0.3-0.3,0.6-0.6,0.6h-62.5c-0.3,0-0.6-0.3-0.6-0.6v-7.2h59c0.8,0,1.5-0.7,1.5-1.5s-0.7-1.5-1.5-1.5h-7.5
			c-0.6-4.3-4.3-7.6-8.8-7.6c-0.8,0-1.5,0.7-1.5,1.5s0.7,1.5,1.5,1.5c2.8,0,5.2,2,5.8,4.6h-6.8c-0.6-4.6-4.2-8.2-8.8-8.8v-10.3
			c0-0.8-0.7-1.5-1.5-1.5c-0.8,0-1.5,0.7-1.5,1.5v10.4c-4.4,0.7-7.8,4.3-8.4,8.7h-6.8c0.6-2.6,3-4.6,5.8-4.6c0.8,0,1.5-0.7,1.5-1.5
			s-0.7-1.5-1.5-1.5c-4.5,0-8.2,3.3-8.8,7.6h-12.6c-0.2-0.1-0.5-0.2-0.7-0.2c-0.8,0-1.5,0.7-1.5,1.5v8.8
			C-301.9-1057-300.3-1055.4-298.4-1055.4z"/>
	</defs>
	<clipPath id="SVGID_10_">
		<use xlink:href="#SVGID_9_"  style="overflow:visible;"/>
	</clipPath>
	<g class="st4">
		<defs>
			<rect id="SVGID_11_" x="-685" y="-2508" width="1440" height="5096"/>
		</defs>
		<clipPath id="SVGID_12_">
			<use xlink:href="#SVGID_11_"  style="overflow:visible;"/>
		</clipPath>
		<rect x="-306.9" y="-1110.6" class="st5" width="79.7" height="60.2"/>
	</g>
</g>
<g>
	<defs>
		<path id="SVGID_13_" d="M-300.5-1072.3c0.8,0,1.5-0.7,1.5-1.5v-28.2c0-0.3,0.3-0.6,0.6-0.6h17.6c0.8,0,1.5-0.7,1.5-1.5
			c0-0.8-0.7-1.5-1.5-1.5h-17.6c-2,0-3.6,1.6-3.6,3.6v28.2C-301.9-1073-301.3-1072.3-300.5-1072.3z"/>
	</defs>
	<clipPath id="SVGID_14_">
		<use xlink:href="#SVGID_13_"  style="overflow:visible;"/>
	</clipPath>
	<g class="st6">
		<defs>
			<rect id="SVGID_15_" x="-685" y="-2508" width="1440" height="5096"/>
		</defs>
		<clipPath id="SVGID_16_">
			<use xlink:href="#SVGID_15_"  style="overflow:visible;"/>
		</clipPath>
		<rect x="-306.9" y="-1110.6" class="st7" width="32.6" height="43.3"/>
	</g>
</g>
<g>
	<defs>
		<circle id="SVGID_17_" cx="-267.2" cy="-1062" r="1.7"/>
	</defs>
	<clipPath id="SVGID_18_">
		<use xlink:href="#SVGID_17_"  style="overflow:visible;"/>
	</clipPath>
	<g class="st8">
		<defs>
			<rect id="SVGID_19_" x="-685" y="-2508" width="1440" height="5096"/>
		</defs>
		<clipPath id="SVGID_20_">
			<use xlink:href="#SVGID_19_"  style="overflow:visible;"/>
		</clipPath>
		<rect x="-273.9" y="-1068.8" class="st9" width="13.4" height="13.4"/>
	</g>
</g>
<g>
	<defs>
		<path id="SVGID_21_" d="M-280.3-1085.8c0,0.8,0.7,1.5,1.5,1.5h3v3.4c0,0.8,0.7,1.5,1.5,1.5c0.8,0,1.5-0.7,1.5-1.5v-3.4h0.2
			c0.8,0,1.5-0.7,1.5-1.5c0-0.8-0.7-1.5-1.5-1.5h-4.7v-1.6c0-0.6,0.2-1.1,0.5-1.6l2.7-3.8c0.6-0.9,1-2,1-3.1v-12.8
			c0-1.2,0.4-2.4,1.2-3.3l4.8-5.6l4.8,5.6c0.8,0.9,1.2,2.1,1.2,3.3v12.9c0,1,0.3,2,0.8,2.9l2.5,3.9c0.3,0.4,0.4,0.9,0.4,1.5v1.7
			h-4.5c-0.8,0-1.5,0.7-1.5,1.5c0,0.8,0.6,1.4,1.3,1.5v3.4c0,0.8,0.7,1.5,1.5,1.5c0.8,0,1.5-0.7,1.5-1.5v-3.4h3.2
			c0.8,0,1.5-0.7,1.5-1.5v-3.2c0-1.1-0.3-2.1-0.9-3l-2.5-3.9c-0.3-0.4-0.4-0.9-0.4-1.3v-12.9c0-1.9-0.7-3.8-2-5.3l-6-6.9
			c-0.3-0.3-0.7-0.5-1.1-0.5c-0.4,0-0.8,0.2-1.1,0.5l-5.9,6.9c-1.2,1.5-1.9,3.3-1.9,5.2v12.9c0,0.5-0.1,1-0.4,1.4l-2.7,3.8
			c-0.7,1-1,2.1-1,3.2V-1085.8z"/>
	</defs>
	<clipPath id="SVGID_22_">
		<use xlink:href="#SVGID_21_"  style="overflow:visible;"/>
	</clipPath>
	<g class="st10">
		<defs>
			<rect id="SVGID_23_" x="-685" y="-2508" width="1440" height="5096"/>
		</defs>
		<clipPath id="SVGID_24_">
			<use xlink:href="#SVGID_23_"  style="overflow:visible;"/>
		</clipPath>
		<rect x="-285.3" y="-1128" class="st11" width="35.9" height="53.6"/>
	</g>
</g>
<g id="XMLID_29_">
	<defs>
		<rect id="XMLID_30_" x="2.1" y="55.3" width="66.3" height="10.9"/>
	</defs>
	<clipPath id="XMLID_34_">
		<use xlink:href="#XMLID_30_"  style="overflow:visible;"/>
	</clipPath>
	<g id="XMLID_31_" class="st12">
		<defs>
			<rect id="XMLID_32_" x="-382.9" y="-1385" width="1440" height="5096"/>
		</defs>
		<clipPath id="XMLID_35_">
			<use xlink:href="#XMLID_32_"  style="overflow:visible;"/>
		</clipPath>
		<rect id="XMLID_33_" x="-2.9" y="50.3" class="st13" width="76.3" height="20.9"/>
	</g>
</g>
<g id="XMLID_24_">
	<defs>
		<path id="XMLID_25_" d="M35,71.7c-0.8,0-1.5,0.7-1.5,1.5V77H20.7c-0.8,0-1.5,0.7-1.5,1.5c0,0.8,0.7,1.5,1.5,1.5h28.5
			c0.8,0,1.5-0.7,1.5-1.5c0-0.8-0.7-1.5-1.5-1.5H36.5v-3.8C36.5,72.3,35.8,71.7,35,71.7z"/>
	</defs>
	<clipPath id="XMLID_36_">
		<use xlink:href="#XMLID_25_"  style="overflow:visible;"/>
	</clipPath>
	<g id="XMLID_26_" class="st14">
		<defs>
			<rect id="XMLID_27_" x="-382.9" y="-1385" width="1440" height="5096"/>
		</defs>
		<clipPath id="XMLID_37_">
			<use xlink:href="#XMLID_27_"  style="overflow:visible;"/>
		</clipPath>
		<rect id="XMLID_28_" x="14.3" y="66.7" class="st15" width="41.5" height="18.3"/>
	</g>
</g>
<g id="XMLID_17_">
	<defs>
		<path id="XMLID_18_" d="M34.9,48c3.5,0,6.4,2.5,7.1,5.9H27.8C28.4,50.6,31.3,48,34.9,48z M3.7,67.6h62.5c2,0,3.6-1.6,3.6-3.6V21
			c0-2-1.6-3.6-3.6-3.6H48.8c-0.8,0-1.5,0.7-1.5,1.5c0,0.8,0.7,1.5,1.5,1.5h17.5c0.3,0,0.6,0.3,0.6,0.6v43.1c0,0.3-0.3,0.6-0.6,0.6
			H3.7c-0.3,0-0.6-0.3-0.6-0.6v-7.2h59c0.8,0,1.5-0.7,1.5-1.5c0-0.8-0.7-1.5-1.5-1.5h-7.5c-0.6-4.3-4.3-7.6-8.8-7.6
			c-0.8,0-1.5,0.7-1.5,1.5c0,0.8,0.7,1.5,1.5,1.5c2.8,0,5.2,2,5.8,4.6h-6.8c-0.6-4.6-4.2-8.2-8.8-8.8V34.9c0-0.8-0.7-1.5-1.5-1.5
			c-0.8,0-1.5,0.7-1.5,1.5v10.4c-4.4,0.7-7.8,4.3-8.4,8.7H18c0.6-2.6,3-4.6,5.8-4.6c0.8,0,1.5-0.7,1.5-1.5c0-0.8-0.7-1.5-1.5-1.5
			c-4.5,0-8.2,3.3-8.8,7.6H2.4c-0.2-0.1-0.5-0.2-0.7-0.2c-0.8,0-1.5,0.7-1.5,1.5v8.8C0.2,66,1.8,67.6,3.7,67.6z"/>
	</defs>
	<clipPath id="XMLID_38_">
		<use xlink:href="#XMLID_18_"  style="overflow:visible;"/>
	</clipPath>
	<g id="XMLID_21_" class="st16">
		<defs>
			<rect id="XMLID_22_" x="-382.9" y="-1385" width="1440" height="5096"/>
		</defs>
		<clipPath id="XMLID_39_">
			<use xlink:href="#XMLID_22_"  style="overflow:visible;"/>
		</clipPath>
		<rect id="XMLID_23_" x="-4.8" y="12.4" class="st17" width="79.7" height="60.2"/>
	</g>
</g>
<g id="XMLID_12_">
	<defs>
		<path id="XMLID_13_" d="M1.6,50.7c0.8,0,1.5-0.7,1.5-1.5V21c0-0.3,0.3-0.6,0.6-0.6h17.6c0.8,0,1.5-0.7,1.5-1.5
			c0-0.8-0.7-1.5-1.5-1.5H3.7c-2,0-3.6,1.6-3.6,3.6v28.2C0.2,50.1,0.8,50.7,1.6,50.7z"/>
	</defs>
	<clipPath id="XMLID_40_">
		<use xlink:href="#XMLID_13_"  style="overflow:visible;"/>
	</clipPath>
	<g id="XMLID_14_" class="st18">
		<defs>
			<rect id="XMLID_15_" x="-382.9" y="-1385" width="1440" height="5096"/>
		</defs>
		<clipPath id="XMLID_41_">
			<use xlink:href="#XMLID_15_"  style="overflow:visible;"/>
		</clipPath>
		<rect id="XMLID_16_" x="-4.8" y="12.4" class="st19" width="32.6" height="43.3"/>
	</g>
</g>
<g id="XMLID_7_">
	<defs>
		<circle id="XMLID_8_" cx="34.9" cy="61" r="1.7"/>
	</defs>
	<clipPath id="XMLID_42_">
		<use xlink:href="#XMLID_8_"  style="overflow:visible;"/>
	</clipPath>
	<g id="XMLID_9_" class="st20">
		<defs>
			<rect id="XMLID_10_" x="-382.9" y="-1385" width="1440" height="5096"/>
		</defs>
		<clipPath id="XMLID_43_">
			<use xlink:href="#XMLID_10_"  style="overflow:visible;"/>
		</clipPath>
		<rect id="XMLID_11_" x="28.2" y="54.3" class="st21" width="13.4" height="13.4"/>
	</g>
</g>
<g id="XMLID_2_">
	<defs>
		<path id="XMLID_3_" d="M21.8,37.2c0,0.8,0.7,1.5,1.5,1.5h3v3.4c0,0.8,0.7,1.5,1.5,1.5c0.8,0,1.5-0.7,1.5-1.5v-3.4h0.2
			c0.8,0,1.5-0.7,1.5-1.5s-0.7-1.5-1.5-1.5h-4.7v-1.6c0-0.6,0.2-1.1,0.5-1.6l2.7-3.8c0.6-0.9,1-2,1-3.1V12.7c0-1.2,0.4-2.4,1.2-3.3
			l4.8-5.6l4.8,5.6c0.8,0.9,1.2,2.1,1.2,3.3v12.9c0,1,0.3,2,0.8,2.9l2.5,3.9c0.3,0.4,0.4,0.9,0.4,1.5v1.7h-4.5
			c-0.8,0-1.5,0.7-1.5,1.5c0,0.8,0.6,1.4,1.3,1.5v3.4c0,0.8,0.7,1.5,1.5,1.5s1.5-0.7,1.5-1.5v-3.4h3.2c0.8,0,1.5-0.7,1.5-1.5V34
			c0-1.1-0.3-2.1-0.9-3L44.3,27c-0.3-0.4-0.4-0.9-0.4-1.3V12.7c0-1.9-0.7-3.8-2-5.3l-6-6.9C35.7,0.2,35.3,0,34.9,0
			c-0.4,0-0.8,0.2-1.1,0.5l-5.9,6.9c-1.2,1.5-1.9,3.3-1.9,5.2v12.9c0,0.5-0.1,1-0.4,1.4l-2.7,3.8c-0.7,1-1,2.1-1,3.2V37.2z"/>
	</defs>
	<clipPath id="XMLID_44_">
		<use xlink:href="#XMLID_3_"  style="overflow:visible;"/>
	</clipPath>
	<g id="XMLID_4_" class="st22">
		<defs>
			<rect id="XMLID_5_" x="-382.9" y="-1385" width="1440" height="5096"/>
		</defs>
		<clipPath id="XMLID_45_">
			<use xlink:href="#XMLID_5_"  style="overflow:visible;"/>
		</clipPath>
		<rect id="XMLID_6_" x="16.8" y="-5" class="st23" width="35.9" height="53.6"/>
	</g>
</g>
</svg>
