<?xml version="1.0" encoding="utf-8"?>
<!-- Generator: Adobe Illustrator 19.0.0, SVG Export Plug-In . SVG Version: 6.00 Build 0)  -->
<svg version="1.1" id="Layer_1" xmlns="http://www.w3.org/2000/svg" xmlns:xlink="http://www.w3.org/1999/xlink" x="0px" y="0px"
	 viewBox="0 0 61 80" style="enable-background:new 0 0 61 80;" xml:space="preserve">
<style type="text/css">
	.st0{clip-path:url(#SVGID_2_);}
	.st1{clip-path:url(#SVGID_4_);fill:#5EC2A8;}
	.st2{clip-path:url(#SVGID_6_);}
	.st3{clip-path:url(#SVGID_8_);fill:#010101;}
	.st4{clip-path:url(#SVGID_10_);}
	.st5{clip-path:url(#SVGID_12_);fill:#010101;}
	.st6{clip-path:url(#SVGID_14_);}
	.st7{clip-path:url(#SVGID_16_);fill:#010101;}
	.st8{clip-path:url(#SVGID_18_);}
	.st9{clip-path:url(#SVGID_20_);fill:#010101;}
	.st10{clip-path:url(#SVGID_22_);}
	.st11{clip-path:url(#SVGID_24_);fill:#010101;}
	.st12{clip-path:url(#SVGID_26_);}
	.st13{clip-path:url(#SVGID_28_);fill:#010101;}
	.st14{clip-path:url(#SVGID_30_);}
	.st15{clip-path:url(#SVGID_32_);fill:#010101;}
	.st16{clip-path:url(#SVGID_34_);}
	.st17{clip-path:url(#SVGID_36_);fill:#010101;}
	.st18{clip-path:url(#SVGID_38_);}
	.st19{clip-path:url(#SVGID_40_);fill:#010101;}
	.st20{clip-path:url(#SVGID_42_);}
	.st21{clip-path:url(#SVGID_44_);fill:#010101;}
	.st22{clip-path:url(#SVGID_46_);}
	.st23{clip-path:url(#SVGID_48_);fill:#010101;}
	.st24{clip-path:url(#SVGID_50_);}
	.st25{clip-path:url(#SVGID_52_);fill:#010101;}
	.st26{clip-path:url(#XMLID_70_);}
	.st27{clip-path:url(#XMLID_71_);fill:#5EC2A8;}
	.st28{clip-path:url(#XMLID_72_);}
	.st29{clip-path:url(#XMLID_73_);fill:#010101;}
	.st30{clip-path:url(#XMLID_74_);}
	.st31{clip-path:url(#XMLID_75_);fill:#010101;}
	.st32{clip-path:url(#XMLID_76_);}
	.st33{clip-path:url(#XMLID_77_);fill:#010101;}
	.st34{clip-path:url(#XMLID_78_);}
	.st35{clip-path:url(#XMLID_79_);fill:#010101;}
	.st36{clip-path:url(#XMLID_80_);}
	.st37{clip-path:url(#XMLID_81_);fill:#010101;}
	.st38{clip-path:url(#XMLID_82_);}
	.st39{clip-path:url(#XMLID_83_);fill:#010101;}
	.st40{clip-path:url(#XMLID_84_);}
	.st41{clip-path:url(#XMLID_85_);fill:#010101;}
	.st42{clip-path:url(#XMLID_86_);}
	.st43{clip-path:url(#XMLID_87_);fill:#010101;}
	.st44{clip-path:url(#XMLID_88_);}
	.st45{clip-path:url(#XMLID_89_);fill:#010101;}
	.st46{clip-path:url(#XMLID_90_);}
	.st47{clip-path:url(#XMLID_91_);fill:#010101;}
	.st48{clip-path:url(#XMLID_92_);}
	.st49{clip-path:url(#XMLID_93_);fill:#010101;}
	.st50{clip-path:url(#XMLID_94_);}
	.st51{clip-path:url(#XMLID_95_);fill:#010101;}
</style>
<g>
	<defs>
		<path id="SVGID_1_" d="M313.6-1045.4h-11.5c-0.3,0-0.6-0.3-0.6-0.6v-30c0-0.3,0.3-0.6,0.6-0.6h11.5c0.3,0,0.6,0.3,0.6,0.6v30
			C314.2-1045.7,313.9-1045.4,313.6-1045.4z"/>
	</defs>
	<clipPath id="SVGID_2_">
		<use xlink:href="#SVGID_1_"  style="overflow:visible;"/>
	</clipPath>
	<g class="st0">
		<defs>
			<rect id="SVGID_3_" x="-689" y="-2508" width="1440" height="5096"/>
		</defs>
		<clipPath id="SVGID_4_">
			<use xlink:href="#SVGID_3_"  style="overflow:visible;"/>
		</clipPath>
		<rect x="296.5" y="-1081.8" class="st1" width="22.7" height="41.3"/>
	</g>
</g>
<g>
	<defs>
		<path id="SVGID_5_" d="M330.5-1121.5v12.9c0,0.8,0.7,1.5,1.5,1.5s1.5-0.7,1.5-1.5v-12.9c0-0.8-0.7-1.5-1.5-1.5
			C331.2-1123,330.5-1122.3,330.5-1121.5z"/>
	</defs>
	<clipPath id="SVGID_6_">
		<use xlink:href="#SVGID_5_"  style="overflow:visible;"/>
	</clipPath>
	<g class="st2">
		<defs>
			<rect id="SVGID_7_" x="-689" y="-2508" width="1440" height="5096"/>
		</defs>
		<clipPath id="SVGID_8_">
			<use xlink:href="#SVGID_7_"  style="overflow:visible;"/>
		</clipPath>
		<rect x="325.5" y="-1128" class="st3" width="13" height="25.9"/>
	</g>
</g>
<g>
	<defs>
		<path id="SVGID_9_" d="M358.9-1093.9H346c-0.8,0-1.5,0.7-1.5,1.5c0,0.8,0.7,1.5,1.5,1.5h12.9c0.8,0,1.5-0.7,1.5-1.5
			C360.4-1093.3,359.7-1093.9,358.9-1093.9z"/>
	</defs>
	<clipPath id="SVGID_10_">
		<use xlink:href="#SVGID_9_"  style="overflow:visible;"/>
	</clipPath>
	<g class="st4">
		<defs>
			<rect id="SVGID_11_" x="-689" y="-2508" width="1440" height="5096"/>
		</defs>
		<clipPath id="SVGID_12_">
			<use xlink:href="#SVGID_11_"  style="overflow:visible;"/>
		</clipPath>
		<rect x="339.5" y="-1098.9" class="st5" width="25.9" height="13"/>
	</g>
</g>
<g>
	<defs>
		<path id="SVGID_13_" d="M303.7-1092.5c0,0.8,0.7,1.5,1.5,1.5h12.9c0.8,0,1.5-0.7,1.5-1.5c0-0.8-0.7-1.5-1.5-1.5h-12.9
			C304.3-1093.9,303.7-1093.3,303.7-1092.5z"/>
	</defs>
	<clipPath id="SVGID_14_">
		<use xlink:href="#SVGID_13_"  style="overflow:visible;"/>
	</clipPath>
	<g class="st6">
		<defs>
			<rect id="SVGID_15_" x="-689" y="-2508" width="1440" height="5096"/>
		</defs>
		<clipPath id="SVGID_16_">
			<use xlink:href="#SVGID_15_"  style="overflow:visible;"/>
		</clipPath>
		<rect x="298.7" y="-1098.9" class="st7" width="25.9" height="13"/>
	</g>
</g>
<g>
	<defs>
		<path id="SVGID_17_" d="M311.7-1113.1c0.3-0.3,0.4-0.7,0.4-1s-0.2-0.8-0.4-1c-0.3-0.3-0.7-0.4-1-0.4s-0.8,0.2-1,0.4
			c-0.3,0.3-0.4,0.7-0.4,1s0.2,0.8,0.4,1s0.7,0.4,1,0.4S311.4-1112.8,311.7-1113.1z"/>
	</defs>
	<clipPath id="SVGID_18_">
		<use xlink:href="#SVGID_17_"  style="overflow:visible;"/>
	</clipPath>
	<g class="st8">
		<defs>
			<rect id="SVGID_19_" x="-689" y="-2508" width="1440" height="5096"/>
		</defs>
		<clipPath id="SVGID_20_">
			<use xlink:href="#SVGID_19_"  style="overflow:visible;"/>
		</clipPath>
		<rect x="304.2" y="-1120.6" class="st9" width="13" height="13"/>
	</g>
</g>
<g>
	<defs>
		<path id="SVGID_21_" d="M315.7-1109.1c-0.6,0.6-0.6,1.5,0,2.1c0.3,0.3,0.7,0.4,1,0.4c0.4,0,0.8-0.1,1-0.4c0.6-0.6,0.6-1.5,0-2.1
			C317.2-1109.6,316.3-1109.6,315.7-1109.1z"/>
	</defs>
	<clipPath id="SVGID_22_">
		<use xlink:href="#SVGID_21_"  style="overflow:visible;"/>
	</clipPath>
	<g class="st10">
		<defs>
			<rect id="SVGID_23_" x="-689" y="-2508" width="1440" height="5096"/>
		</defs>
		<clipPath id="SVGID_24_">
			<use xlink:href="#SVGID_23_"  style="overflow:visible;"/>
		</clipPath>
		<rect x="310.3" y="-1114.5" class="st11" width="12.9" height="13"/>
	</g>
</g>
<g>
	<defs>
		<path id="SVGID_25_" d="M314.8-1110c0.6-0.6,0.6-1.5,0-2.1s-1.5-0.6-2.1,0c-0.6,0.6-0.6,1.5,0,2.1c0.3,0.3,0.7,0.4,1,0.4
			C314.1-1109.6,314.5-1109.7,314.8-1110z"/>
	</defs>
	<clipPath id="SVGID_26_">
		<use xlink:href="#SVGID_25_"  style="overflow:visible;"/>
	</clipPath>
	<g class="st12">
		<defs>
			<rect id="SVGID_27_" x="-689" y="-2508" width="1440" height="5096"/>
		</defs>
		<clipPath id="SVGID_28_">
			<use xlink:href="#SVGID_27_"  style="overflow:visible;"/>
		</clipPath>
		<rect x="307.2" y="-1117.5" class="st13" width="12.9" height="12.9"/>
	</g>
</g>
<g>
	<defs>
		<path id="SVGID_29_" d="M318.8-1106c-0.3,0.3-0.4,0.7-0.4,1s0.2,0.8,0.4,1s0.7,0.4,1,0.4s0.8-0.2,1-0.4c0.3-0.3,0.4-0.7,0.4-1
			s-0.2-0.8-0.4-1c-0.3-0.3-0.7-0.4-1-0.4C319.4-1106.4,319-1106.3,318.8-1106z"/>
	</defs>
	<clipPath id="SVGID_30_">
		<use xlink:href="#SVGID_29_"  style="overflow:visible;"/>
	</clipPath>
	<g class="st14">
		<defs>
			<rect id="SVGID_31_" x="-689" y="-2508" width="1440" height="5096"/>
		</defs>
		<clipPath id="SVGID_32_">
			<use xlink:href="#SVGID_31_"  style="overflow:visible;"/>
		</clipPath>
		<rect x="313.3" y="-1111.4" class="st15" width="13" height="13"/>
	</g>
</g>
<g>
	<defs>
		<path id="SVGID_33_" d="M351-1114.2c-0.3,0.3-0.4,0.7-0.4,1s0.2,0.8,0.4,1c0.3,0.3,0.7,0.4,1,0.4s0.8-0.2,1-0.4
			c0.3-0.3,0.4-0.7,0.4-1s-0.2-0.8-0.4-1c-0.3-0.3-0.7-0.4-1-0.4C351.6-1114.6,351.2-1114.5,351-1114.2z"/>
	</defs>
	<clipPath id="SVGID_34_">
		<use xlink:href="#SVGID_33_"  style="overflow:visible;"/>
	</clipPath>
	<g class="st16">
		<defs>
			<rect id="SVGID_35_" x="-689" y="-2508" width="1440" height="5096"/>
		</defs>
		<clipPath id="SVGID_36_">
			<use xlink:href="#SVGID_35_"  style="overflow:visible;"/>
		</clipPath>
		<rect x="345.5" y="-1119.6" class="st17" width="13" height="13"/>
	</g>
</g>
<g>
	<defs>
		<path id="SVGID_37_" d="M345.9-1105.6c0.4,0,0.8-0.1,1-0.4c0.6-0.6,0.6-1.5,0-2.1c-0.6-0.6-1.5-0.6-2.1,0c-0.6,0.6-0.6,1.5,0,2.1
			C345.2-1105.7,345.5-1105.6,345.9-1105.6z"/>
	</defs>
	<clipPath id="SVGID_38_">
		<use xlink:href="#SVGID_37_"  style="overflow:visible;"/>
	</clipPath>
	<g class="st18">
		<defs>
			<rect id="SVGID_39_" x="-689" y="-2508" width="1440" height="5096"/>
		</defs>
		<clipPath id="SVGID_40_">
			<use xlink:href="#SVGID_39_"  style="overflow:visible;"/>
		</clipPath>
		<rect x="339.4" y="-1113.5" class="st19" width="12.9" height="12.9"/>
	</g>
</g>
<g>
	<defs>
		<path id="SVGID_41_" d="M347.9-1111.2c-0.6,0.6-0.6,1.5,0,2.1c0.3,0.3,0.7,0.4,1,0.4c0.4,0,0.8-0.1,1-0.4c0.6-0.6,0.6-1.5,0-2.1
			C349.4-1111.7,348.5-1111.7,347.9-1111.2z"/>
	</defs>
	<clipPath id="SVGID_42_">
		<use xlink:href="#SVGID_41_"  style="overflow:visible;"/>
	</clipPath>
	<g class="st20">
		<defs>
			<rect id="SVGID_43_" x="-689" y="-2508" width="1440" height="5096"/>
		</defs>
		<clipPath id="SVGID_44_">
			<use xlink:href="#SVGID_43_"  style="overflow:visible;"/>
		</clipPath>
		<rect x="342.5" y="-1116.6" class="st21" width="12.9" height="13"/>
	</g>
</g>
<g>
	<defs>
		<path id="SVGID_45_" d="M341.4-1104c0,0.4,0.2,0.8,0.4,1c0.3,0.3,0.7,0.4,1,0.4s0.8-0.2,1-0.4c0.3-0.3,0.4-0.7,0.4-1
			s-0.2-0.8-0.4-1s-0.7-0.4-1-0.4s-0.8,0.2-1,0.4C341.6-1104.8,341.4-1104.4,341.4-1104z"/>
	</defs>
	<clipPath id="SVGID_46_">
		<use xlink:href="#SVGID_45_"  style="overflow:visible;"/>
	</clipPath>
	<g class="st22">
		<defs>
			<rect id="SVGID_47_" x="-689" y="-2508" width="1440" height="5096"/>
		</defs>
		<clipPath id="SVGID_48_">
			<use xlink:href="#SVGID_47_"  style="overflow:visible;"/>
		</clipPath>
		<rect x="336.4" y="-1110.5" class="st23" width="13" height="13"/>
	</g>
</g>
<g>
	<defs>
		<path id="SVGID_49_" d="M353.7-1051.6L353.7-1051.6c-0.5,3.7-2.8,5.6-7,5.6h-25.6c-3,0-5.4-2.4-5.4-5.4v-23.2c0.2,0,0.5,0,0.7,0
			c0.5-0.1,12.1-3.5,12.1-14v-9.3c1.3-0.2,3.5-0.3,5.1,0.8c1.5,1.1,2.2,3.1,2.2,6.1v10.8c0,0.8,0.7,1.5,1.5,1.5h14.4
			c2.9,0,5.3,2.4,5.4,5.3L353.7-1051.6z M312.8-1046.9H303v-28.3h9.8V-1046.9z M360.1-1073.3c0-4.6-3.7-8.3-8.3-8.3h-13v-9.4
			c0-3.9-1.1-6.8-3.4-8.4c-3.6-2.6-8.5-1.1-8.7-1.1c-0.6,0.2-1,0.8-1,1.4v10.5c0,8.3-9.6,11.1-10,11.2c-0.2,0-0.4,0.1-0.5,0.3
			c-0.5-0.6-1.3-1-2.2-1h-10.2c-1.5,0-2.8,1.2-2.8,2.8v28.8c0,1.5,1.2,2.8,2.8,2.8h10.2c1,0,1.9-0.6,2.4-1.4
			c1.5,1.4,3.5,2.3,5.8,2.3h25.6c5.7,0,9.3-3,9.9-8.1l3.4-21.9C360.1-1073.2,360.1-1073.3,360.1-1073.3z"/>
	</defs>
	<clipPath id="SVGID_50_">
		<use xlink:href="#SVGID_49_"  style="overflow:visible;"/>
	</clipPath>
	<g class="st24">
		<defs>
			<rect id="SVGID_51_" x="-689" y="-2508" width="1440" height="5096"/>
		</defs>
		<clipPath id="SVGID_52_">
			<use xlink:href="#SVGID_51_"  style="overflow:visible;"/>
		</clipPath>
		<rect x="295" y="-1106" class="st25" width="70.1" height="68"/>
	</g>
</g>
<g id="XMLID_65_">
	<defs>
		<path id="XMLID_66_" d="M13.9,77.6H2.4c-0.3,0-0.6-0.3-0.6-0.6v-30c0-0.3,0.3-0.6,0.6-0.6h11.5c0.3,0,0.6,0.3,0.6,0.6v30
			C14.5,77.3,14.3,77.6,13.9,77.6z"/>
	</defs>
	<clipPath id="XMLID_70_">
		<use xlink:href="#XMLID_66_"  style="overflow:visible;"/>
	</clipPath>
	<g id="XMLID_67_" class="st26">
		<defs>
			<rect id="XMLID_68_" x="-988.7" y="-1385" width="1440" height="5096"/>
		</defs>
		<clipPath id="XMLID_71_">
			<use xlink:href="#XMLID_68_"  style="overflow:visible;"/>
		</clipPath>
		<rect id="XMLID_69_" x="-3.2" y="41.3" class="st27" width="22.7" height="41.3"/>
	</g>
</g>
<g id="XMLID_60_">
	<defs>
		<path id="XMLID_61_" d="M30.9,1.5v12.9c0,0.8,0.7,1.5,1.5,1.5c0.8,0,1.5-0.7,1.5-1.5V1.5c0-0.8-0.7-1.5-1.5-1.5
			C31.5,0,30.9,0.7,30.9,1.5z"/>
	</defs>
	<clipPath id="XMLID_72_">
		<use xlink:href="#XMLID_61_"  style="overflow:visible;"/>
	</clipPath>
	<g id="XMLID_62_" class="st28">
		<defs>
			<rect id="XMLID_63_" x="-988.7" y="-1385" width="1440" height="5096"/>
		</defs>
		<clipPath id="XMLID_73_">
			<use xlink:href="#XMLID_63_"  style="overflow:visible;"/>
		</clipPath>
		<rect id="XMLID_64_" x="25.9" y="-5" class="st29" width="13" height="25.9"/>
	</g>
</g>
<g id="XMLID_55_">
	<defs>
		<path id="XMLID_56_" d="M59.2,29.1H46.3c-0.8,0-1.5,0.7-1.5,1.5s0.7,1.5,1.5,1.5h12.9c0.8,0,1.5-0.7,1.5-1.5S60,29.1,59.2,29.1z"
			/>
	</defs>
	<clipPath id="XMLID_74_">
		<use xlink:href="#XMLID_56_"  style="overflow:visible;"/>
	</clipPath>
	<g id="XMLID_57_" class="st30">
		<defs>
			<rect id="XMLID_58_" x="-988.7" y="-1385" width="1440" height="5096"/>
		</defs>
		<clipPath id="XMLID_75_">
			<use xlink:href="#XMLID_58_"  style="overflow:visible;"/>
		</clipPath>
		<rect id="XMLID_59_" x="39.8" y="24.1" class="st31" width="25.9" height="13"/>
	</g>
</g>
<g id="XMLID_50_">
	<defs>
		<path id="XMLID_51_" d="M4,30.6C4,31.4,4.7,32,5.5,32h12.9c0.8,0,1.5-0.7,1.5-1.5s-0.7-1.5-1.5-1.5H5.5C4.7,29.1,4,29.7,4,30.6z"
			/>
	</defs>
	<clipPath id="XMLID_76_">
		<use xlink:href="#XMLID_51_"  style="overflow:visible;"/>
	</clipPath>
	<g id="XMLID_52_" class="st32">
		<defs>
			<rect id="XMLID_53_" x="-988.7" y="-1385" width="1440" height="5096"/>
		</defs>
		<clipPath id="XMLID_77_">
			<use xlink:href="#XMLID_53_"  style="overflow:visible;"/>
		</clipPath>
		<rect id="XMLID_54_" x="-1" y="24.1" class="st33" width="25.9" height="13"/>
	</g>
</g>
<g id="XMLID_45_">
	<defs>
		<path id="XMLID_46_" d="M12,10c0.3-0.3,0.4-0.7,0.4-1c0-0.4-0.2-0.8-0.4-1c-0.3-0.3-0.7-0.4-1-0.4c-0.4,0-0.8,0.2-1,0.4
			c-0.3,0.3-0.4,0.7-0.4,1c0,0.4,0.2,0.8,0.4,1c0.3,0.3,0.7,0.4,1,0.4C11.4,10.4,11.7,10.2,12,10z"/>
	</defs>
	<clipPath id="XMLID_78_">
		<use xlink:href="#XMLID_46_"  style="overflow:visible;"/>
	</clipPath>
	<g id="XMLID_47_" class="st34">
		<defs>
			<rect id="XMLID_48_" x="-988.7" y="-1385" width="1440" height="5096"/>
		</defs>
		<clipPath id="XMLID_79_">
			<use xlink:href="#XMLID_48_"  style="overflow:visible;"/>
		</clipPath>
		<rect id="XMLID_49_" x="4.5" y="2.4" class="st35" width="13" height="13"/>
	</g>
</g>
<g id="XMLID_40_">
	<defs>
		<path id="XMLID_41_" d="M16,14c-0.6,0.6-0.6,1.5,0,2.1c0.3,0.3,0.7,0.4,1,0.4c0.4,0,0.8-0.1,1-0.4c0.6-0.6,0.6-1.5,0-2.1
			C17.5,13.4,16.6,13.4,16,14z"/>
	</defs>
	<clipPath id="XMLID_80_">
		<use xlink:href="#XMLID_41_"  style="overflow:visible;"/>
	</clipPath>
	<g id="XMLID_42_" class="st36">
		<defs>
			<rect id="XMLID_43_" x="-988.7" y="-1385" width="1440" height="5096"/>
		</defs>
		<clipPath id="XMLID_81_">
			<use xlink:href="#XMLID_43_"  style="overflow:visible;"/>
		</clipPath>
		<rect id="XMLID_44_" x="10.6" y="8.5" class="st37" width="12.9" height="13"/>
	</g>
</g>
<g id="XMLID_35_">
	<defs>
		<path id="XMLID_36_" d="M15.1,13c0.6-0.6,0.6-1.5,0-2.1c-0.6-0.6-1.5-0.6-2.1,0c-0.6,0.6-0.6,1.5,0,2.1c0.3,0.3,0.7,0.4,1,0.4
			C14.4,13.5,14.8,13.3,15.1,13z"/>
	</defs>
	<clipPath id="XMLID_82_">
		<use xlink:href="#XMLID_36_"  style="overflow:visible;"/>
	</clipPath>
	<g id="XMLID_37_" class="st38">
		<defs>
			<rect id="XMLID_38_" x="-988.7" y="-1385" width="1440" height="5096"/>
		</defs>
		<clipPath id="XMLID_83_">
			<use xlink:href="#XMLID_38_"  style="overflow:visible;"/>
		</clipPath>
		<rect id="XMLID_39_" x="7.6" y="5.5" class="st39" width="12.9" height="12.9"/>
	</g>
</g>
<g id="XMLID_30_">
	<defs>
		<path id="XMLID_31_" d="M19.1,17c-0.3,0.3-0.4,0.7-0.4,1c0,0.4,0.2,0.8,0.4,1c0.3,0.3,0.7,0.4,1,0.4c0.4,0,0.8-0.2,1-0.4
			c0.3-0.3,0.4-0.7,0.4-1c0-0.4-0.2-0.8-0.4-1c-0.3-0.3-0.7-0.4-1-0.4C19.7,16.6,19.3,16.7,19.1,17z"/>
	</defs>
	<clipPath id="XMLID_84_">
		<use xlink:href="#XMLID_31_"  style="overflow:visible;"/>
	</clipPath>
	<g id="XMLID_32_" class="st40">
		<defs>
			<rect id="XMLID_33_" x="-988.7" y="-1385" width="1440" height="5096"/>
		</defs>
		<clipPath id="XMLID_85_">
			<use xlink:href="#XMLID_33_"  style="overflow:visible;"/>
		</clipPath>
		<rect id="XMLID_34_" x="13.6" y="11.6" class="st41" width="13" height="13"/>
	</g>
</g>
<g id="XMLID_25_">
	<defs>
		<path id="XMLID_26_" d="M51.3,8.8c-0.3,0.3-0.4,0.7-0.4,1c0,0.4,0.2,0.8,0.4,1c0.3,0.3,0.7,0.4,1,0.4s0.8-0.2,1-0.4
			c0.3-0.3,0.4-0.7,0.4-1c0-0.4-0.2-0.8-0.4-1c-0.3-0.3-0.7-0.4-1-0.4C51.9,8.4,51.5,8.5,51.3,8.8z"/>
	</defs>
	<clipPath id="XMLID_86_">
		<use xlink:href="#XMLID_26_"  style="overflow:visible;"/>
	</clipPath>
	<g id="XMLID_27_" class="st42">
		<defs>
			<rect id="XMLID_28_" x="-988.7" y="-1385" width="1440" height="5096"/>
		</defs>
		<clipPath id="XMLID_87_">
			<use xlink:href="#XMLID_28_"  style="overflow:visible;"/>
		</clipPath>
		<rect id="XMLID_29_" x="45.8" y="3.4" class="st43" width="13" height="13"/>
	</g>
</g>
<g id="XMLID_20_">
	<defs>
		<path id="XMLID_21_" d="M46.2,17.4c0.4,0,0.8-0.1,1-0.4c0.6-0.6,0.6-1.5,0-2.1c-0.6-0.6-1.5-0.6-2.1,0c-0.6,0.6-0.6,1.5,0,2.1
			C45.5,17.3,45.8,17.4,46.2,17.4z"/>
	</defs>
	<clipPath id="XMLID_88_">
		<use xlink:href="#XMLID_21_"  style="overflow:visible;"/>
	</clipPath>
	<g id="XMLID_22_" class="st44">
		<defs>
			<rect id="XMLID_23_" x="-988.7" y="-1385" width="1440" height="5096"/>
		</defs>
		<clipPath id="XMLID_89_">
			<use xlink:href="#XMLID_23_"  style="overflow:visible;"/>
		</clipPath>
		<rect id="XMLID_24_" x="39.7" y="9.5" class="st45" width="12.9" height="12.9"/>
	</g>
</g>
<g id="XMLID_15_">
	<defs>
		<path id="XMLID_16_" d="M48.2,11.9c-0.6,0.6-0.6,1.5,0,2.1c0.3,0.3,0.7,0.4,1,0.4c0.4,0,0.8-0.1,1-0.4c0.6-0.6,0.6-1.5,0-2.1
			C49.7,11.3,48.8,11.3,48.2,11.9z"/>
	</defs>
	<clipPath id="XMLID_90_">
		<use xlink:href="#XMLID_16_"  style="overflow:visible;"/>
	</clipPath>
	<g id="XMLID_17_" class="st46">
		<defs>
			<rect id="XMLID_18_" x="-988.7" y="-1385" width="1440" height="5096"/>
		</defs>
		<clipPath id="XMLID_91_">
			<use xlink:href="#XMLID_18_"  style="overflow:visible;"/>
		</clipPath>
		<rect id="XMLID_19_" x="42.8" y="6.4" class="st47" width="12.9" height="13"/>
	</g>
</g>
<g id="XMLID_10_">
	<defs>
		<path id="XMLID_11_" d="M41.7,19c0,0.4,0.2,0.8,0.4,1s0.7,0.4,1,0.4c0.4,0,0.8-0.2,1-0.4s0.4-0.7,0.4-1c0-0.4-0.2-0.8-0.4-1
			s-0.7-0.4-1-0.4c-0.4,0-0.8,0.2-1,0.4C41.9,18.2,41.7,18.6,41.7,19z"/>
	</defs>
	<clipPath id="XMLID_92_">
		<use xlink:href="#XMLID_11_"  style="overflow:visible;"/>
	</clipPath>
	<g id="XMLID_12_" class="st48">
		<defs>
			<rect id="XMLID_13_" x="-988.7" y="-1385" width="1440" height="5096"/>
		</defs>
		<clipPath id="XMLID_93_">
			<use xlink:href="#XMLID_13_"  style="overflow:visible;"/>
		</clipPath>
		<rect id="XMLID_14_" x="36.7" y="12.5" class="st49" width="13" height="13"/>
	</g>
</g>
<g id="XMLID_2_">
	<defs>
		<path id="XMLID_3_" d="M54,71.4L54,71.4c-0.5,3.7-2.8,5.6-7,5.6H21.4c-3,0-5.4-2.4-5.4-5.4V48.4c0.2,0,0.5,0,0.7,0
			c0.5-0.1,12.1-3.5,12.1-14v-9.3c1.3-0.2,3.5-0.3,5.1,0.8c1.5,1.1,2.2,3.1,2.2,6.1v10.8c0,0.8,0.7,1.5,1.5,1.5h14.4
			c2.9,0,5.3,2.4,5.4,5.3L54,71.4z M13.1,76.1H3.3V47.7h9.8V76.1z M60.4,49.7c0-4.6-3.7-8.3-8.3-8.3h-13V32c0-3.9-1.1-6.8-3.4-8.4
			c-3.6-2.6-8.5-1.1-8.7-1.1c-0.6,0.2-1,0.8-1,1.4v10.5c0,8.3-9.6,11.1-10,11.2c-0.2,0-0.4,0.1-0.5,0.3c-0.5-0.6-1.3-1-2.2-1H3.1
			c-1.5,0-2.8,1.2-2.8,2.8v28.8c0,1.5,1.2,2.8,2.8,2.8h10.2c1,0,1.9-0.6,2.4-1.4c1.5,1.4,3.5,2.3,5.8,2.3H47c5.7,0,9.3-3,9.9-8.1
			l3.4-21.9C60.4,49.8,60.4,49.8,60.4,49.7z"/>
	</defs>
	<clipPath id="XMLID_94_">
		<use xlink:href="#XMLID_3_"  style="overflow:visible;"/>
	</clipPath>
	<g id="XMLID_7_" class="st50">
		<defs>
			<rect id="XMLID_8_" x="-988.7" y="-1385" width="1440" height="5096"/>
		</defs>
		<clipPath id="XMLID_95_">
			<use xlink:href="#XMLID_8_"  style="overflow:visible;"/>
		</clipPath>
		<rect id="XMLID_9_" x="-4.7" y="17" class="st51" width="70.1" height="68"/>
	</g>
</g>
</svg>
