<?xml version="1.0" encoding="utf-8"?>
<!-- Generator: Adobe Illustrator 19.0.0, SVG Export Plug-In . SVG Version: 6.00 Build 0)  -->
<svg version="1.1" id="Layer_1" xmlns="http://www.w3.org/2000/svg" xmlns:xlink="http://www.w3.org/1999/xlink" x="0px" y="0px"
	 viewBox="0 0 80 80" style="enable-background:new 0 0 80 80;" xml:space="preserve">
<style type="text/css">
	.st0{clip-path:url(#XMLID_30_);}
	.st1{clip-path:url(#XMLID_31_);fill:#5EC2A8;}
	.st2{clip-path:url(#XMLID_32_);}
	.st3{clip-path:url(#XMLID_33_);fill:#010101;}
	.st4{clip-path:url(#XMLID_34_);}
	.st5{clip-path:url(#XMLID_35_);fill:#010101;}
	.st6{clip-path:url(#XMLID_36_);}
	.st7{clip-path:url(#XMLID_37_);fill:#010101;}
	.st8{clip-path:url(#XMLID_38_);}
	.st9{clip-path:url(#XMLID_39_);fill:#010101;}
</style>
<g id="XMLID_25_">
	<defs>
		<path id="XMLID_26_" d="M54.1,56.5h-27c-0.7,0-1.2-0.5-1.2-1.2V36.7c0-0.7,0.5-1.2,1.2-1.2h27c0.7,0,1.2,0.5,1.2,1.2v18.6
			C55.3,56,54.7,56.5,54.1,56.5z"/>
	</defs>
	<clipPath id="XMLID_30_">
		<use xlink:href="#XMLID_26_"  style="overflow:visible;"/>
	</clipPath>
	<g id="XMLID_27_" class="st0">
		<defs>
			<rect id="XMLID_28_" x="-978.9" y="-1614.9" width="1440" height="5096"/>
		</defs>
		<clipPath id="XMLID_31_">
			<use xlink:href="#XMLID_28_"  style="overflow:visible;"/>
		</clipPath>
		<rect id="XMLID_29_" x="20.9" y="30.5" class="st1" width="39.3" height="30.9"/>
	</g>
</g>
<g id="XMLID_20_">
	<defs>
		<path id="XMLID_21_" d="M3.8,54.5c0.2,0,0.3,0,0.5-0.1c0.8-0.3,1.2-1.1,0.9-1.9c-4.8-13.4-1.6-28.1,8.3-38.4
			c6.9-7.1,16.1-11,26-11.1c9.9-0.1,19.2,3.6,26.3,10.5l0.2,0.2l-4.5,0c-0.8,0-1.5,0.7-1.5,1.5c0,0.8,0.7,1.5,1.5,1.5h0l8-0.1
			c0.4,0,0.8-0.2,1-0.4s0.4-0.7,0.4-1l-0.1-8c0-0.8-0.7-1.5-1.5-1.5c-0.8,0-1.5,0.7-1.5,1.5l0,4.5l-0.2-0.2
			C60.4,4.1,50.5,0.1,40,0.1h-0.5c-10.7,0.1-20.6,4.4-28.1,12c-5.3,5.5-9,12.3-10.5,19.7c-1.5,7.2-1,14.7,1.5,21.7
			C2.6,54.1,3.2,54.5,3.8,54.5z"/>
	</defs>
	<clipPath id="XMLID_32_">
		<use xlink:href="#XMLID_21_"  style="overflow:visible;"/>
	</clipPath>
	<g id="XMLID_22_" class="st2">
		<defs>
			<rect id="XMLID_23_" x="-978.9" y="-1614.9" width="1440" height="5096"/>
		</defs>
		<clipPath id="XMLID_33_">
			<use xlink:href="#XMLID_23_"  style="overflow:visible;"/>
		</clipPath>
		<rect id="XMLID_24_" x="-4.9" y="-4.9" class="st3" width="81.1" height="64.4"/>
	</g>
</g>
<g id="XMLID_15_">
	<defs>
		<path id="XMLID_16_" d="M77.6,26.5c-0.3-0.8-1.1-1.2-1.9-0.9c-0.8,0.3-1.2,1.1-0.9,1.9c4.8,13.4,1.6,28.1-8.4,38.3
			C59.2,73.2,49.6,76.9,40,76.9c-9.3,0-18.6-3.5-25.8-10.5l-0.2-0.2l4.5,0c0.8,0,1.5-0.7,1.5-1.5c0-0.8-0.7-1.5-1.5-1.5h0l-8,0.1
			c-0.8,0-1.5,0.7-1.5,1.5l0.1,8c0,0.8,0.7,1.5,1.5,1.5h0c0.8,0,1.5-0.7,1.5-1.5l0-4.5l0.2,0.2c7.8,7.6,17.8,11.3,27.9,11.3
			c10.4,0,20.8-4,28.6-12c5.3-5.5,9-12.3,10.5-19.7C80.6,40.9,80.1,33.5,77.6,26.5z"/>
	</defs>
	<clipPath id="XMLID_34_">
		<use xlink:href="#XMLID_16_"  style="overflow:visible;"/>
	</clipPath>
	<g id="XMLID_17_" class="st4">
		<defs>
			<rect id="XMLID_18_" x="-978.9" y="-1614.9" width="1440" height="5096"/>
		</defs>
		<clipPath id="XMLID_35_">
			<use xlink:href="#XMLID_18_"  style="overflow:visible;"/>
		</clipPath>
		<rect id="XMLID_19_" x="3.9" y="20.5" class="st5" width="81.1" height="64.4"/>
	</g>
</g>
<g id="XMLID_7_">
	<defs>
		<path id="XMLID_8_" d="M53.8,37.9v16.2c0,0.5-0.4,0.9-0.9,0.9H28.3c-0.5,0-0.9-0.4-0.9-0.9V37.9c0-0.5,0.4-0.9,0.9-0.9h24.6
			C53.4,37,53.8,37.4,53.8,37.9z M31.7,28.2c0-4.9,4-8.9,8.9-8.9c4.9,0,8.9,4,8.9,8.9v5.9H31.7V28.2z M40.6,16.3
			c-6.5,0-11.8,5.3-11.8,11.8v5.9h-0.5c-2.1,0-3.9,1.7-3.9,3.9v16.2c0,2.1,1.7,3.9,3.9,3.9h24.6c2.1,0,3.9-1.7,3.9-3.9V37.9
			c0-2.1-1.7-3.9-3.9-3.9h-0.5v-5.9C52.4,21.6,47.1,16.3,40.6,16.3z"/>
	</defs>
	<clipPath id="XMLID_36_">
		<use xlink:href="#XMLID_8_"  style="overflow:visible;"/>
	</clipPath>
	<g id="XMLID_12_" class="st6">
		<defs>
			<rect id="XMLID_13_" x="-978.9" y="-1614.9" width="1440" height="5096"/>
		</defs>
		<clipPath id="XMLID_37_">
			<use xlink:href="#XMLID_13_"  style="overflow:visible;"/>
		</clipPath>
		<rect id="XMLID_14_" x="19.4" y="11.3" class="st7" width="42.3" height="51.7"/>
	</g>
</g>
<g id="XMLID_2_">
	<defs>
		<path id="XMLID_3_" d="M41,42.2c-1-0.2-2,0.4-2.4,1.3c-0.4,1-0.1,2.1,0.7,2.7c0.2,0.1,0.2,0.3,0.2,0.5v2.9c0,0.8,0.8,1.4,1.7,1
			c0.4-0.2,0.6-0.6,0.5-1v-2.9c0-0.2,0-0.3,0.2-0.5c0.6-0.4,0.9-1.1,0.9-1.8C42.8,43.3,42.1,42.4,41,42.2z"/>
	</defs>
	<clipPath id="XMLID_38_">
		<use xlink:href="#XMLID_3_"  style="overflow:visible;"/>
	</clipPath>
	<g id="XMLID_4_" class="st8">
		<defs>
			<rect id="XMLID_5_" x="-978.9" y="-1614.9" width="1440" height="5096"/>
		</defs>
		<clipPath id="XMLID_39_">
			<use xlink:href="#XMLID_5_"  style="overflow:visible;"/>
		</clipPath>
		<rect id="XMLID_6_" x="33.3" y="37.2" class="st9" width="14.5" height="18.6"/>
	</g>
</g>
</svg>
