<?xml version="1.0" encoding="utf-8"?>
<!-- Generator: Adobe Illustrator 19.0.0, SVG Export Plug-In . SVG Version: 6.00 Build 0)  -->
<svg version="1.1" id="Layer_1" xmlns="http://www.w3.org/2000/svg" xmlns:xlink="http://www.w3.org/1999/xlink" x="0px" y="0px"
	 viewBox="0 0 65 80" style="enable-background:new 0 0 65 80;" xml:space="preserve">
<style type="text/css">
	.st0{clip-path:url(#XMLID_19_);}
	.st1{clip-path:url(#XMLID_20_);fill:#5EC2A8;}
	.st2{clip-path:url(#XMLID_21_);}
	.st3{clip-path:url(#XMLID_22_);fill:#010101;}
	.st4{clip-path:url(#XMLID_23_);}
	.st5{clip-path:url(#XMLID_24_);fill:#010101;}
</style>
<g id="XMLID_14_">
	<defs>
		<path id="XMLID_15_" d="M42.9,68.1L32.5,78.5l0,0L22.1,68.1c-2.5-2.5-2.5-6.6,0-9.2c2.5-2.5,6.6-2.5,9.2,0l1.3,1.3l1.2-1.2
			c2.5-2.5,6.6-2.5,9.2,0C45.4,61.5,45.4,65.6,42.9,68.1z"/>
	</defs>
	<clipPath id="XMLID_19_">
		<use xlink:href="#XMLID_15_"  style="overflow:visible;"/>
	</clipPath>
	<g id="XMLID_16_" class="st0">
		<defs>
			<rect id="XMLID_17_" x="-387.8" y="-1155" width="1440" height="5096"/>
		</defs>
		<clipPath id="XMLID_20_">
			<use xlink:href="#XMLID_17_"  style="overflow:visible;"/>
		</clipPath>
		<rect id="XMLID_18_" x="15.2" y="52" class="st1" width="34.6" height="31.5"/>
	</g>
</g>
<g id="XMLID_9_">
	<defs>
		<path id="XMLID_10_" d="M20.8,30.9v10.9C18.3,43,10.4,47.2,3.1,53.2c-1.8,1.4-2.8,3.6-2.8,5.9v8.6c0,0.8,0.7,1.5,1.5,1.5
			s1.5-0.7,1.5-1.5v-8.6c0-1.4,0.6-2.7,1.7-3.6c7.7-6.3,16.1-10.5,17.6-11.3c0.7-0.3,1.1-1.1,1.1-1.8V30.2c0-0.5-0.2-1-0.7-1.2
			c-1.2-0.8-1.9-2.1-1.9-3.5V12.9c0-5.5,4.4-9.9,9.9-9.9h2.7c5.5,0,9.9,4.4,9.9,9.9v12.6c0,1.4-0.7,2.7-1.9,3.5
			c-0.4,0.3-0.7,0.7-0.7,1.2v12.2c0,0.8,0.5,1.5,1.1,1.8c1.6,0.8,9.9,5,17.6,11.3c1.1,0.9,1.7,2.2,1.7,3.6v8.7
			c0,0.8,0.7,1.5,1.5,1.5c0.8,0,1.5-0.7,1.5-1.5v-8.6c0-2.3-1-4.4-2.8-5.9c-7.3-6-15.2-10.2-17.7-11.4V30.9c1.6-1.4,2.5-3.3,2.5-5.5
			V12.9C46.7,5.8,40.9,0,33.9,0h-2.7c-7.1,0-12.8,5.8-12.8,12.8v12.6C18.3,27.6,19.2,29.6,20.8,30.9z"/>
	</defs>
	<clipPath id="XMLID_21_">
		<use xlink:href="#XMLID_10_"  style="overflow:visible;"/>
	</clipPath>
	<g id="XMLID_11_" class="st2">
		<defs>
			<rect id="XMLID_12_" x="-387.8" y="-1155" width="1440" height="5096"/>
		</defs>
		<clipPath id="XMLID_22_">
			<use xlink:href="#XMLID_12_"  style="overflow:visible;"/>
		</clipPath>
		<rect id="XMLID_13_" x="-4.6" y="-5" class="st3" width="74.3" height="79.2"/>
	</g>
</g>
<g id="XMLID_2_">
	<defs>
		<path id="XMLID_3_" d="M41.8,67l-9.3,9.3L23.1,67c-0.9-0.9-1.5-2.2-1.5-3.5c0-1.3,0.5-2.6,1.5-3.5c0.9-0.9,2.2-1.5,3.5-1.5
			c1.3,0,2.6,0.5,3.5,1.5l1.3,1.3c0.3,0.3,0.7,0.4,1,0.4c0.4,0,0.8-0.2,1-0.4l1.2-1.2c0.9-0.9,2.2-1.5,3.5-1.5
			c1.3,0,2.6,0.5,3.5,1.5c0.9,0.9,1.5,2.2,1.5,3.5C43.3,64.8,42.8,66.1,41.8,67z M38.3,55.5c-2.1,0-4.1,0.8-5.6,2.3l-0.2,0.2
			l-0.2-0.2c-1.5-1.5-3.5-2.3-5.6-2.3s-4.1,0.8-5.6,2.3c-1.5,1.5-2.3,3.5-2.3,5.6c0,2.1,0.8,4.1,2.3,5.6l10.4,10.4l0,0
			c0.3,0.3,0.7,0.4,1,0.4c0.4,0,0.8-0.2,1-0.4l10.4-10.4c1.5-1.5,2.3-3.5,2.3-5.6s-0.8-4.1-2.3-5.6C42.4,56.4,40.4,55.5,38.3,55.5z"
			/>
	</defs>
	<clipPath id="XMLID_23_">
		<use xlink:href="#XMLID_3_"  style="overflow:visible;"/>
	</clipPath>
	<g id="XMLID_6_" class="st4">
		<defs>
			<rect id="XMLID_7_" x="-387.8" y="-1155" width="1440" height="5096"/>
		</defs>
		<clipPath id="XMLID_24_">
			<use xlink:href="#XMLID_7_"  style="overflow:visible;"/>
		</clipPath>
		<rect id="XMLID_8_" x="13.7" y="50.5" class="st5" width="37.5" height="34.4"/>
	</g>
</g>
</svg>
