<?xml version="1.0" encoding="utf-8"?>
<!-- Generator: Adobe Illustrator 19.0.0, SVG Export Plug-In . SVG Version: 6.00 Build 0)  -->
<svg version="1.1" id="Layer_1" xmlns="http://www.w3.org/2000/svg" xmlns:xlink="http://www.w3.org/1999/xlink" x="0px" y="0px"
	 viewBox="0 0 55 80" style="enable-background:new 0 0 55 80;" xml:space="preserve">
<style type="text/css">
	.st0{clip-path:url(#XMLID_66_);}
	.st1{clip-path:url(#XMLID_67_);fill:#5EC2A8;}
	.st2{clip-path:url(#XMLID_68_);}
	.st3{clip-path:url(#XMLID_69_);fill:#010101;}
	.st4{clip-path:url(#XMLID_70_);}
	.st5{clip-path:url(#XMLID_71_);fill:#010101;}
	.st6{clip-path:url(#XMLID_72_);}
	.st7{clip-path:url(#XMLID_73_);fill:#010101;}
	.st8{clip-path:url(#XMLID_74_);}
	.st9{clip-path:url(#XMLID_75_);fill:#010101;}
	.st10{clip-path:url(#XMLID_76_);}
	.st11{clip-path:url(#XMLID_77_);fill:#010101;}
	.st12{clip-path:url(#XMLID_78_);}
	.st13{clip-path:url(#XMLID_79_);fill:#010101;}
	.st14{clip-path:url(#XMLID_80_);}
	.st15{clip-path:url(#XMLID_81_);fill:#010101;}
	.st16{clip-path:url(#XMLID_82_);}
	.st17{clip-path:url(#XMLID_83_);fill:#010101;}
	.st18{clip-path:url(#XMLID_84_);}
	.st19{clip-path:url(#XMLID_85_);fill:#010101;}
</style>
<g id="XMLID_61_">
	<defs>
		<circle id="XMLID_62_" cx="27.5" cy="72.9" r="5.6"/>
	</defs>
	<clipPath id="XMLID_66_">
		<use xlink:href="#XMLID_62_"  style="overflow:visible;"/>
	</clipPath>
	<g id="XMLID_63_" class="st0">
		<defs>
			<rect id="XMLID_64_" x="-392.9" y="-1615" width="1440" height="5096"/>
		</defs>
		<clipPath id="XMLID_67_">
			<use xlink:href="#XMLID_64_"  style="overflow:visible;"/>
		</clipPath>
		<rect id="XMLID_65_" x="16.9" y="62.2" class="st1" width="21.3" height="21.3"/>
	</g>
</g>
<g id="XMLID_42_">
	<defs>
		<path id="XMLID_43_" d="M36.8,49.7c-0.4,0.1-0.7,0.3-1.1,0.4c2.6-2.9,4.8-7,6.2-11.5H49C46.4,43.6,42.1,47.5,36.8,49.7z
			 M31.7,72.9c0,2.3-1.9,4.2-4.2,4.2c-2.3,0-4.2-1.9-4.2-4.2c0-2.3,1.9-4.2,4.2-4.2C29.8,68.7,31.7,70.6,31.7,72.9z M6,38.6h7.3
			c1.5,4.6,3.7,8.8,6.4,11.7C13.9,48.3,8.9,44.2,6,38.6z M18.2,4.8c0.3-0.1,0.5-0.2,0.8-0.3c-1.1,1.2-2.1,2.6-3,4.3
			c-1.2,2.1-2.2,4.6-2.9,7.1H6C8.6,11.1,12.7,7.1,18.2,4.8z M49,15.9h-6.8c-0.7-2.6-1.7-5-2.9-7.1c-0.9-1.6-1.9-3-2.9-4.2
			C41.7,6.7,46.2,10.7,49,15.9z M29,35.6V18.9h10.9c0.6,2.6,0.9,5.5,0.9,8.3c0,2.7-0.4,5.6-1.1,8.4L29,35.6L29,35.6z M29,51.2V38.6
			h9.8C36.7,44.9,33,50.2,29,51.2z M26,38.6v12.6c-3.9-1.2-7.5-6.4-9.6-12.6H26z M26,3.3V16h-9.9C18.2,9.3,21.9,4.3,26,3.3z M29,3.2
			c4.2,0.9,8,6,10.2,12.7H29V3.2z M14.4,27.2c0-2.9,0.3-5.7,0.9-8.3H26v16.8H15.6C14.9,32.8,14.4,29.9,14.4,27.2z M4.7,35.6
			c-2.1-5.6-1.9-11.5,0-16.8h7.7c-0.6,2.7-0.9,5.5-0.9,8.3c0,2.7,0.4,5.6,1,8.4H4.7z M50.3,35.6h-7.5c0.7-2.8,1-5.7,1-8.4
			c0-2.8-0.3-5.6-0.9-8.3h7.4C52.3,24.3,52.3,30.2,50.3,35.6z M52.7,16.8C48.5,6.6,38.6,0,27.5,0c-3.6,0-7.1,0.7-10.4,2.1
			C3.2,7.8-3.5,23.8,2.3,37.7c4,9.8,13.2,16.2,23.7,16.8v11.4c-3.2,0.7-5.6,3.5-5.6,7c0,3.9,3.2,7.1,7.1,7.1s7.1-3.2,7.1-7.1
			c0-3.4-2.4-6.3-5.6-7V54.5c3.1-0.2,6.1-0.8,8.9-2c6.7-2.8,12-8,14.8-14.8C55.5,31,55.5,23.6,52.7,16.8z"/>
	</defs>
	<clipPath id="XMLID_68_">
		<use xlink:href="#XMLID_43_"  style="overflow:visible;"/>
	</clipPath>
	<g id="XMLID_58_" class="st2">
		<defs>
			<rect id="XMLID_59_" x="-392.9" y="-1615" width="1440" height="5096"/>
		</defs>
		<clipPath id="XMLID_69_">
			<use xlink:href="#XMLID_59_"  style="overflow:visible;"/>
		</clipPath>
		<rect id="XMLID_60_" x="-4.8" y="-5" class="st3" width="64.6" height="90"/>
	</g>
</g>
<g id="XMLID_37_">
	<defs>
		<path id="XMLID_38_" d="M15.6,72.9c0,0.8,0.7,1.5,1.5,1.5c0.8,0,1.5-0.7,1.5-1.5c0-0.8-0.7-1.5-1.5-1.5
			C16.3,71.4,15.6,72,15.6,72.9z"/>
	</defs>
	<clipPath id="XMLID_70_">
		<use xlink:href="#XMLID_38_"  style="overflow:visible;"/>
	</clipPath>
	<g id="XMLID_39_" class="st4">
		<defs>
			<rect id="XMLID_40_" x="-392.9" y="-1615" width="1440" height="5096"/>
		</defs>
		<clipPath id="XMLID_71_">
			<use xlink:href="#XMLID_40_"  style="overflow:visible;"/>
		</clipPath>
		<rect id="XMLID_41_" x="10.6" y="66.4" class="st5" width="13" height="13"/>
	</g>
</g>
<g id="XMLID_32_">
	<defs>
		<path id="XMLID_33_" d="M6,72.9c0,0.8,0.7,1.5,1.5,1.5c0.8,0,1.5-0.7,1.5-1.5c0-0.8-0.7-1.5-1.5-1.5C6.7,71.4,6,72,6,72.9z"/>
	</defs>
	<clipPath id="XMLID_72_">
		<use xlink:href="#XMLID_33_"  style="overflow:visible;"/>
	</clipPath>
	<g id="XMLID_34_" class="st6">
		<defs>
			<rect id="XMLID_35_" x="-392.9" y="-1615" width="1440" height="5096"/>
		</defs>
		<clipPath id="XMLID_73_">
			<use xlink:href="#XMLID_35_"  style="overflow:visible;"/>
		</clipPath>
		<rect id="XMLID_36_" x="1" y="66.4" class="st7" width="13" height="13"/>
	</g>
</g>
<g id="XMLID_27_">
	<defs>
		<path id="XMLID_28_" d="M10.8,72.9c0,0.8,0.7,1.5,1.5,1.5c0.8,0,1.5-0.7,1.5-1.5c0-0.8-0.7-1.5-1.5-1.5
			C11.5,71.4,10.8,72,10.8,72.9z"/>
	</defs>
	<clipPath id="XMLID_74_">
		<use xlink:href="#XMLID_28_"  style="overflow:visible;"/>
	</clipPath>
	<g id="XMLID_29_" class="st8">
		<defs>
			<rect id="XMLID_30_" x="-392.9" y="-1615" width="1440" height="5096"/>
		</defs>
		<clipPath id="XMLID_75_">
			<use xlink:href="#XMLID_30_"  style="overflow:visible;"/>
		</clipPath>
		<rect id="XMLID_31_" x="5.8" y="66.4" class="st9" width="13" height="13"/>
	</g>
</g>
<g id="XMLID_22_">
	<defs>
		<path id="XMLID_23_" d="M1.7,71.8c-0.3,0.3-0.4,0.7-0.4,1s0.2,0.8,0.4,1s0.7,0.4,1,0.4s0.8-0.2,1-0.4c0.3-0.3,0.4-0.7,0.4-1
			s-0.2-0.8-0.4-1c-0.3-0.3-0.7-0.4-1-0.4C2.3,71.4,2,71.5,1.7,71.8z"/>
	</defs>
	<clipPath id="XMLID_76_">
		<use xlink:href="#XMLID_23_"  style="overflow:visible;"/>
	</clipPath>
	<g id="XMLID_24_" class="st10">
		<defs>
			<rect id="XMLID_25_" x="-392.9" y="-1615" width="1440" height="5096"/>
		</defs>
		<clipPath id="XMLID_77_">
			<use xlink:href="#XMLID_25_"  style="overflow:visible;"/>
		</clipPath>
		<rect id="XMLID_26_" x="-3.8" y="66.4" class="st11" width="13" height="13"/>
	</g>
</g>
<g id="XMLID_17_">
	<defs>
		<path id="XMLID_18_" d="M51.2,71.8c-0.3,0.3-0.4,0.7-0.4,1s0.2,0.8,0.4,1s0.7,0.4,1,0.4c0.4,0,0.8-0.2,1-0.4
			c0.3-0.3,0.4-0.7,0.4-1s-0.2-0.8-0.4-1c-0.3-0.3-0.7-0.4-1-0.4C51.9,71.4,51.5,71.5,51.2,71.8z"/>
	</defs>
	<clipPath id="XMLID_78_">
		<use xlink:href="#XMLID_18_"  style="overflow:visible;"/>
	</clipPath>
	<g id="XMLID_19_" class="st12">
		<defs>
			<rect id="XMLID_20_" x="-392.9" y="-1615" width="1440" height="5096"/>
		</defs>
		<clipPath id="XMLID_79_">
			<use xlink:href="#XMLID_20_"  style="overflow:visible;"/>
		</clipPath>
		<rect id="XMLID_21_" x="45.8" y="66.4" class="st13" width="13" height="13"/>
	</g>
</g>
<g id="XMLID_12_">
	<defs>
		<path id="XMLID_13_" d="M47.5,71.4c-0.8,0-1.5,0.7-1.5,1.5c0,0.8,0.7,1.5,1.5,1.5c0.8,0,1.5-0.7,1.5-1.5
			C49,72,48.3,71.4,47.5,71.4z"/>
	</defs>
	<clipPath id="XMLID_80_">
		<use xlink:href="#XMLID_13_"  style="overflow:visible;"/>
	</clipPath>
	<g id="XMLID_14_" class="st14">
		<defs>
			<rect id="XMLID_15_" x="-392.9" y="-1615" width="1440" height="5096"/>
		</defs>
		<clipPath id="XMLID_81_">
			<use xlink:href="#XMLID_15_"  style="overflow:visible;"/>
		</clipPath>
		<rect id="XMLID_16_" x="41" y="66.4" class="st15" width="13" height="13"/>
	</g>
</g>
<g id="XMLID_7_">
	<defs>
		<path id="XMLID_8_" d="M42.7,71.4c-0.8,0-1.5,0.7-1.5,1.5c0,0.8,0.7,1.5,1.5,1.5c0.8,0,1.5-0.7,1.5-1.5
			C44.2,72,43.5,71.4,42.7,71.4z"/>
	</defs>
	<clipPath id="XMLID_82_">
		<use xlink:href="#XMLID_8_"  style="overflow:visible;"/>
	</clipPath>
	<g id="XMLID_9_" class="st16">
		<defs>
			<rect id="XMLID_10_" x="-392.9" y="-1615" width="1440" height="5096"/>
		</defs>
		<clipPath id="XMLID_83_">
			<use xlink:href="#XMLID_10_"  style="overflow:visible;"/>
		</clipPath>
		<rect id="XMLID_11_" x="36.2" y="66.4" class="st17" width="13" height="13"/>
	</g>
</g>
<g id="XMLID_2_">
	<defs>
		<path id="XMLID_3_" d="M36.5,72.9c0,0.8,0.7,1.5,1.5,1.5c0.8,0,1.5-0.7,1.5-1.5c0-0.8-0.7-1.5-1.5-1.5
			C37.1,71.4,36.5,72,36.5,72.9z"/>
	</defs>
	<clipPath id="XMLID_84_">
		<use xlink:href="#XMLID_3_"  style="overflow:visible;"/>
	</clipPath>
	<g id="XMLID_4_" class="st18">
		<defs>
			<rect id="XMLID_5_" x="-392.9" y="-1615" width="1440" height="5096"/>
		</defs>
		<clipPath id="XMLID_85_">
			<use xlink:href="#XMLID_5_"  style="overflow:visible;"/>
		</clipPath>
		<rect id="XMLID_6_" x="31.5" y="66.4" class="st19" width="13" height="13"/>
	</g>
</g>
</svg>
